<svg viewBox="0 0 1920 1920" version="1.1" xmlns="http://www.w3.org/2000/svg">
    <path d="M1400 1193.573l-800-200v-355.04l800-200v755.04zM280 656.053h160v320H280v-320zm1249.2-383.04c-19.44-15.28-44.8-20.64-68.64-14.56l-950.4 237.6H280c-88.24 0-160 71.68-160 160v320c0 88.16 71.76 160 160 160h160v160c0 17.36 5.6 34.16 16 48l240 320 128-96-224-298.72v-110.8l860.56 215.12c6.4 1.6 12.96 2.4 19.44 2.4 17.68 0 35.04-5.84 49.2-16.96 19.44-15.2 30.8-38.4 30.8-63.04v-960c0-24.64-11.36-47.92-30.8-63.04zM1640 590.805v450.48c92.96-33.12 160-121.12 160-225.28 0-104.08-67.04-192.08-160-225.2z" stroke="none" stroke-width="1" fill-rule="evenodd"/>
</svg>
