<svg viewBox="0 0 1920 1920" version="1.1" xmlns="http://www.w3.org/2000/svg">
    <path d="M1494.545 540.455V464.09c0-42.153 34.288-76.364 76.364-76.364 42.076 0 76.364 34.211 76.364 76.364v76.364h-152.728zm152.728 740.574l-76.364 114.546-76.364-114.546V693.182h152.728v587.847zM1570.909 235c-126.305 0-229.09 102.785-229.09 229.09v863.14l229.09 343.635L1800 1327.23V464.091C1800 337.785 1697.215 235 1570.91 235zm-534.545 76.364H272.727C188.498 311.364 120 379.862 120 464.09v1069.09c0 84.23 68.498 152.728 152.727 152.728h763.637c84.229 0 152.727-68.498 152.727-152.727V464.09c0-84.23-68.498-152.727-152.727-152.727zM272.727 1533.182V464.09h763.637l.152 1069.09H272.727zm152.728-763.637h458.181V616.818H425.455v152.727zm0 305.455h458.181V922.273H425.455V1075zm0 305.455h305.454v-152.728H425.455v152.728z" stroke="none" stroke-width="1" fill-rule="evenodd"/>
</svg>
