<svg viewBox="0 0 1920 1920" version="1.1" xmlns="http://www.w3.org/2000/svg">
    <path d="M1040.016 853.009c61.712 0 112 50.232 112 112h-224c0-61.768 50.288-112 112-112m0-112c-123.536 0-224 100.464-224 224-30.968 0-56 25.032-56 56v312c0 30.968 25.032 56 56 56h448c30.968 0 56-25.032 56-56v-312c0-30.968-25.032-56-56-56 0-123.536-100.464-224-224-224m573.817 9.142c.43-7.345.586-14.534.586-21.684 0-257.782-210.312-467.47-468.915-467.47-187.496 0-354.597 112.326-428.478 277.943-11.84-1.212-23.638-1.758-35.476-1.758-199.373 0-363.036 155.614-375.226 351.51C191.38 966.207 120 1096.7 120 1236.96c0 209.96 155.732 390.62 362.177 420.274l802.454.976c284.155 0 515.369-230.433 515.369-513.69 0-153.934-68.567-297.281-186.167-394.37m-329.202 712.712H503.705c-107.833-18.637-188.356-114.631-188.356-225.902 0-87.125 51.885-167.258 132.095-204.296l64.739-29.85-10.002-80.522c-.47-3.4-1.172-6.72-1.25-10.12 0-99.08 81.069-179.642 180.619-179.642 21.41 0 43.329 4.259 65.13 12.698l107.754 41.727 23.207-113.186c25.786-126 138.464-217.423 267.863-217.423 150.887 0 273.566 122.054 273.566 272.12 0 14.69-1.602 30.28-5.001 48.916l-11.955 64.505 55.245 35.475c92.243 59.152 147.292 159.014 147.292 267.159 0 175.54-143.542 318.34-320.02 318.34" stroke="none" stroke-width="1" fill-rule="evenodd"/>
</svg>
