<svg viewBox="0 0 1920 1920" version="1.1" xmlns="http://www.w3.org/2000/svg">
    <path d="M1680 80H240c-44.16 0-80 35.84-80 80v1600c0 44.24 35.84 80 80 80h1440c44.16 0 80-35.76 80-80V160c0-44.16-35.84-80-80-80zM320 240h160v1440H320V240zm1280 1440H640V240h960v1440zm-540-950h110v110h110V455.04c0-30.4-24.64-55.04-54.96-55.04h-220c-30.4 0-55.04 24.64-55.04 55.04V840h110V730zm110-220v110h-110V510h110zm-257.52 930c75.84 0 137.52-61.68 137.52-137.52 0-31.04-10.72-59.44-28.16-82.48 17.44-23.04 28.16-51.44 28.16-82.48 0-75.84-61.68-137.52-137.52-137.52H720v440h192.48zm0-330c15.12 0 27.52 12.32 27.52 27.52s-12.32 27.52-27.52 27.52H830V1110h82.48zm0 220H830v-55.04h82.48c15.12 0 27.52 12.4 27.52 27.52 0 15.2-12.32 27.52-27.52 27.52zM1190 1165.04v110c0 91.04 74 165.04 165.04 165.04H1520v-110h-165.04c-30.32 0-55.04-24.56-55.04-55.04v-110c0-30.32 24.64-55.04 55.04-55.04H1520v-110h-165.04c-90.96 0-164.96 74.08-164.96 165.04z" stroke="none" stroke-width="1" fill-rule="evenodd"/>
</svg>
