<svg viewBox="0 0 1920 1920" version="1.1" xmlns="http://www.w3.org/2000/svg">
    <path d="M640.024 880h480.024V720H640.024v160zm0-240h640.032V480H640.024v160zm-160.008 80H320.008V160h1280.064v560h-160.008V320H480.016v400zm-160.008 880v-549.2l348.817 290.72c14.401 11.92 32.562 18.48 51.203 18.48h480.024c18.72 0 36.882-6.56 51.283-18.48l348.817-290.72.08 549.2H320.008zm1393.99-792.48c-28.162-13.12-61.283-8.88-85.125 10.96L1171.091 1200H748.989L291.207 818.56c-23.762-19.84-57.123-24.16-85.125-10.96C178.001 820.72 160 848.96 160 880v720c0 88.24 71.764 160 160.008 160h1280.064c88.324 0 160.008-71.76 159.928-160.08v-720c0-30.96-17.921-59.28-46.002-72.4z" stroke="none" stroke-width="1" fill-rule="evenodd"/>
</svg>
