<svg viewBox="0 0 1920 1920" version="1.1" xmlns="http://www.w3.org/2000/svg">
    <path d="M1360.16 1600l-.16-560H560v560h800.16zM720 880h480V560c0-132.32-107.68-240-240-240S720 427.68 720 560v320zm800 160v560c0 88.24-71.68 160-160 160H560c-88.32 0-160-71.76-160-160v-560c0-88.32 71.68-160 160-160V560c0-220.56 179.44-400 400-400s400 179.44 400 400v320c88.32 0 160 71.68 160 160zm-440 280c0 66.24-53.76 120-120 120-66.24 0-120-53.76-120-120 0-66.24 53.76-120 120-120 66.24 0 120 53.76 120 120z" stroke="none" stroke-width="1" fill-rule="evenodd"/>
</svg>
