<svg viewBox="0 0 1920 1920" version="1.1" xmlns="http://www.w3.org/2000/svg">
    <path d="M1117.796 800.053h320.024V640.06h-320.024v159.992zm-640.048 0h320.024V640.06H477.748v159.992zm1125.284-428.617c-101.847 49.118-255.299 108.634-400.19 108.634-37.522 0-103.207 60.317-142.57 96.475-19.202 17.679-37.043 33.918-52.964 46.397-29.042 23.04-70.005 23.04-99.048 0-17.841-14.159-37.442-32.878-58.404-53.037-37.043-35.678-92.967-89.835-127.05-89.835-146.01 0-302.662-60.556-405.95-109.914 0 157.592 24.642 388.459 132.17 507.732 49.844 55.277 113.128 82.156 193.775 82.156 106.167 0 176.573-63.517 233.137-114.554 26.802-24.158 45.843-45.437 81.846-45.437 35.043 0 52.564 19.199 78.646 42.477 56.084 49.518 132.65 117.514 241.378 117.514 78.966 0 141.29-26.479 190.654-80.956 107.608-118.713 133.61-349.5 134.57-507.652zm-15.84 614.926c-80.327 88.636-184.335 133.673-309.384 133.673-147.691 0-251.379-75.036-319.624-133.433-66.165 57.837-167.692 133.433-315.383 133.433-126.89 0-232.098-45.517-312.904-135.352-218.096-242.467-168.813-732.28-166.652-753a79.762 79.762 0 0 1 44.323-63.356c24.562-12.159 53.684-10.72 77.206 3.6 2.4 1.6 242.978 148.152 438.032 148.152 97.528 0 174.174 72.876 235.938 132.473 66.085-60.637 147.531-132.473 244.098-132.473 162.253 0 367.228-106.554 432.353-147.672 23.442-14.88 52.964-16.479 77.846-4.24 24.881 12.24 41.763 36.318 44.483 63.917 2.08 20.879 48.404 512.612-170.333 754.278zm64.324 53.678c44.643-49.278 79.286-106.795 106.328-167.831V1760h-160.012v-669.643c18.801-15.36 36.883-31.839 53.684-50.317z" stroke="none" stroke-width="1" fill-rule="evenodd"/>
</svg>
