<svg viewBox="0 0 1920 1920" version="1.1" xmlns="http://www.w3.org/2000/svg">
    <path d="M960 1880c-790.88 0-800-1304.48-800-1360 0-29.04 15.76-55.76 41.12-69.92l720-400c24.24-13.44 53.52-13.44 77.76 0l720 400c25.36 14.16 41.12 40.88 41.12 69.92 0 55.52-9.12 1360-800 1360zM321.2 566.4C330 787.28 400.24 1720 960 1720s630-932.72 638.72-1153.6L960 211.44 321.2 566.4zm665.84 818.88L580 1080l120-160 232.88 174.72 342.24-547.68 169.68 106-457.76 732.24z" stroke="none" stroke-width="1" fill-rule="evenodd"/>
</svg>
