<svg viewBox="0 0 1920 1920" version="1.1" xmlns="http://www.w3.org/2000/svg">
    <path d="M1344.177 1640H922.011v-422.16c24-14 43.841-33.84 57.761-57.84h422.326v422.16c-24.08 13.92-43.92 33.76-57.921 57.84zM762.009 942.16c-24 14.08-43.84 33.84-57.84 57.84H282.003V577.84c24-14 43.84-33.84 57.76-57.84H762.01v422.16zm0 697.84H339.764c-13.92-24-33.76-43.76-57.76-57.84V1160h422.165c14 24 33.84 43.84 57.84 57.84V1640zm800.01-57.84V840h-160.001v160H979.772c-13.92-24-33.76-43.76-57.76-57.84V520h160.002V360h-742.25c-27.68-47.6-78.721-80-137.762-80C113.601 280 42 351.68 42 440c0 59.04 32.4 110.08 80.001 137.84v1004.32C74.401 1609.92 42 1660.96 42 1720c0 88.32 71.6 160 160.002 160 59.04 0 110.082-32.4 137.762-80h1004.413c27.76 47.6 78.721 80 137.842 80 88.32 0 160.002-71.68 160.002-160 0-59.04-32.4-110.08-80.001-137.84zM1641.998 280V40h-160.002v240h-240.003v160h240.003v240h160.002V440H1882V280h-240.003z" stroke="none" stroke-width="1" fill-rule="evenodd"/>
</svg>
