<svg viewBox="0 0 1920 1920" version="1.1" xmlns="http://www.w3.org/2000/svg">
    <path d="M1324.615 1441.852H543.69c-107.833-18.636-188.356-114.63-188.356-225.9 0-87.127 51.885-167.259 132.095-204.297l64.739-29.849-10.002-80.523c-.469-3.399-1.172-6.72-1.25-10.119 0-99.08 81.07-179.643 180.62-179.643 21.41 0 43.328 4.259 65.128 12.698l107.755 41.726 23.207-113.185c25.786-126 138.464-217.423 267.863-217.423 150.887 0 273.566 122.054 273.566 272.121 0 14.69-1.602 30.28-5 48.915l-11.956 64.505 55.245 35.475c92.243 59.152 147.293 159.014 147.293 267.159 0 175.54-143.543 318.34-320.02 318.34m329.2-712.71c.43-7.345.587-14.534.587-21.684 0-257.782-210.313-467.47-468.915-467.47-187.496 0-354.598 112.326-428.479 277.943-11.838-1.212-23.637-1.759-35.475-1.759-199.373 0-363.036 155.615-375.226 351.511-114.943 77.515-186.324 208.008-186.324 348.268 0 209.961 155.732 390.62 362.177 420.274l802.454.976c284.154 0 515.37-230.433 515.37-513.689 0-153.935-68.568-297.282-186.168-394.37" stroke="none" stroke-width="1" fill-rule="evenodd"/>
</svg>
