<svg viewBox="0 0 1920 1920" version="1.1" xmlns="http://www.w3.org/2000/svg">
    <path d="M400 560c29.28 0 56.32-8.4 79.92-22.16L800.08 720.8C800.48 808.72 871.92 880 960 880c88.32 0 160-71.68 160-160 0-14.24-2.48-27.76-5.92-40.96l365.04-364.96c13.12 3.44 26.64 5.92 40.88 5.92 88.32 0 160-71.68 160-160 0-88.4-71.68-160-160-160s-160 71.6-160 160c0 14.24 2.48 27.84 6 40.96L1000.88 566c-13.12-3.52-26.64-6-40.88-6-29.28 0-56.32 8.4-79.92 22.16l-320.16-182.8C559.52 311.2 488.16 240 400 240c-88.32 0-160 71.6-160 160 0 88.32 71.68 160 160 160zM160 1919.984h1600v-160H160v160zm640-240h320v-480H800v480zm480 0h320v-960h-320v960zm-960 0h320v-640H320v640z" stroke="none" stroke-width="1" fill-rule="evenodd"/>
</svg>
