<svg viewBox="0 0 1920 1920" version="1.1" xmlns="http://www.w3.org/2000/svg">
    <path d="M1611.833 750.153c.43-7.345.586-14.533.586-21.683 0-257.783-210.313-467.47-468.916-467.47-187.496 0-354.597 112.326-428.478 277.942-11.838-1.21-23.637-1.758-35.475-1.758-199.373 0-363.037 155.615-375.226 351.51C189.38 966.21 118 1096.703 118 1236.964c0 209.96 155.732 390.62 362.177 420.273l802.454.977c284.154 0 515.369-230.433 515.369-513.69 0-153.934-68.567-297.281-186.167-394.37m-237.257 334.299l-376.56 376.56-376.56-376.56 113.12-113.12 183.44 183.44v-446.96h160v446.96l183.44-183.44 113.12 113.12z" stroke="none" stroke-width="1" fill-rule="evenodd"/>
</svg>
