<svg viewBox="0 0 1920 1920" version="1.1" xmlns="http://www.w3.org/2000/svg">
    <path d="M880.026 399.998v79.999h159.998v-80C1040.024 267.68 932.345 160 800.026 160H640.028v159.998h159.998c44.08 0 80 35.92 80 80zM1440.02 160s-159.998 0-239.998 80c-79.999 79.998-79.999 239.997-79.999 239.997s159.999 0 239.998-80C1440.02 319.999 1440.02 160 1440.02 160zm-210.27 349.373c-91.999 0-184.158 35.52-269.757 103.438-85.52-67.919-177.678-103.438-269.678-103.438C424.958 509.373 240 789.05 240 1040.007 240 1403.364 517.437 1760 799.994 1760c21.04 0 41.44-8.56 56.4-23.2 23.28-22.88 72.32-56.8 103.599-56.8 31.36 0 80.319 33.84 103.599 56.72 15.04 14.88 35.28 23.28 56.4 23.28 282.636 0 559.994-356.636 559.994-719.993 0-250.957-184.879-530.634-450.236-530.634z" stroke="none" stroke-width="1" fill-rule="evenodd"/>
</svg>
