<svg viewBox="0 0 1920 1920" version="1.1" xmlns="http://www.w3.org/2000/svg">
    <g stroke="none" stroke-width="1" fill-rule="evenodd">
        <path d="M960 163c440.183 0 797 356.817 797 797s-356.817 797-797 797-797-356.817-797-797 356.817-797 797-797zm0 159.4c352.141 0 637.6 285.459 637.6 637.6s-285.459 637.6-637.6 637.6S322.4 1312.141 322.4 960 607.859 322.4 960 322.4z"/>
        <path d="M848.951 551.139c0-73.723 37.008-110.65 111.049-110.65s110.996 36.874 110.996 110.677c0 72.898-37.008 109.348-110.996 109.348s-111.049-36.45-111.049-109.322v-.053zm325.973 201.8v320.926h-91.07v381.072H836.199v-381.046h-91.07V752.966c0-14.027 4.994-25.903 14.93-35.706a49.928 49.928 0 0 1 36.29-14.718h327.355c13.283 0 25.158 4.889 35.6 14.718 10.36 9.83 15.62 21.705 15.62 35.706v-.027z"/>
    </g>
</svg>
