<svg viewBox="0 0 1920 1920" version="1.1" xmlns="http://www.w3.org/2000/svg">
    <path d="M240 240v1440c0 44.24 35.84 80 80 80h240V160H320c-44.16 0-80 35.84-80 80zm1360-80H640v1600h960c44.16 0 80-35.76 80-80V240c0-44.16-35.84-80-80-80zm-470 1142.48c0 75.84-61.68 137.52-137.52 137.52H800v-440h192.48c75.84 0 137.52 61.68 137.52 137.52 0 31.12-10.72 59.44-28.16 82.48 17.44 23.04 28.16 51.44 28.16 82.48zM1520 1110h-164.96c-30.32 0-55.04 24.72-55.04 55.04v110c0 30.32 24.64 55.04 55.04 55.04H1520V1440h-164.96c-90.96 0-164.96-74-164.96-164.96v-110c0-90.96 74-164.96 164.96-164.96H1520V1110zm-527.52 165.04H910v55.04h82.48c15.12 0 27.52-12.32 27.52-27.52s-12.32-27.52-27.52-27.52zM1060 730v110H950V455.04c0-30.4 24.64-55.04 55.04-55.04h220c30.32 0 54.96 24.64 54.96 55.04V840h-110V730h-110zm0-220h110v110h-110V510zm-67.52 600H910v55.04h82.48c15.12 0 27.52-12.32 27.52-27.52s-12.32-27.52-27.52-27.52z" stroke="none" stroke-width="1" fill-rule="evenodd"/>
</svg>
