<svg viewBox="0 0 1920 1920" version="1.1" xmlns="http://www.w3.org/2000/svg">
    <path d="M1360 413.76c0 21.04-8.56 41.68-23.44 56.56L960 846.88 583.44 470.32C568.56 455.44 560 434.8 560 413.76V320h800v93.76zm0 1092.56V1600H560v-93.68c0-21.36 8.32-41.44 23.44-56.56L960 1073.12l376.56 376.64c15.12 15.12 23.44 35.2 23.44 56.56zm160-1092.56V240c0-44.16-35.84-80-80-80H480c-44.16 0-80 35.84-80 80v173.76c0 63.2 25.6 124.96 70.32 169.68L846.88 960l-376.56 376.64C424.96 1382 400 1442.16 400 1506.32V1680c0 44.16 35.84 80 80 80h960c44.16 0 80-35.84 80-80v-173.68c0-64.16-24.96-124.32-70.32-169.68L1073.12 960l376.56-376.56c44.72-44.72 70.32-106.48 70.32-169.68zM720 1520.008l240-240 240 240H720z" stroke="none" stroke-width="1" fill-rule="evenodd"/>
</svg>
