<svg viewBox="0 0 1920 1920" version="1.1" xmlns="http://www.w3.org/2000/svg">
    <path d="M960 1760c441.828 0 800-358.172 800-800s-358.172-800-800-800-800 358.172-800 800 358.172 800 800 800zM809 934c0-30.928 25.07-56 55.994-56h191.012c30.925 0 55.994 25.07 55.994 56v521c0 30.928-25.07 56-55.994 56H864.994c-30.925 0-55.994-25.07-55.994-56V934zm151.5-206c88.09 0 159.5-71.41 159.5-159.5S1048.59 409 960.5 409 801 480.41 801 568.5 872.41 728 960.5 728z" stroke="none" stroke-width="1" fill-rule="evenodd"/>
</svg>
