<svg viewBox="0 0 1920 1920" version="1.1" xmlns="http://www.w3.org/2000/svg">
    <path d="M1114.936 800.004h399.957v-160h-399.957v160zm-719.924 0H794.97v-160H395.012v160zm1194.273 186.24c-80.311 88.799-184.38 133.759-309.327 133.759-147.984 0-251.653-75.44-319.966-133.76-68.233 58.4-171.982 133.76-319.966 133.76-124.946 0-229.015-44.96-309.327-133.76-218.616-241.679-172.301-733.437-170.222-754.237 2.72-27.36 19.438-51.44 44.076-63.76 24.717-12.16 53.994-10.8 77.511 3.6 2.4 1.52 243.015 148.16 437.954 148.16 97.03 0 176.06 72.32 239.974 132.48 63.913-60.08 142.945-132.48 239.975-132.48 195.019 0 435.553-146.56 437.873-148.16 23.437-14.4 52.794-15.76 77.512-3.6 24.717 12.24 41.435 36.32 44.155 63.76 2.08 20.8 48.475 512.638-170.222 754.237zm59.274 53.76c44.635-49.2 79.271-106.8 106.308-167.84V1760h-159.983v-669.677c18.798-15.44 36.876-31.84 53.675-50.32z" stroke="none" stroke-width="1" fill-rule="evenodd"/>
</svg>
