<svg viewBox="0 0 1920 1920" version="1.1" xmlns="http://www.w3.org/2000/svg">
    <path d="M1712.806 461.086s0 .114-.114.114l.286-.743c0 .286 0 .457-.172.572v.057zm-580.574 912.171c-6.971 21.143-19.485 41.714-37.657 61.943-18.229 20.171-41.886 38.114-72.286 53.829-30.514 15.714-72 25.142-116.686 28.4v78.114h-57.486v-78.057c-70.115-5.086-126.458-25.657-166.515-64.115-40-38.514-63.143-98.4-69.372-168.057h134.172c-.571 31.6 8.8 63.143 28.515 83.886 19.657 20.8 41.257 32.914 73.143 38.629V1210.17c0-1.2-7.314-2.628-12.743-4.171-5.371-1.543-11.2-2.971-17.543-4.286-23.543-6.343-46.686-13.657-69.543-22.228-22.857-8.572-43.315-19.829-61.429-34-18.057-14.286-32.514-31.829-43.314-52.857-10.743-21.029-16.172-47.486-16.172-78.972 0-32.057 6.114-60.514 18.572-85.028 12.457-24.572 28.743-45.143 49.086-61.943C715.202 850.057 738.63 836.97 765.26 828c26.628-9.029 57.143-14.686 82.686-16.514V740.57h57.486v70.915c25.542 3.143 54.857 9.314 79.943 18.4 25.028 9.085 46.857 21.714 65.943 37.828 19.028 16.115 34.457 36.172 46.514 60.115 12.115 23.942 18.915 53.428 20.858 85.142H983.432c-.572-25.371-8.057-46.742-23.315-64.342-15.257-17.658-35.6-26.572-54.743-26.572v167.257c6.458 1.886 14.915 3.772 22.858 5.657 7.885 1.829 16.114 4.115 24.971 6.515 46.972 12.628 83.086 28.228 108.515 46.914 25.429 18.629 44.057 37.829 56.114 58.057 12.172 20.172 19.143 40.343 21.543 60.514 2.4 20.229 3.315 38 3.315 53.829 0 13.829-3.6 31.314-10.572 52.4l.114.057zM883.946 277.143c139.543 0 259.086 115.2 307.658 279.828H576.23c48.572-164.628 168.172-279.828 307.716-279.828zm829.66 181.314V460c.286-10.457-42.343-17.029-105.315-17.029h-271.086a859.832 859.832 0 0 1 14.457 38h256.572c3.2 0 6.286.8 9.258.858l-76.515 59.542c-12.743 5.715-67.543 15.6-137.372 15.6h-119.258C1232.176 328.914 1072.404 160 883.946 160c-188.515 0-348.402 168.857-400.573 396.857H265.372c-3.143 0-6.286.229-9.257.229l76.4-59.257c9.2-4.172 40.343-10.343 83.2-13.486 4.4-14.572 9.372-28.914 14.686-42.972-57.886 2.972-108.915 11.886-122.458 22.4L163.486 576.114c-2.857 2.172-3.772 4.172-3.2 6.286-.115-.343-.286-.629-.286-.971 7.771 192.914 15.429 385.885 23.143 579.028l23.143 579.029c0 .628.228 1.314.571 1.943.115.285.343.457.572.628.285.457.628.857 1.028 1.2l1.086.8c.629.343 1.029.743 1.6 1.029l1.6.8 1.943.971c.629.229 1.314.572 2 .743l2.4.914 2.4.743c1.829.572 3.714 1.086 5.657 1.372l3.257.742 3.2.572 3.6.743 1.543.285 1.943.286 5.086.743c.571 0 1.314.171 1.943.286l1.828.171 3.372.343 2.514.286c.743 0 1.657 0 2.4.228l3.029.286 1.657.114c1.6.115 3.257.286 4.971.343l1.6.114h.114l6.458.4c.628 0 1.2 0 1.828.115.743 0 1.543 0 2.4.171.8.114 1.486 1.486 2.229 1.486 2.114.114 4.228 1.657 6.343 1.657h.114c.457 0 .914-1.429 1.429-1.429 1.6 0 3.2-.628 4.742-.628 1.429 0 2.915-.343 4.229-.343.571 0 .971-.171 1.429-.114.342 0 .571-.115.857 0 2.114 0 4.228 1.2 6.343 1.2 1.314 0 2.685 1.2 4 1.2h1140.804c2 0 4.057-1.2 5.943-1.315 1.829 0 3.429.572 5.086.572.171 0 .285.743.4.743h.285c1.772 0 3.6-1.372 5.372-1.429 1.657 0 3.314-.743 4.971-.8.743 0 1.486-.4 2.286-.4l1.086-.171 1.371-.115c1.543 0 3.143-.114 4.8-.285l4.515-.286c.628 0 1.2 0 1.714-.114h.971c.629-.115 1.315-.115 2-.172 1.772-.114 3.6-1.2 5.257-1.314 1.658-.114 3.6-1.371 5.258-1.371.171 0 .342.971.628.971 2.629-.114 5.257.171 7.886 0 .457 0 .914.114 1.371 0 6.115-.4 11.943-.914 17.772-1.486h1.086l5.657-.743 3.485-.4h.858l8.343-1.2c.342 0 .628 0 .914-.114l2.514-.343c1.657-.228 3.486-.571 5.143-.743l1.943-.342 4-.572 2.971-.571 2.629-.629 3.486-.571 2.057-.457 3.657-.858 2.4-.571c.286 0 .629 0 .857-.114 1.886-.457 3.772-.972 5.6-1.429l.743-.228 1.2-.4c.914-.286 1.771-.572 2.743-.743l3.257-1.029.571-.171h.172a86.745 86.745 0 0 0 5.371-2.057c.229 0 .4-.172.629-.286l.457-.114 2.629-1.143c.457-.286.8-.515 1.2-.629l.628-.343.457-.228 2-1.2 1.2-.915 144.515-112.285c.114 0 .286-.172.4-.286.457-.4.914-.8 1.314-1.2l.8-1.086s0-.114.115-.114c.114 0 0 0 0-.114.228-.4.457-.915.571-1.315.114-.4 0-.685 0-1.2L1713.72 458.114l-.114.343zM789.374 941.371c-8.229 6.515-14.743 14.858-19.486 24.572-4.743 9.714-7.2 21.257-7.2 34.457 0 20.743 6.572 36.914 20 48.229 13.372 11.371 33.657 20.457 65.6 27.314v-154c-12.742 0-21.2 1.6-31.371 4.743-10.172 3.143-19.257 8.057-27.543 14.685zm195.315 318.515c-15.543-12.286-40.686-23.486-78.972-33.543v181.428c12.743-1.2 22.743-3.942 35.2-8.114 12.4-4.114 23.2-9.886 33.086-17.428 9.772-7.543 17.772-16.858 24.172-27.886 6.4-11.086 9.543-24.057 9.543-39.2 0-24.572-7.543-42.972-23.086-55.2l.057-.057z" stroke="none" stroke-width="1" fill-rule="evenodd"/>
</svg>
