<svg viewBox="0 0 1920 1920" version="1.1" xmlns="http://www.w3.org/2000/svg">
    <path d="M1840 231.986L1727.959 120l-340.165 339.999-181.69-181.602-112.042 111.986 293.732 293.589L1840 231.986zm-471.699 1086.285c59.508-43.242 98.73-112.857 98.73-191.897 0-130.995-106.653-237.596-237.711-237.596-131.059 0-237.712 106.601-237.712 237.596 0 79.04 39.223 148.655 98.73 191.897-104.99 51.637-177.967 158.714-177.967 283.293v79.198c0 43.718 35.498 79.198 79.237 79.198h475.423c43.739 0 79.237-35.48 79.237-79.198v-79.198c0-124.58-72.977-231.656-177.967-283.293zm-455.93 45.737c0 43.718-35.498 79.199-79.237 79.199h-79.237v237.595c0 43.717-35.498 79.198-79.237 79.198H357.71c-43.739 0-79.237-35.48-79.237-79.198v-237.595h-79.237c-43.739 0-79.237-35.481-79.237-79.199v-158.397c0-182.63 124.957-335.167 293.336-380.785-79.475-38.49-134.862-119.194-134.862-213.202 0-131.073 106.653-237.595 237.712-237.595 131.058 0 237.71 106.522 237.71 237.595 0 94.008-55.386 174.711-134.86 213.202C787.492 870.444 912.37 1022.98 912.37 1205.61v158.397z" stroke="none" stroke-width="1" fill-rule="evenodd"/>
</svg>
