<svg viewBox="0 0 1920 1920" version="1.1" xmlns="http://www.w3.org/2000/svg">
    <path d="M1642.607 277.398C1568.012 202.399 1467.952 160 1360.025 160c-220.586 0-399.975 179.463-399.975 399.992h133.325c0-147.064 119.593-266.661 266.65-266.661 71.862 0 137.658 29.399 187.388 79.265l-120.726 120.73H1760V160l-117.393 117.398zm-282.582 549.288c-71.796 0-137.591-29.333-187.388-79.265l120.726-120.73H960.05v333.326l117.593-117.598c74.528 74.265 176.322 117.598 282.382 117.598 220.586 0 399.975-179.397 399.975-399.992h-133.325c0 147.064-119.593 266.661-266.65 266.661zm-149.824 561.488c50.064-36.399 83.062-94.998 83.062-161.53 0-110.264-89.728-199.995-199.988-199.995s-199.987 89.731-199.987 199.995c0 66.532 32.997 125.131 83.061 161.53-88.328 43.466-149.724 133.598-149.724 238.462v66.665c0 36.8 29.865 66.666 66.663 66.666h399.975c36.797 0 66.662-29.866 66.662-66.666v-66.665c0-104.864-61.396-194.996-149.724-238.462zm-383.576 38.5c0 36.799-29.865 66.665-66.662 66.665H693.3v199.996c0 36.799-29.865 66.665-66.662 66.665h-266.65c-36.798 0-66.663-29.866-66.663-66.665v-199.996h-66.662c-36.798 0-66.663-29.866-66.663-66.665v-133.33c0-153.731 105.127-282.128 246.785-320.528-66.863-32.399-113.46-100.33-113.46-179.463 0-110.33 89.728-199.995 199.988-199.995S693.3 683.022 693.3 793.353c0 79.132-46.597 147.064-113.46 179.463 141.725 38.4 246.785 166.797 246.785 320.527v133.33z" stroke="none" stroke-width="1" fill-rule="evenodd"/>
</svg>
