<svg viewBox="0 0 1920 1920" version="1.1" xmlns="http://www.w3.org/2000/svg">
    <path d="M1777.056 586.097l-443.163-443.154c-30.592-30.59-80.18-30.59-110.772 0l-110.81 110.808c-30.592 30.59-30.592 80.178 0 110.769l27.732 27.692-249.275 249.269-55.425-55.384c-61.183-61.182-160.36-61.182-221.543 0L364.525 835.366l304.661 304.653-526.242 526.23c-30.592 30.59-30.592 80.217 0 110.808 30.59 30.59 80.18 30.59 110.77 0l526.243-526.23 304.66 304.653 249.276-249.269c61.182-61.181 61.182-160.395 0-221.577l-55.386-55.384 249.275-249.269 27.693 27.692c30.59 30.591 80.219 30.591 110.81 0l110.771-110.808c30.592-30.59 30.592-80.178 0-110.768" stroke="none" stroke-width="1" fill-rule="evenodd"/>
</svg>
