<svg viewBox="0 0 1920 1920" version="1.1" xmlns="http://www.w3.org/2000/svg">
    <path d="M1351.26 665l157.885 157.861L871.915 1460 458 1046.145l157.884-157.862 256.03 255.994L1351.262 665zm260.58 86.05c.4-7.359.56-14.478.56-21.677C1612.4 471.65 1402.08 262 1143.52 262 956 262 788.88 374.304 715.04 539.88c-11.84-1.2-23.68-1.76-35.52-1.76-199.36 0-363.04 155.578-375.2 351.47C189.36 967.1 118 1097.56 118 1237.78c0 209.97 155.68 390.584 362.16 420.26l802.48.96c284.16 0 515.36-230.367 515.36-513.606 0-153.898-68.56-297.238-186.16-394.344z" stroke="none" stroke-width="1" fill-rule="evenodd"/>
</svg>
