<svg viewBox="0 0 1920 1920" version="1.1" xmlns="http://www.w3.org/2000/svg">
    <path d="M1357.888 478.621V239.68c0-32.178-19.433-61.249-49.142-73.594-29.947-12.346-64.036-5.576-86.815 17.283L505.107 900.193c-31.142 31.142-31.142 81.48 0 112.621l716.824 716.825a79.674 79.674 0 0 0 56.31 23.336c10.275 0 20.629-1.99 30.505-6.053 29.709-12.345 49.142-41.416 49.142-73.594v-238.941h437.957c21.772 0 39.922-17.842 39.922-39.851V518.472c0-22.031-17.874-39.85-39.922-39.85h-437.957zM108.328 889.323c-31.104 31.105-31.104 81.535 0 112.64l734.71 734.709c31.104 31.104 81.534 31.104 112.639 0 31.104-31.105 31.104-81.535 0-112.64L293.014 963.52l626.91-660.513c31.104-31.105 31.104-81.535 0-112.64-31.105-31.104-81.535-31.104-112.64 0L108.328 889.324z" stroke="none" stroke-width="1" fill-rule="evenodd"/>
</svg>
