<svg viewBox="0 0 1920 1920" version="1.1" xmlns="http://www.w3.org/2000/svg">
    <path d="M800 480h960V320H800v160zm0 560h960V880H800v160zm0 560h960v-160H800v160zM560 160H240c-44.16 0-80 35.84-80 80v320c0 44.16 35.84 80 80 80h320c44.24 0 80-35.84 80-80V240c0-44.16-35.76-80-80-80zm0 560H240c-44.16 0-80 35.84-80 80v320c0 44.16 35.84 80 80 80h320c44.24 0 80-35.84 80-80V800c0-44.16-35.76-80-80-80zm0 560H240c-44.16 0-80 35.84-80 80v320c0 44.16 35.84 80 80 80h320c44.24 0 80-35.84 80-80v-320c0-44.16-35.76-80-80-80z" stroke="none" stroke-width="1" fill-rule="evenodd"/>
</svg>
