<svg viewBox="0 0 1920 1920" version="1.1" xmlns="http://www.w3.org/2000/svg">
    <path d="M1683.9 1062.49c4.4-32.5 6.9-65.5 6.9-99.1 0-403.6-329-730.85-734.7-730.85-40.3 0-79.85 3.35-118.35 9.65-134.756-87.896-306.836-94.897-448.286-18.239C248.013 300.609 159.93 448.602 160 609.489c0 88.1 26 170 70.6 238.7-6 37.5-9 76-9 115.2 0 403.65 328.75 730.9 734.6 730.9 45.8 0 90.4-4.5 133.75-12.3 135.224 84.161 305.456 88.36 444.665 10.97 139.21-77.39 225.494-224.195 225.385-383.47 0-91.6-28-176.7-76-247h-.1zm-659.1 439.5c-233.5 12.15-342.7-39.5-442.8-133.4-111.75-104.9-66.85-224.5 24.2-230.65 91-6.15 145.65 103.1 194.2 133.5 48.5 30.25 233.1 99.25 330.6-12.2 106.15-121.35-70.6-184.15-200.2-203.15-185-27.4-418.6-127.5-400.4-324.7 18.2-197.15 167.5-298.2 324.5-312.5 200.3-18.15 330.65 30.4 433.75 118.35 119.2 101.65 54.7 215.3-21.25 224.5-75.65 9-160.65-167.25-327.5-169.9-171.9-2.75-288.15 178.9-75.85 230.5 212.5 51.65 439.9 72.8 521.8 267 82 194.2-127.35 400.4-361 412.5l-.05.15z" stroke="none" stroke-width="1" fill-rule="evenodd"/>
</svg>
