<svg viewBox="0 0 1920 1920" version="1.1" xmlns="http://www.w3.org/2000/svg">
    <path d="M1786.72 484.054a700.8 700.8 0 0 1-201.067 55.146 351.573 351.573 0 0 0 153.92-193.706 701.333 701.333 0 0 1-222.4 84.96A349.707 349.707 0 0 0 1261.76 320a350.133 350.133 0 0 0-350.187 350.134c0 27.466 3.094 54.186 9.067 79.786C639.05 735.814 376.693 602.803 198.88 384a348.587 348.587 0 0 0-47.467 176c-.082 117.108 58.407 226.498 155.84 291.467a348.8 348.8 0 0 1-158.613-43.733v4.373c.012 166.664 117.448 310.243 280.8 343.307a350.827 350.827 0 0 1-158.08 5.973c45.816 142.665 177.278 240.41 327.093 243.2a702.507 702.507 0 0 1-434.933 149.867 708.07 708.07 0 0 1-83.52-4.96 990.933 990.933 0 0 0 536.693 157.333c644.054 0 996.267-533.547 996.267-996.267 0-15.2-.373-30.293-1.067-45.333a711.84 711.84 0 0 0 174.827-181.12v-.053z" stroke="none" stroke-width="1" fill-rule="evenodd"/>
</svg>
