<svg viewBox="0 0 1920 1920" version="1.1" xmlns="http://www.w3.org/2000/svg">
    <path d="M1309.311 1626.667l-864.39-.81C235.75 1595.556 78 1410.796 78 1196.16c0-148.287 77.402-285.884 200.984-363.887 4.898-205.295 172.404-370.758 377.635-370.758 18.901 0 37.802 1.505 56.664 4.516C783.837 284.705 960.028 160 1158.793 160c263.732 0 478.337 215.754 478.337 480.95 0 12.004-.573 24.317-1.645 36.938C1763.162 778.393 1838 931.042 1838 1095.193c0 293.063-237.18 531.474-528.689 531.474zm-224.473-586.895l196.706-196.706-84.48-84.066-196.292 196.292L804.48 759 720 843.066l196.292 196.706L720 1236.064l84.48 84.065 196.292-196.291 196.292 196.291 84.48-84.065-196.706-196.292z" stroke="none" stroke-width="1" fill-rule="evenodd"/>
</svg>
