<svg viewBox="0 0 2000 2000" version="1.1" xmlns="http://www.w3.org/2000/svg" height="50pt" width="50pt">
    <path d="M560 1200c0-147.28 92.72-240 240-240s240 92.72 240 240H560zm400-480c0 88.32-71.68 160-160 160s-160-71.68-160-160 71.68-160 160-160 160 71.68 160 160m480-240h160v160h-160V480zm160 480h-160V800h160v160zm-319.84 640H320V320h960l.16 1280zM1440 320c0-88.32-71.76-160-160-160H320c-88.24 0-160 71.68-160 160v1280c0 88.24 71.76 160 160 160h960c88.24 0 160-71.76 160-160v-480h320V320h-320z" stroke="none" stroke-width="1" fill-rule="evenodd"/>
</svg>
