<svg viewBox="0 0 2080 2080" version="1.1" xmlns="http://www.w3.org/2000/svg" height="26pt" width="26pt">
    <path d="M1568.992 1221.373l-827.163-343.75c-42.483-16.96-88.325-18.8-106.086-18.8H351.008V689.947h284.735c17.761 0 63.603-1.84 108.086-19.6l825.163-342.951v893.977zM1648.996 159h-91.605L682.386 522.59c-12.241 4.88-31.922 7.36-46.643 7.36H271.004c-44.162 0-80.004 35.84-80.004 79.999V938.82c0 44.238 35.842 79.998 80.004 79.998h152.328l253.453 665.903C695.026 1732.56 740.63 1762 788.951 1762c14.24 0 28.642-2.48 42.722-7.84 61.924-23.6 93.045-92.877 69.444-154.876l-218.091-572.786 874.365 363.351h91.605c44.162 0 80.004-35.839 80.004-79.998V238.998c0-44.159-35.842-79.998-80.004-79.998z" stroke="none" stroke-width="1" fill-rule="evenodd"/>
</svg>
