<svg viewBox="0 0 2160 2160" version="1.1" xmlns="http://www.w3.org/2000/svg" height="18pt" width="18pt">
    <path d="M960 880c-176.48 0-320-143.52-320-320 0-176.4 143.52-320 320-320s320 143.6 320 320c0 176.48-143.52 320-320 320zm93.52 727.2c-3.76 41.52-38 72.8-79.6 72.8h-27.84c-41.68 0-75.92-31.28-79.68-72.72l-53.6-590.56c46.4 14.96 95.84 23.28 147.2 23.28 51.36 0 100.8-8.32 147.2-23.28l-53.68 590.48zM1440 560c0-264.72-215.28-480-480-480S480 295.28 480 560c0 143.28 63.36 271.68 163.28 359.76l63.76 701.92C718.32 1746.16 821.12 1840 946.08 1840h27.84c124.88 0 227.6-93.84 238.96-218.32l63.84-701.92C1376.56 831.68 1440 703.28 1440 560zm-560.04 640c0 44.24 35.84 80 80 80s80-35.76 80-80c0-44.16-35.84-80-80-80s-80 35.84-80 80" stroke="none" stroke-width="1" fill-rule="evenodd"/>
</svg>
