<svg viewBox="0 0 2160 2160" version="1.1" xmlns="http://www.w3.org/2000/svg" height="18pt" width="18pt">
    <path d="M789.995 800h959.993V480c0-88.4-71.6-160-159.999-160H1469.99V120c0-66.32-53.76-120-120-120-66.239 0-119.998 53.68-119.998 120v200H669.996V120c0-66.32-53.76-120-119.999-120-66.24 0-120 53.68-120 120v200H310C221.599 320 150 391.6 150 480v1280c0 88.4 71.6 160 159.999 160h479.996v-160H310V800h479.996zm946.161 311.68c-41.52-36.56-104.72-32.64-141.199 8.8l-333.597 378.08-164.96-146.64c-41.119-36.64-104.398-33.12-141.198 8.32-36.64 41.28-32.96 104.48 8.4 141.2l239.998 213.28A99.732 99.732 0 0 0 1270 1740c2 0 4.08-.08 6.08-.16 26.48-1.6 51.36-13.76 68.879-33.68l399.997-453.28c36.56-41.44 32.64-104.64-8.8-141.2z" stroke="none" stroke-width="1" fill-rule="evenodd"/>
</svg>
