<svg viewBox="0 0 2000 2000" version="1.1" xmlns="http://www.w3.org/2000/svg" height="50pt" width="50pt">
    <g stroke="none" stroke-width="1" fill-rule="evenodd" transform="translate(40 40)">
        <path d="M670.22 960.444c0-41.213 32.145-73.367 73.32-73.367h621.185V679.04l318.613 281.404-318.613 281.404v-208.037H743.54c-41.176 0-73.32-32.154-73.32-73.367zm537.838-628.799V730.41H743.54c-127.711 0-229.987 102.307-229.987 230.034 0 127.727 102.276 230.034 229.987 230.034h464.517v398.764L1920 960.444l-711.942-628.799z"/>
        <path d="M156.667 960.444c0-307.63 251.943-557.779 561.024-557.779h237.037v96.744H719.414c-256.538 0-466.084 207.04-466.084 461.035 0 254.212 208.043 461.035 464.36 461.035h235.315v96.744H717.69c-309.08 0-561.024-250.151-561.024-557.779zm561.024 304.368c-170 0-307.694-136.888-307.694-304.368 0-167.045 138.985-304.368 309.417-304.368h391.98V245.998H717.692C322.335 245.998 0 566.038 0 960.444c0 394.404 322.336 714.446 717.69 714.446h391.98v-410.078H717.69z"/>
    </g>
</svg>
