<svg viewBox="0 0 2000 2000" version="1.1" xmlns="http://www.w3.org/2000/svg" height="50pt" width="50pt">
    <path d="M1552.621 367.503c61.115 61.195 61.115 167.907 0 229.102l-57.515 57.595-229.262-229.181 57.675-57.516c61.196-61.115 167.907-61.195 229.102 0zM350.078 1569.966l47.596-189.905 142.309 142.469-189.905 47.436zM1152.813 538.21l229.022 229.022-685.385 685.385-229.021-229.022 685.384-685.385zm512.759-283.897C1604.777 193.437 1523.903 160 1437.83 160c-85.913 0-166.866 33.437-227.661 94.312L297.522 1166.88s-.08.24-.16.32c-6.48 6.56-17.598 23.838-20.878 36.877l-114.07 456.363c-6.88 27.198 1.2 56.075 21.038 75.914l.08.08.16.08c19.838 19.838 48.636 27.917 75.913 21.118l456.284-114.15c13.038-3.28 30.397-14.4 36.877-20.88.08-.08.32-.16.32-.16l912.646-912.645c60.795-60.796 94.312-141.669 94.232-227.662 0-86.073-33.437-166.867-94.232-227.742l-.16-.08z" stroke="none" stroke-width="1" fill-rule="evenodd"/>
</svg>
