<svg viewBox="0 0 2080 2080" version="1.1" xmlns="http://www.w3.org/2000/svg" height="26pt" width="26pt">
    <g stroke="none" stroke-width="1" fill-rule="evenodd" transform="translate(80 80)">
        <path d="M960 1322.143c-301.773 0-546.96-259.005-632.6-362.215 85.423-103.284 329.74-362.07 632.6-362.07 301.773 0 546.96 259.004 632.6 362.214-85.423 103.284-329.74 362.07-632.6 362.07m783.74-403.86C1730.41 899.304 1410.813 453 960 453S189.59 899.305 176.26 918.281a72.262 72.262 0 0 0 0 83.438C189.59 1020.695 509.187 1467 960 1467s770.41-446.305 783.74-465.281a72.262 72.262 0 0 0 0-83.438"/>
        <path d="M960 1104.857c-79.917 0-144.91-64.968-144.91-144.857 0-79.816 64.993-144.857 144.91-144.857s144.91 65.04 144.91 144.857c0 79.889-64.993 144.857-144.91 144.857m0-434.571c-159.835 0-289.818 129.937-289.818 289.714S800.165 1249.714 960 1249.714c159.835 0 289.818-129.937 289.818-289.714S1119.835 670.286 960 670.286"/>
    </g>
</svg>
