<svg viewBox="0 0 2000 2000" version="1.1" xmlns="http://www.w3.org/2000/svg" height="50pt" width="50pt">
    <path d="M1540 305.321c49.199 19.515 84 67.543 84 123.679v1062c0 73.44-59.56 133-133 133h-235V960h247l38-218h-285V624c.046-61.529 7.751-94.532 71-94h213V305.321zM970 1624H429c-73.44 0-133-59.56-133-133V429c0-73.44 59.56-133 133-133h800.555C1041.091 311.98 970.395 422.928 970 600v142H833v218h137v664zm521-1461H429c-146.45 0-266 119.55-266 266v1062c0 146.516 119.55 266 266 266h1062c146.45 0 266-119.484 266-266V429c0-146.45-119.55-266-266-266z" stroke="none" stroke-width="1" fill-rule="evenodd"/>
</svg>
