<svg viewBox="0 0 2000 2000" version="1.1" xmlns="http://www.w3.org/2000/svg" height="50pt" width="50pt">
    <path d="M1040.08 160c20.8 0 41.2 8.16 56.48 23.44l720 720c31.28 31.28 31.28 81.84 0 113.12l-720 720A80.027 80.027 0 0 1 1040 1760c-10.32 0-20.72-2-30.64-6.08-29.84-12.4-49.36-41.6-49.36-73.92v-240H159.28c-43.2 0-79.28-35.84-79.28-80.16v-799.6c0-43.76 35.44-80.24 79.28-80.24H960V240c0-32.32 19.52-61.52 49.36-73.92 10-4.08 20.4-6.08 30.72-6.08M1120 433.2V640H240v640h880v206.88L1646.8 960 1120 433.2" stroke="none" stroke-width="1" fill-rule="evenodd"/>
</svg>
