<svg viewBox="0 0 2080 2080" version="1.1" xmlns="http://www.w3.org/2000/svg" height="26pt" width="26pt">
    <path d="M1520 1660c-44.08 0-80-35.92-80-80s35.92-80 80-80 80 35.92 80 80-35.92 80-80 80m-560 0c-44.08 0-80-35.92-80-80s35.92-80 80-80 80 35.92 80 80-35.92 80-80 80m-560 0c-44.08 0-80-35.92-80-80s35.92-80 80-80 80 35.92 80 80-35.92 80-80 80m548.64-960h22.72c69.52 0 133.52 30.32 177.76 80H770.88c44.24-49.68 108.24-80 177.76-80M960 260c44.08 0 80 35.92 80 80s-35.92 80-80 80-80-35.92-80-80 35.92-80 80-80m640 1094.8V1100h-560V940h343.36l-25.92-100.08c-37.36-144.24-150.64-251.68-289.68-286.64C1145.84 513.6 1200 433.44 1200 340c0-132.32-107.68-240-240-240S720 207.68 720 340c0 93.44 54.16 173.6 132.24 213.28-139.04 34.96-252.32 142.4-289.68 286.64L536.64 940H880v160H320v254.8c-92.96 33.12-160 121.04-160 225.2 0 132.32 107.68 240 240 240s240-107.68 240-240c0-104.16-67.04-192.08-160-225.2V1260h400v94.8c-92.96 33.12-160 121.04-160 225.2 0 132.32 107.68 240 240 240s240-107.68 240-240c0-104.16-67.04-192.08-160-225.2V1260h400v94.8c-92.96 33.12-160 121.04-160 225.2 0 132.32 107.68 240 240 240s240-107.68 240-240c0-104.16-67.04-192.08-160-225.2" stroke="none" stroke-width="1" fill-rule="evenodd"/>
</svg>
