<svg viewBox="0 0 2080 2080" version="1.1" xmlns="http://www.w3.org/2000/svg" height="26pt" width="26pt">
    <path d="M960 320c-352.88 0-640 287.12-640 640s287.12 640 640 640 640-287.12 640-640-287.12-640-640-640m0 1440c-441.12 0-800-358.8-800-800 0-441.12 358.88-800 800-800s800 358.88 800 800c0 441.2-358.88 800-800 800m80-560V880c0-44.16-35.84-80-80-80H800v160h80v240H720v160h480v-160h-160zm20-560c0 55.2-44.8 100-100 100s-100-44.8-100-100 44.8-100 100-100 100 44.8 100 100" stroke="none" stroke-width="1" fill-rule="evenodd"/>
</svg>
