<svg viewBox="0 0 2080 2080" version="1.1" xmlns="http://www.w3.org/2000/svg" height="26pt" width="26pt">
    <g stroke="none" stroke-width="1" fill-rule="evenodd" transform="translate(80 80)">
        <path d="M1040.667 880.942c0-44.35-35.803-79.942-80.167-79.942H800.167v160.286h80.166v240.428H720V1362h481v-160.286h-160.333V880.943zM960 740c55.195 0 100-44.8 100-100.004 0-55.197-44.805-99.996-100-99.996s-100 44.8-100 99.996C860 695.201 904.805 740 960 740"/>
        <path d="M960.175 1603.365c-354.283 0-642.544-288.26-642.544-642.544 0-354.276 288.26-642.537 642.544-642.537s642.545 288.261 642.545 642.537c0 354.283-288.261 642.544-642.545 642.544m0-1445.719c-442.874 0-803.174 360.308-803.174 803.175 0 442.954 360.3 803.182 803.174 803.182 442.875 0 803.175-360.228 803.175-803.182 0-442.867-360.3-803.175-803.175-803.175"/>
    </g>
</svg>
