<svg viewBox="0 0 2000 2000" version="1.1" xmlns="http://www.w3.org/2000/svg" height="50pt" width="50pt">
    <path d="M1792 512h-256V128c0-70.4-57.6-128-128-128h-128c-70.4 0-128 57.6-128 128v384H768V128C768 57.6 710.4 0 640 0H512c-70.4 0-128 57.6-128 128v384H128C57.6 512 0 569.6 0 640v256c0 70.4 57.6 128 128 128h64v441.6c0 76.8 83.2 134.4 192 134.4h320v128c0 108.8 83.2 192 192 192h128c108.8 0 192-83.2 192-192v-128h320c108.8 0 192-57.6 192-134.4V1024h64c70.4 0 128-57.6 128-128V640c0-70.4-57.6-128-128-128zm-512 0V128h128v384h-128zm-768 0V128h128v384H512zm512 1280H896c-38.4 0-64-25.6-64-64v-128h256v128c0 38.4-25.6 64-64 64zm576-364.8c0 25.6-25.6 44.8-64 44.8H384c-32 0-64-19.2-64-44.8V1024h1280v403.2zm64-531.2H128V640h1664v256h-128z" stroke="none" stroke-width="1" fill-rule="evenodd"/>
</svg>
