<svg viewBox="0 0 2000 2000" version="1.1" xmlns="http://www.w3.org/2000/svg" height="50pt" width="50pt">
    <path d="M1533.278 1520h-557.92L640 1385.84V960h80c32 0 60.96-19.04 73.52-48.48l219.2-511.52h107.28v320c0 44.16 35.76 80 80 80h464.158l-130.88 720zM320 1520h160V880H320v640zm1501.437-851.28c-15.2-18.16-37.68-28.72-61.44-28.72h-479.999V320c0-44.16-35.76-80-80-80h-240c-32 0-60.96 19.04-73.52 48.4L667.28 800H640c0-44.16-35.76-80-80-80H240C195.76 720 160 755.84 160 800v800c0 44.16 35.76 80 80 80h320c44.24 0 80-35.84 80-80v-41.76l290.319 116.08c9.36 3.76 19.52 5.68 29.68 5.68h639.999c38.64 0 71.76-27.68 78.72-65.68l160-880c4.24-23.36-2.16-47.36-17.28-65.6z" stroke="none" stroke-width="1" fill-rule="evenodd"/>
</svg>
