<svg viewBox="0 0 2080 2080" version="1.1" xmlns="http://www.w3.org/2000/svg" height="26pt" width="26pt">
    <path d="M1263.959 160c-91.22 0-175.477 57.68-182.599 152.08-15.603 208.88-193.24 307.52-261.095 359.76-67.935 52.24-322.148 121.84-322.148 301.68v562.8C510.119 1701.2 910.364 1760 1204.186 1760c88.819 0 167.876-5.36 223.567-14.8 240.291-40.64 400.325-713.68 395.124-812.32-5.281-98.56-201.883-197.2-368.958-197.2 0 0 46.97-52.24 46.97-284.32-5.681-206.64-126.427-291.36-236.93-291.36m.08 160c45.37 0 74.095 49.92 76.816 133.68-.16 128.48-16.564 182.24-21.045 194.56-29.366 45.04-34.407 102.4-12.082 152.48 25.685 57.76 82.977 94.96 146.19 94.96 85.779 0 172.837 38.16 206.605 65.44-8.322 58-37.848 194.4-90.9 338-79.136 214-151.472 281.92-168.515 288.32-47.13 8-118.905 12.56-196.922 12.56-279.82 0-489.544-52.56-546.036-93.36V973.52c0-37.44 110.664-92.72 157.874-116.32 39.208-19.6 73.135-36.48 101.781-58.56 7.042-5.36 15.444-11.28 24.806-18 90.579-64.4 279.019-198.56 296.782-453.68 2.08-2.16 11.043-6.96 24.646-6.96zM178.017 1760H338.05c44.17 0 80.017-35.84 80.017-80V880c0-44.16-35.848-80-80.017-80H178.017C133.847 800 98 835.84 98 880v800c0 44.16 35.848 80 80.017 80z" stroke="none" stroke-width="1" fill-rule="evenodd"/>
</svg>
