<svg viewBox="0 0 2000 2000" version="1.1" xmlns="http://www.w3.org/2000/svg" height="50pt" width="50pt">
    <path d="M1440 1082.52v355.04H1234.12v-331.24c0-83.2-29.76-139.96-104.16-139.96-56.84 0-90.76 38.28-105.6 75.24-5.44 13.2-6.8 31.68-6.8 50.2v345.68h-205.8s2.8-560.96 0-619.08h205.8v87.76c27.4-42.2 76.24-102.28 185.52-102.28 135.4 0 236.92 88.52 236.92 278.64zm-728.52-455.6c0 59.44-44.64 107.04-116.44 107.04h-1.36c-69.04 0-113.68-47.64-113.68-107.04C480 566.2 526 520 596.4 520c70.44 0 113.72 46.2 115.08 106.92zM492.16 818.48h205.8v619.08H492.16V818.48zM1600 1504c0 53-43 96-96 96H416c-53 0-96-43-96-96V416c0-53.04 43-96 96-96h1088c53 0 96 42.96 96 96v1088zm0-1344H320c-88.36 0-160 71.64-160 160v1280c0 88.36 71.64 160 160 160h1280c88.36 0 160-71.64 160-160V320c0-88.36-71.64-160-160-160z" stroke="none" stroke-width="1" fill-rule="evenodd"/>
</svg>
