<svg viewBox="0 0 2160 2160" version="1.1" xmlns="http://www.w3.org/2000/svg" height="18pt" width="18pt">
    <g stroke="none" stroke-width="1" fill-rule="evenodd" transform="translate(120 120)">
        <path d="M1570 1684H351V922h1219v762zM1189 617.143V846H732V617.143c0-128 100.54-228.572 228.5-228.572S1189 489.143 1189 617.143zM1582.508 846H1418V617.143C1418 365.714 1212.35 160 961 160S504 365.714 504 617.143V846H339.492c-31.501 0-58.063 22.541-63.469 52.467-.044.239-.089.477-.13.716a61.017 61.017 0 0 0-.466 3.282 61.95 61.95 0 0 0-.125 1.148 62.381 62.381 0 0 0-.228 3.209 62.853 62.853 0 0 0-.074 2.888v786.294c0 35.344 29.155 63.996 64.502 63.996h1242.996c35.347 0 63.502-28.65 63.502-63.996V909.71c0-35.344-28.151-63.71-63.492-63.71z"/>
        <path d="M961.436 1519c-113.183 0-204.936-91.781-204.936-205s91.753-205 204.936-205c113.182 0 204.936 91.781 204.936 205s-91.754 205-204.936 205m0-486c-75.045 0-145.598 29.232-198.66 82.311C709.72 1168.384 680.5 1238.947 680.5 1314c0 75.052 29.22 145.615 82.276 198.688 53.062 53.079 123.615 82.312 198.66 82.312s145.597-29.233 198.66-82.312c53.056-53.073 82.276-123.636 82.276-198.688 0-75.053-29.22-145.616-82.276-198.689-53.063-53.079-123.615-82.311-198.66-82.311"/>
    </g>
</svg>
