<svg viewBox="0 0 2160 2160" version="1.1" xmlns="http://www.w3.org/2000/svg" height="18pt" width="18pt">
    <path d="M1320 320H680c-66.24 0-120 53.76-120 120 0 66.24 53.76 120 120 120h200v920c0 66.24 53.76 120 120 120 66.24 0 120-53.76 120-120V560h200c66.24 0 120-53.76 120-120 0-66.24-53.76-120-120-120M600 1360H320V440c0-66.24-53.76-120-120-120-66.24 0-120 53.76-120 120v1040c0 66.24 53.76 120 120 120h400c66.24 0 120-53.76 120-120 0-66.24-53.76-120-120-120m1240-920v1040c0 66.24-53.76 120-120 120-66.24 0-120-53.76-120-120V440c0-66.24 53.76-120 120-120 66.24 0 120 53.76 120 120" stroke="none" stroke-width="1" fill-rule="evenodd"/>
</svg>
