<svg viewBox="0 0 2160 2160" version="1.1" xmlns="http://www.w3.org/2000/svg" height="18pt" width="18pt">
    <path d="M754.057 574.686c7.6-12.343 15.886-23.829 24.743-34.115h245.371c8.972 10.343 17.143 21.772 24.743 34.115H754.057zM901.486 407.77c-112.8.058-209.429 94.629-248.743 228h497.6c-39.429-133.371-136.057-227.942-248.857-228zm670.057 149.6c.171-.171.171-.457.343-.685-.057.228-.057.343-.172.514l-.114.114-.057.057zm38.057 942.458c0 .342-.229.685-.4 1.085v.115c0 .114-.114 0-.114.114a8.429 8.429 0 0 1-1.657 1.828l-.343.286-116.743 91.543-.972.629-1.542.914-.343.171-.4.172c-.172 0-.686.4-1.143.571-.514.343-1.314.572-2.057.914l-.457.172c-.172 0-.229.114-.4.171l-1.543.572c-.915.4-1.829.743-2.8 1.143h-.172l-.571.171-2.572.743c-.742.228-1.485.457-2.228.571l-.972.343-.571.172c-1.486.4-2.971.8-4.514 1.142-.229 0-.515.115-.686.172l-1.943.4-3.086.686-1.657.342-2.8.572-2.228.4-2.343.343-3.257.514c-.572 0-1.029.171-1.543.286-1.372.285-2.8.571-4.229.685l-2 .343c-.228 0-.457 0-.685.115l-6.686.914h-.8l-2.8.343-4.572.571h-.914c-4.628.572-9.428 1.029-14.343 1.429-.4 0-.743 0-1.085.114l-6.458.514h-.342c-1.429 0-2.8.172-4.286.229l-4.286.228c-.457 0-.971 0-1.486.115h-.8l-1.371.171-3.771.172c-1.315 0-2.515.114-3.829.171h-3.829c-1.314.114-2.685.114-4.057.171-1.371 0-2.8 0-4.285.115h-4.515l-4.857.114H429.83c-.4 0-.743 0-1.143-.114h-3.315l-3.942-.172h-1.315l-5.143-.228c-.514 0-1.085 0-1.828-.115-.743-.114-1.257 0-1.886-.114-.571 0-1.028 0-1.486-.114l-5.257-.343h-.114c-.4 0-.743 0-1.086-.114-1.428-.115-2.8-.172-4.114-.343l-1.314-.057c-.857 0-1.715-.172-2.457-.229-.743 0-1.429-.114-2.058-.171l-2-.286-2.8-.343-1.428-.228c-.572 0-1.143-.172-1.714-.229l-4.058-.571-1.714-.229c-.514 0-.686-.171-1.086-.229l-2.971-.514-2.629-.457a35.49 35.49 0 0 1-2.628-.571c-.743-.172-1.486-.343-2.229-.572l-2.4-.743-1.885-.514-1.943-.686c-.515-.171-1.086-.343-1.6-.571l-1.657-.8-1.143-.514-1.257-.915-.915-.571c-.285-.343-.571-.686-.8-1.086a1.796 1.796 0 0 1-.571-.571 2.874 2.874 0 0 1-.457-1.543c-6.172-157.257-12.457-314.514-18.686-471.829l-18.571-471.771c0 .343.171.571.228.857-.571-1.657.172-3.371 2.514-5.143l116.8-91.486c10.915-8.571 52.058-15.885 99.029-18.228a587.813 587.813 0 0 0-11.943 35.028c-34.628 2.515-59.771 7.658-67.2 10.972L393.83 635.6c2.457.114 5.028.114 7.542.114h176.343c42.115-186.971 171.257-323.543 323.772-323.543 152.514 0 281.657 136.572 323.828 323.543h96.457c56.4 0 100.743-7.943 110.972-12.685l61.771-48.4H1279.6c-3.543-11.658-7.543-22.972-11.714-34.115h219.143c50.914 0 85.485 6.286 85.085 14.8l.115-.228 37.485 943.828c0 .343-.114.572-.171.972l.057-.057zM1664.457 160H255.543C202.8 160 160 202.743 160 255.543v1408.914c0 52.8 42.743 95.543 95.543 95.543h1408.914c52.8 0 95.543-42.743 95.543-95.543V255.543c0-52.743-42.743-95.543-95.543-95.543zM901.543 407.771h-.114.114zm92.286 877.315h-.058c-5.142 8.971-11.771 16.571-19.6 22.743-7.828 6.171-17.028 10.971-27.028 14.342-10.057 3.372-19.6 5.6-28.857 6.515v-147.943c30.343 8.286 51.771 17.314 64.343 27.428 12.571 10.058 18.857 24.972 18.857 45.029 0 12.343-2.572 22.971-7.657 31.886zm-120.972-226.8c-24.628-5.6-42.343-13.086-53.143-22.286-10.8-9.257-16.114-22.4-16.114-39.314 0-10.8 1.886-20.115 5.771-28.115 3.829-7.942 9.086-14.628 15.772-20 6.686-5.371 14.114-9.371 22.4-11.942 8.286-2.572 16.628-3.886 25.314-3.886v125.543zm218.057 106.457l-.171-.114c-9.714-16.458-24.857-32.286-45.429-47.372-20.514-15.086-49.828-27.886-87.771-38.057-7.257-2.114-14-3.943-20.343-5.429l-18.857-4.628V932.857c17.486 0 32.457 7.257 44.743 21.543 12.343 14.229 18.685 31.886 19.2 52.343h109.371c-1.543-26.686-7.257-49.772-16.971-69.257-9.657-19.486-22.343-35.829-37.715-48.915-15.371-13.028-33.257-23.314-53.485-30.8-20.286-7.485-42-12.285-65.029-14.914v-59.371h-45.486v59.371c-23.085 1.486-45.428 6-66.971 13.429-21.543 7.371-40.571 18-56.971 31.6-16.458 13.6-29.658 30.457-39.772 50.4-10.057 19.885-14.914 43.2-14.914 69.371 0 25.657 4.343 47.029 13.086 64.286 8.742 17.2 20.457 31.543 35.028 43.086 14.686 11.542 31.2 20.8 49.657 27.771 18.457 6.914 37.2 12.971 56.229 18.057 8.4 1.657 16.628 4 24.628 6.914v160.858c-23.485-4.572-43.314-15.372-59.2-32.343-15.885-16.972-23.6-40-23.085-69.257H682.057c5.086 60.571 23.886 106.571 56.172 137.828 32.285 31.314 77.2 49.086 134.742 53.2v65.486h45.543v-65.486c38.515-2.571 70.057-10.343 94.686-23.143 24.629-12.8 44.229-27.428 58.857-43.885 14.572-16.458 24.743-33.258 30.4-50.343 5.657-17.143 8.514-31.543 8.514-42.857 0-12.858-.914-27.429-2.685-43.886-1.772-16.4-7.543-32.857-17.372-49.2z" stroke="none" stroke-width="1" fill-rule="evenodd"/>
</svg>
