<svg viewBox="0 0 2160 2160" version="1.1" xmlns="http://www.w3.org/2000/svg" height="18pt" width="18pt">
    <g stroke="none" stroke-width="1" fill-rule="evenodd" transform="translate(120 120)">
        <path d="M517.222 937.889c0 97.82-79.346 176.889-177.11 176.889-97.855 0-177.112-79.07-177.112-176.89C163 840.159 242.257 761 340.111 761c97.765 0 177.111 79.158 177.111 176.889M1137.111 937.889c0 97.82-79.346 176.889-177.111 176.889-97.854 0-177.111-79.07-177.111-176.89C782.889 840.159 862.146 761 960 761c97.765 0 177.111 79.158 177.111 176.889M1757 937.889c0 97.82-79.346 176.889-177.111 176.889-97.854 0-177.111-79.07-177.111-176.89 0-97.73 79.257-176.888 177.11-176.888C1677.655 761 1757 840.158 1757 937.889"/>
    </g>
</svg>
