<svg viewBox="0 0 2000 2000" version="1.1" xmlns="http://www.w3.org/2000/svg" height="50pt" width="50pt">
    <g stroke="none" stroke-width="1" fill-rule="evenodd" transform="translate(40 40)">
        <path d="M898 894v299.91h181.657v-74.978H970.663V894zM1206.828 968.977h127.16V894h-127.16c-50.064 0-90.828 42.062-90.828 93.722 0 51.659 40.764 93.721 90.828 93.721h36.332c10.027 0 18.165 8.435 18.165 18.744 0 10.31-8.138 18.745-18.165 18.745H1116v74.977h127.16c50.064 0 90.828-42.062 90.828-93.722 0-51.659-40.764-93.721-90.828-93.721h-36.332c-10.027 0-18.165-8.435-18.165-18.744 0-10.31 8.138-18.745 18.165-18.745M687.761 1193.91l44.796-77.078 44.833 77.077h84.761l-87.231-149.954L862.15 894h-84.76l-44.834 77.077L687.761 894H603l87.195 149.955L603 1193.909zM1520 1680H400v-80H240v80c0 88.24 71.76 160 160 160h1120c88.24 0 160-71.76 160-160v-80h-160v80z"/>
        <path d="M400 1600H240V240c0-88.16 71.76-160 160-160h913.12L1680 446.88V1600h-160V560h-320V240H400v1360z"/>
    </g>
</svg>
