<svg viewBox="0 0 2160 2160" version="1.1" xmlns="http://www.w3.org/2000/svg" xmlns:xlink="http://www.w3.org/1999/xlink" height="18pt" width="18pt">
    <defs>
        <path id="a" d="M434.866 580.316V0H0v580.316h434.866z"/>
    </defs>
    <g stroke="none" stroke-width="1" fill-rule="evenodd" transform="translate(120 120)">
        <path d="M452.433 308.286h724.5V598.03h289.634v72.228h144.402V495.27L1279.201 163H452.51c-79.888 0-144.478 65.057-144.478 144.909v362.348h144.402v-361.97zM1466.567 1611.714H452.433v-72.229H308.031v72.606c0 79.881 64.59 144.909 144.478 144.909H1466.49c79.888 0 144.478-65.028 144.478-144.909v-72.606h-144.402v72.229z"/>
        <g transform="translate(1249.134 814.714)">
            <mask id="b">
                <use xlink:href="#a"/>
            </mask>
            <path d="M217.358 145.286h217.508V0H217.358C97.54 0 0 97.88 0 217.741V362.65C0 482.51 97.541 580.316 217.358 580.316h217.508V435.029H217.358c-39.93 0-72.126-32.37-72.126-72.38V217.742c0-39.98 32.196-72.455 72.126-72.455" mask="url(#b)"/>
        </g>
        <path d="M380.232 960c79.67 0 144.855 65.057 144.855 144.909 0 79.882-65.185 144.91-144.855 144.91V960zm289.558 144.871c0-159.806-129.963-290.157-289.71-290.157H235v580.315h145.08c159.747 0 289.71-130.352 289.71-290.158zM1031.701 1032.455v144.908c0 40.01-32.271 72.455-72.201 72.455-39.93 0-72.201-32.445-72.201-72.455v-144.908c0-39.98 32.271-72.455 72.201-72.455 39.93 0 72.201 32.474 72.201 72.455m-289.634 0v144.908c0 119.862 97.617 217.365 217.433 217.365 119.816 0 217.433-97.503 217.433-217.365v-144.908c0-119.862-97.617-217.364-217.433-217.364-119.816 0-217.433 97.502-217.433 217.364"/>
    </g>
</svg>
