<svg viewBox="0 0 2160 2160" version="1.1" xmlns="http://www.w3.org/2000/svg" height="18pt" width="18pt">
    <g stroke="none" stroke-width="1" fill-rule="evenodd" transform="translate(120 120)">
        <path d="M1088.099 1503.269l-227.439-325.26L1088.1 950.57v552.699zM1732.41 306.175l-118.627-118.627-1426.21 1426.21L306.2 1732.385l433.904-433.82 219.804 314.186c34.984 41.612 80.455 60.32 128.107 60.32 22.064 0 43.625-4.194 64.096-12.667 63.005-26.008 103.693-86.915 103.693-155.122V782.865l476.606-476.69zM500.71 1063.392V750.297h295.393l291.87-417.209v143.04l164.853-164.852c-7.047-59.901-43.96-112.168-100.757-135.49-61.999-25.672-135.49-10.99-182.723 36.41L708.685 582.507H500.71c-92.536 0-167.79 75.254-167.79 167.79v335.579c0 40.52 15.018 77.183 39.011 106.294l128.779-128.778z"/>
    </g>
</svg>
