<svg viewBox="0 0 2000 2000" version="1.1" xmlns="http://www.w3.org/2000/svg" height="50pt" width="50pt">
    <g stroke="none" stroke-width="1" fill-rule="evenodd" transform="translate(40 40)">
        <path d="M893.028 1352.698L570.721 1030.47l140.91-140.91 155.973 155.973 330.117-462.18 162.11 115.724z"/>
        <path d="M960 322.4c-351.557 0-637.6 286.043-637.6 637.6s286.043 637.6 637.6 637.6 637.6-286.043 637.6-637.6S1311.557 322.4 960 322.4m0 1434.6c-439.466 0-797-357.534-797-797s357.534-797 797-797 797 357.534 797 797-357.534 797-797 797"/>
        <path d="M1381.844 1414.856l56.356 56.357 112.713-112.713-56.357-56.356-916.55-916.55-56.356-56.357L408.937 441.95l56.357 56.356z"/>
    </g>
</svg>
