<svg viewBox="0 0 2000 2000" version="1.1" xmlns="http://www.w3.org/2000/svg" height="50pt" width="50pt">
    <path d="M1360.324 649.666L1063.69 353.113l113.149-113.117 183.486 183.436L1703.851 80 1817 193.117l-456.676 456.55zm-320.08 929.338c0-88.318 71.777-159.996 160.04-159.996 88.262 0 160.04 71.678 160.04 159.996h-320.08zm160.04-559.987c44.09 0 80.02 35.92 80.02 79.998 0 44.08-35.93 79.998-80.02 79.998-44.091 0-80.02-35.919-80.02-79.998 0-44.079 35.929-79.998 80.02-79.998zm140.355 273.834c60.096-43.68 99.706-113.997 99.706-193.836 0-132.316-107.708-239.994-240.061-239.994-132.354 0-240.061 107.678-240.061 239.994 0 79.839 39.61 150.157 99.705 193.836-106.027 52.158-179.725 160.316-179.725 286.153v79.998c0 44.159 35.849 79.998 80.02 79.998h480.122c44.17 0 80.02-35.84 80.02-79.998v-79.998c0-125.837-73.699-233.995-179.726-286.153zm-620.477-33.84h-80.02c-44.171 0-80.02 35.84-80.02 79.999v239.994h-160.04V1339.01c0-44.16-35.85-79.998-80.021-79.998h-80.02v-79.998c0-132.317 107.707-239.995 240.06-239.995 132.354 0 240.061 107.678 240.061 239.995v79.998zM480.102 499.03c44.09 0 80.02 35.919 80.02 79.998 0 44.079-35.93 79.998-80.02 79.998-44.092 0-80.02-35.92-80.02-79.998 0-44.079 35.928-79.998 80.02-79.998zm400.1 679.984c0-184.396-126.191-338.472-296.234-384.631 80.26-38.8 136.194-120.317 136.194-215.355 0-132.317-107.707-239.994-240.06-239.994-132.354 0-240.061 107.677-240.061 239.994 0 95.038 55.934 176.556 136.194 215.355C206.192 840.542 80 994.618 80 1179.013v159.997c0 44.159 35.85 79.998 80.02 79.998h80.02v239.994c0 44.159 35.85 79.998 80.02 79.998h320.082c44.171 0 80.02-35.84 80.02-79.998v-239.994h80.02c44.172 0 80.02-35.84 80.02-79.998v-159.996z" stroke="none" stroke-width="1" fill-rule="evenodd"/>
</svg>
