<svg viewBox="0 0 2160 2160" version="1.1" xmlns="http://www.w3.org/2000/svg" height="18pt" width="18pt">
    <path d="M1093.333 560H960c0-220.533 179.467-400 400-400 107.933 0 208.067 42.4 282.667 117.4L1760 160v333.333h-333.333L1547.4 372.6c-49.733-49.867-115.533-79.267-187.4-79.267-147 0-266.667 119.667-266.667 266.667zM1760 560c0 220.6-179.4 400-400 400-107.867 0-207.933-42.4-282.6-117.4L960 960V626.667h333.333L1172.667 747.4C1222.4 797.333 1288.2 826.667 1360 826.667c147.067 0 266.667-119.6 266.667-266.667H1760zM960 1626.667c0-73.6 59.8-133.334 133.333-133.334 73.534 0 133.334 59.734 133.334 133.334H960zM1093.333 1160c36.734 0 66.667 29.933 66.667 66.667 0 36.733-29.933 66.666-66.667 66.666-36.733 0-66.666-29.933-66.666-66.666 0-36.734 29.933-66.667 66.666-66.667zm116.934 228.2c50.066-36.4 83.066-95 83.066-161.533 0-110.267-89.733-200-200-200-110.266 0-200 89.733-200 200 0 66.533 33 125.133 83.067 161.533-88.333 43.467-149.733 133.6-149.733 238.467v66.666c0 36.8 29.866 66.667 66.666 66.667h400c36.8 0 66.667-29.867 66.667-66.667v-66.666c0-104.867-61.4-195-149.733-238.467zM693.333 1360h-66.666c-36.8 0-66.667 29.867-66.667 66.667v200H426.667v-200c0-36.8-29.867-66.667-66.667-66.667h-66.667v-66.667c0-110.266 89.734-200 200-200 110.267 0 200 89.734 200 200V1360zm-200-633.333c36.734 0 66.667 29.933 66.667 66.666C560 830.067 530.067 860 493.333 860c-36.733 0-66.666-29.933-66.666-66.667 0-36.733 29.933-66.666 66.666-66.666zm333.334 566.666c0-153.666-105.134-282.066-246.8-320.533 66.866-32.333 113.466-100.267 113.466-179.467 0-110.266-89.733-200-200-200-110.266 0-200 89.734-200 200 0 79.2 46.6 147.134 113.467 179.467-141.667 38.467-246.8 166.867-246.8 320.533v133.334c0 36.8 29.867 66.666 66.667 66.666h66.666v200c0 36.8 29.867 66.667 66.667 66.667h266.667c36.8 0 66.666-29.867 66.666-66.667v-200H760c36.8 0 66.667-29.866 66.667-66.666v-133.334z" stroke="none" stroke-width="1" fill-rule="evenodd"/>
</svg>
