<svg viewBox="0 0 2000 2000" version="1.1" xmlns="http://www.w3.org/2000/svg" height="50pt" width="50pt">
    <path d="M1086.95 1149.79l-35.355-35.355-35.356 35.355-420.417 420.418c-32.79-63.098-22.823-143.235 29.91-195.968l153.74-153.739 35.355-35.356-35.355-35.355-307.479-307.479-35.355-35.355-35.356 35.355-76.869 76.87-5.142 6.03c-19.465 26.881-57.036 32.892-83.917 13.427-26.077-18.884-32.51-54.806-15.1-81.478l.127-.131a58.555 58.555 0 0 1 4.982-4.982l5.223-5.383a58.621 58.621 0 0 1 7.473-7.473l618.282-617.995c22.928-22.928 60.101-22.928 83.03 0 22.927 22.927 22.927 60.101 0 83.028l-76.87 76.87-35.356 35.355 35.355 35.356 307.478 307.478 35.356 35.355 35.355-35.355 153.74-153.739c52.733-52.734 132.87-62.701 195.967-29.911l-420.418 420.418-35.355 35.355 35.355 35.355 451.993 451.993 36.88 130.754-118.117-45.935-453.784-453.783zm695.37 569.094l-67.646-239.833-3.542-12.557-9.225-9.226-425.863-425.862 425.863-425.862 35.355-35.355-35.355-35.356c-104.083-104.083-274.106-104.083-378.189 0l-118.384 118.384-236.768-236.768 41.514-41.514c61.981-61.98 61.981-162.47 0-224.45-61.98-61.98-162.469-61.98-224.45 0L172.037 764.078a158.839 158.839 0 0 0-15.86 15.743 159.194 159.194 0 0 0-9.274 9.391l-3.638 3.639c-54.189 74.832-38.174 174.924 33.44 226.781 70.432 51.003 168.412 36.349 220.958-32.279l38.71-38.711 235.71 235.18 1.323 1.323-118.384 118.384c-104.083 104.083-104.083 274.107 0 378.189l35.355 35.356 35.355-35.356 425.863-425.862 425.862 425.862 7.434 7.435 9.8 3.81 221.383 86.094 93.47 36.349-27.225-96.522z" stroke="none" stroke-width="1" fill-rule="evenodd"/>
</svg>
