<svg viewBox="0 0 2080 2080" version="1.1" xmlns="http://www.w3.org/2000/svg" height="26pt" width="26pt">
    <path d="M962 1760c441.828 0 800-358.172 800-800s-358.172-800-800-800-800 358.172-800 800 358.172 800 800 800zm0-145.455c361.495 0 654.545-293.05 654.545-654.545 0-361.495-293.05-654.545-654.545-654.545-361.495 0-654.545 293.05-654.545 654.545 0 361.495 293.05 654.545 654.545 654.545zm-164.923-988.8v145.432h235.84L591.372 1212.72l102.852 102.852 441.543-441.543v235.84h145.433V625.744H797.077z" stroke="none" stroke-width="1" fill-rule="evenodd"/>
</svg>
