<svg viewBox="0 0 2080 2080" version="1.1" xmlns="http://www.w3.org/2000/svg" xmlns:xlink="http://www.w3.org/1999/xlink" height="26pt" width="26pt">
    <defs>
        <path d="M1216.102 198.868L513.671 901.299c-30.517 30.517-30.517 79.843 0 110.36l702.431 702.43a78.075 78.075 0 0 0 55.18 22.869c10.068 0 20.215-1.951 29.893-5.932 29.111-12.097 48.155-40.585 48.155-72.116v-234.144h390.937c42.146 0 77.346-34.965 77.346-78.204V566.474c0-42.693-34.575-78.282-77.346-78.282H1349.33V254.048c0-31.531-19.044-60.02-48.155-72.116-9.756-3.98-19.903-5.932-29.971-5.932-20.292 0-40.194 7.961-55.102 22.868zm-22.868 289.324v156.095h468.283v624.383h-468.283v201.832L679.29 956.48l513.945-513.946v45.659zM124.86 890.679c-30.48 30.48-30.48 79.898 0 110.378l719.957 719.957c30.48 30.48 79.898 30.48 110.378 0 30.48-30.48 30.48-79.898 0-110.378l-649.358-647.25 614.322-647.25c30.48-30.48 30.48-79.898 0-110.378-30.48-30.48-79.898-30.48-110.378 0L124.86 890.679z" id="a"/>
    </defs>
    <use xlink:href="#a" stroke="none" stroke-width="1" fill-rule="evenodd"/>
</svg>
