<svg viewBox="0 0 2160 2160" version="1.1" xmlns="http://www.w3.org/2000/svg" height="18pt" width="18pt">
    <path d="M1795.266 1567.007l-316.747-316.747c78.807-121.61 121.45-263.143 121.45-411.315C1599.89 419.549 1260.42 80 840.945 80 421.549 80 82 419.469 82 838.945c0 419.315 339.469 758.944 758.945 758.944 148.252 0 289.784-42.643 411.235-121.37l316.667 316.667c62.725 62.885 163.934 62.725 226.339.08 62.405-62.405 62.405-163.934.08-226.26zM242.014 838.945c0-330.989 267.862-598.851 598.93-598.851 330.829 0 598.932 267.782 598.932 598.85 0 159.934-62.326 310.347-175.535 423.397-113.13 113.21-263.463 175.455-423.476 175.455-330.749.08-598.851-267.863-598.851-598.851z" stroke="none" stroke-width="1" fill-rule="evenodd"/>
</svg>
