<svg viewBox="0 0 2080 2080" version="1.1" xmlns="http://www.w3.org/2000/svg" height="26pt" width="26pt">
    <path d="M1760 876.976c0-62.938-50.438-113.902-113.924-113.902h-95.184l74.656 60.978c-17.325-85.028-51.262-165.576-99.56-238.441l-63.507 42.095 53.875 53.875 67.717-67.717c44.484-44.484 44.437-117.015.178-161.243l-117.253-117.17c-44.577-44.545-116.317-44.65-161.223.2l-67.804 67.717 53.84 53.91 42.067-63.525c-72.797-48.207-153.353-82.122-238.118-99.315l61.045 74.67v-95.184c0-62.886-51.425-113.924-113.882-113.924H877.077c-62.936 0-113.882 50.446-113.882 113.924v95.184l61.068-74.675c-84.912 17.196-165.602 51.123-238.382 99.32l42.066 63.524 53.875-53.874-67.63-67.631c-44.49-44.489-117.014-44.37-161.228-.125L335.71 452.983c-44.537 44.57-44.713 116.314.181 161.208l67.631 67.631 53.875-53.875-63.432-42.206c-48.179 72.406-82.126 153.11-99.51 238.289l74.652-60.956h-95.184C211.038 763.074 160 814.5 160 876.957v165.845c0 62.936 50.446 113.883 113.924 113.883h95.184l-74.656-60.979c17.348 85.141 51.216 165.69 99.44 238.442l63.506-42.095-53.875-53.875-67.717 67.717c-44.492 44.492-44.42 117.032-.159 161.262l117.336 117.252c44.611 44.58 116.41 44.664 161.277-.318l67.63-67.804-53.943-53.806-42.095 63.506c72.918 48.334 153.492 82.262 238.41 99.459l-61.067-74.675v95.185c0 62.885 51.425 113.923 113.882 113.923h165.846c62.936 0 113.882-50.446 113.882-113.923v-95.185l-60.955 74.652c85.231-17.394 165.94-51.364 238.438-99.65l-42.235-63.412-53.875 53.875 67.717 67.717c44.484 44.483 117.015 44.436 161.243.177l89.874-89.938c59.57-59.611 59.752-155.855-.039-215.57l-40.651-40.6-53.84 53.91 63.524 42.067c48.228-72.83 82.133-153.396 99.32-238.262l-74.675 61.068h95.357c62.9 0 113.992-51.411 113.992-113.901V876.976zm-152.38 0v165.928c0-21.456 16.917-38.48 38.388-38.48h-157.665l-12.367 61.068c-13.228 65.323-39.46 127.654-77.02 184.373l-34.4 51.948 44.085 44.028 40.652 40.6c.116.116.117-.145-.068.04l-89.875 89.938c15.252-15.263 39.232-15.278 54.295-.216l-67.718-67.717-44.147-44.147-51.962 34.609c-56.284 37.487-118.693 63.754-184.438 77.172l-60.956 12.44V1645.956c0-21.02 17.612-38.458 38.499-38.458H877.077c21.444 0 38.499 16.927 38.499 38.458V1488.464l-61.068-12.367c-65.354-13.235-127.672-39.476-184.465-77.121l-51.99-34.462-44.05 44.161-67.63 67.804c14.7-14.737 39.46-14.708 54.322.143l-117.336-117.253c15.244 15.233 15.268 39.205.197 54.276l67.717-67.718 44.048-44.048-34.417-51.922c-37.54-56.632-63.752-118.974-77.14-184.675l-12.425-60.978H273.924c21.019 0 38.457 17.611 38.457 38.498V876.957c0 21.443-16.926 38.498-38.457 38.498H431.32l12.44-60.955c13.41-65.714 39.669-128.137 77.07-184.346L555.4 618.2l-44.127-44.127-67.631-67.631c14.726 14.726 14.666 39.433-.143 54.253l117.253-117.336c-15.218 15.228-39.205 15.268-54.31.162l67.63 67.631L618.1 555.18l51.914-34.378c56.658-37.52 119.108-63.778 184.494-77.02l61.068-12.366V273.924c0 21.019-17.612 38.457-38.499 38.457h165.846c-21.444 0-38.499-16.926-38.499-38.457V431.396l61.045 12.382c65.239 13.232 127.576 39.477 184.276 77.024l51.88 34.356 44.027-43.971 67.803-67.718c-14.661 14.643-39.32 14.607-54.168-.23l117.252 117.17c-15.262-15.252-15.278-39.232-.215-54.295l-67.717 67.717-44.048 44.048 34.417 51.922c37.634 56.776 63.903 119.126 77.26 184.676l12.425 60.978h157.415c-21.027 0-38.457-17.611-38.457-38.48zm-647.722 235.32c-84.161 0-152.38-68.244-152.38-152.382s68.219-152.38 152.38-152.38c84.093 0 152.381 68.288 152.381 152.38 0 84.093-68.288 152.381-152.38 152.381zm0 152.38c168.25 0 304.762-136.511 304.762-304.762 0-168.25-136.511-304.762-304.762-304.762-168.33 0-304.761 136.478-304.761 304.762s136.43 304.762 304.761 304.762z" stroke="none" stroke-width="1" fill-rule="evenodd"/>
</svg>
