<svg viewBox="0 0 2080 2080" version="1.1" xmlns="http://www.w3.org/2000/svg" height="26pt" width="26pt">
    <g stroke="none" stroke-width="1" fill-rule="evenodd" transform="translate(80 80)">
        <path d="M860 160c-110 0-200 90-200 200H460c-110 0-200 90-200 200h1400c0-110-90-200-200-200h-200c0-110-90-200-200-200H860zM460 760v962c0 22 16 38 38 38h926c22 0 38-16 38-38V760h-200v700c0 56-44 100-100 100s-100-44-100-100V760H862v700c0 56-44 100-100 100s-100-44-100-100V760H460z"/>
        <path d="M460 698h1002v182H460z"/>
    </g>
</svg>
