<svg viewBox="0 0 2080 2080" version="1.1" xmlns="http://www.w3.org/2000/svg" height="26pt" width="26pt">
    <path d="M1663.965 1840H256c-97.046 0-176-82.353-176-183.59V263.59C80 162.353 158.954 80 256 80h1407.965C1761.046 80 1840 162.353 1840 263.59v1392.82c0 101.237-78.954 183.59-176.035 183.59zM256 226.667c-19.43 0-35.2 16.573-35.2 36.923v1392.82c0 20.35 15.77 36.923 35.2 36.923h1407.965c19.43 0 35.235-16.573 35.235-36.923V263.59c0-20.35-15.805-36.923-35.235-36.923H256zM1450.646 622.96c-9.962-3.923-37.735 21.927-39.847 20.827 3.485-12.907 27.95-45.43 30.413-59.95 3.415-20.24-12.883-38.757-30.694-47.52-17.811-8.764-38.861-6.674-54.736 5.536-21.507 16.5-47.098 26.914-73.533 30.14-41.958-36.3-95.568-56.686-150.938-56.686h-.035c-127.389 1.393-230.947 107.726-235.382 238.81-157.59-24.2-283.114-177.724-284.451-179.41-11.23-14.044-28.442-21.414-45.83-19.874-17.495 1.577-33.16 11.954-41.889 27.794-44.915 81.4-18.515 172.626 5.914 234.08 0 0-39.319-3.667-42.487 29.883-4.47 47.337 6.724 108.68 84.234 180.877 0 0-23.126 12.43-20.134 34.943 7.779 58.777 56.812 100.247 101.728 131.193-68.042 22.514-137.984 10.414-138.864 10.267-24.359-4.583-48.612 8.8-58.608 32.413-9.997 23.614-3.204 51.297 16.508 66.99 104.228 83.05 228.519 101.42 318.208 101.42 67.479 0 115.35-10.413 120.244-11.513 421.414-104.097 459.852-487.997 462.21-595.283 54.983-54.34 86.17-94.747 92.823-120.157 5.984-22.953 6.477-46.347-14.854-54.78zm-563.834 661.173c-1.232.294-77.651 16.537-169.382 3.594 34.883-15.804 68.957-39.124 98.032-73.114 13.869-16.206 17.459-39.343 9.187-59.29-8.237-19.946-26.822-33.11-47.66-33.77-27.774-.843-53.47-11.11-73.92-28.233 1.689-.697 3.378-1.43 5.033-2.237 20.733-9.973 33.158-32.56 30.905-56.283-2.252-23.687-18.69-43.303-40.902-48.803-34.18-8.544-62.374-30.727-79.904-60.06 2.851-.22 5.702-.55 8.554-.954 20.803-3.153 37.945-18.663 43.824-39.673 5.878-21.01-.528-43.67-16.439-57.97-2.78-2.493-50.547-46.347-55.616-109.12 75.786 68.347 206.448 159.207 359.674 150.223 15.98-.916 30.694-9.24 40.163-22.696 9.504-13.42 12.742-30.544 8.8-46.714-2.71-11.33-4.083-22.916-4.083-34.833-.493-74.8 57.517-136.327 128.797-137.133 34.496 0 67.09 15.766 91.907 40.663 34.707 34.87 40.656 94.747 41.606 109.743 1.091 16.61 21.86 407.77-378.576 506.66z" stroke="none" stroke-width="1" fill-rule="evenodd"/>
</svg>
