<svg viewBox="0 0 2000 2000" version="1.1" xmlns="http://www.w3.org/2000/svg" height="50pt" width="50pt">
    <path d="M1360 880H720V560c0-132.32 107.68-240 240-240s240 107.68 240 240v80h160v-80c0-220.56-179.44-400-400-400S560 339.44 560 560v320c-88.32 0-160 71.68-160 160v560c0 88.24 71.68 160 160 160h800c88.32 0 160-71.76 160-160v-560c0-88.32-71.68-160-160-160zm-800 720v-560h800l.16 560H560zm400-160c66.274 0 120-53.726 120-120s-53.726-120-120-120-120 53.726-120 120 53.726 120 120 120z" stroke="none" stroke-width="1" fill-rule="evenodd"/>
</svg>
