<svg viewBox="0 0 2080 2080" version="1.1" xmlns="http://www.w3.org/2000/svg" height="26pt" width="26pt">
    <path d="M1311.307 1626.667l-864.39-.81c-209.171-30.3-366.92-215.06-366.92-429.696 0-148.287 77.4-285.884 200.984-363.887 4.897-205.295 172.403-370.758 377.634-370.758 18.901 0 37.802 1.505 56.665 4.516C785.833 284.705 962.024 160 1160.79 160c263.731 0 478.337 215.754 478.337 480.95 0 12.004-.574 24.317-1.646 36.938 127.677 100.505 202.515 253.154 202.515 417.305 0 293.063-237.179 531.474-528.689 531.474zm-847.67-154.386h847.67c207.107 0 375.646-169.169 375.646-377.088 0-128.14-64.661-246.439-172.901-316.491l-43.235-27.983 9.297-50.986c4.056-22.193 5.97-40.835 5.97-58.782 0-180.053-145.928-326.565-325.295-326.565-153.885 0-287.875 109.73-318.56 260.912l-18.174 89.506-84.441-33c-26.974-10.576-54.216-15.902-80.999-15.902-123.927 0-224.706 101.238-224.706 225.635 0 5.288.957 10.382 1.645 15.477l8.112 65.768-50.734 23.583c-97.106 45.158-159.892 143.231-159.892 249.796 0 136.632 98.79 254.428 230.598 276.12zm824.477-623.843l-87.12-87.846-202.745 204.562-202.744-204.562-87.12 87.846 202.783 204.561-202.783 204.562 87.12 87.807 202.744-204.523 202.745 204.523 87.12-87.807-202.783-204.562 202.783-204.561z" stroke="none" stroke-width="1" fill-rule="evenodd"/>
</svg>
