<svg viewBox="0 0 2000 2000" version="1.1" xmlns="http://www.w3.org/2000/svg" height="50pt" width="50pt">
    <path d="M1588.8 776c-100 0-200.8 1.6-301.6 2.4-99.2.8-199.2 1.6-298.4 2.4V386.4c199.2-31.2 401.6-60 600-88.8V776zm-720-492v616.8c277.6 0 561.6-5.6 839.2-5.6V160c-277.6 39.2-561.6 79.2-839.2 124zm0 1307.2c277.6 40 561.6 73.6 839.2 119.2v-736H868.8v616.8zm120-496.8h600v476c-137.6-20.8-276-39.2-410.4-57.6-63.2-8.8-126.4-16.8-189.6-25.6v-392.8zM160 906.4c209.6 0 419.2-5.6 635.2-5.6V295.2c-216 23.2-425.6 51.2-635.2 85.6v525.6zm120-423.2c132.8-20.8 263.2-38.4 395.2-53.6v352l-204 2.4c-64 .8-128 1.6-191.2 2.4V483.2zM160 968.8v526.4c209.6 28.8 419.2 56.8 635.2 84.8V968.8c-216 5.6-425.6 0-635.2 0zm515.2 122.4v352c-132.8-17.6-264.8-35.2-395.2-52.8v-300.8c28.8 0 58.4.8 88 .8 100 .8 203.2 1.6 307.2.8z" stroke="none" stroke-width="1" fill-rule="evenodd"/>
</svg>
