<?xml version="1.0" standalone="no"?> 
<!DOCTYPE svg PUBLIC "-//W3C//DTD SVG 1.1//EN" "http://www.w3.org/Graphics/SVG/1.1/DTD/svg11.dtd" >
<svg xmlns="http://www.w3.org/2000/svg">
<defs>
  <font id="InstructureIcons-Solid" horiz-adv-x="1920">
    <font-face font-family="InstructureIcons-Solid"
      units-per-em="1920" ascent="1920"
      descent="0" />
    <missing-glyph horiz-adv-x="0" />
    <glyph glyph-name="add"
      unicode="&#xEA01;"
      horiz-adv-x="1920" d=" M960 320C607.12 320 320 607.1199999999999 320 960S607.12 1600 960 1600S1600 1312.88 1600 960S1312.88 320 960 320M960 1760C518.88 1760 160 1401.12 160 960S518.88 160 960 160S1760 518.8800000000001 1760 960S1401.12 1760 960 1760M1040 1360H880V1040H560V880H880V560H1040V880H1360V1040H1040V1360z" />
    <glyph glyph-name="address-book"
      unicode="&#xEA02;"
      horiz-adv-x="1920" d=" M320 1760H720V1520H320V1760zM800 1760H1200V1520H800V1760zM320 1440C231.68 1440 160 1368.4 160 1280V320C160 231.6800000000001 231.68 160 320 160H1600C1688.32 160 1760 231.6800000000001 1760 320V1280C1760 1368.4 1688.32 1440 1600 1440H320zM960 1200C872 1200 800 1128.32 800 1040S872 880 960 880S1120 951.68 1120 1040S1048 1200 960 1200zM751 800C645 794.6669999999999 560 701.867 560 586.6669999999999V480H1360V586.6669999999999C1360 701.867 1276 794.6669999999999 1169 800C1115 734.933 1041 693.3330000000001 960 693.3330000000001S805 734.933 751 800z" />
    <glyph glyph-name="analytics"
      unicode="&#xEA03;"
      horiz-adv-x="1920" d=" M879.983 1155.1680000000001V1837.968C697.179 1821.488 531.016 1748.4479999999999 397.653 1637.4879999999998L879.983 1155.168zM1039.985 1838V882C1039.985 860.8 1031.5849999999998 840.48 1016.5449999999998 825.44L442.2949999999999 251.2800000000002C587.657 145.2000000000001 766.3 82 959.984 82C1445.993 82 1840 476 1840 962C1840 1421.04 1488.474 1797.52 1039.9850000000001 1838zM249.763 1479.12C143.601 1333.92 80 1155.76 80 962C80 747.8399999999999 156.641 551.6800000000001 283.844 399.04L806.894 922L249.764 1479.12z" />
    <glyph glyph-name="android"
      unicode="&#xEA04;"
      horiz-adv-x="1920" d=" M1528.78 1134.2240000000002H392.185C347.371 1134.2240000000002 311 1097.853 311 1053.038V484.741H473.37V971.853H554.556V484.741C554.556 439.846 590.926 403.5560000000001 635.741 403.5560000000001H716.927V160H879.297V403.5560000000001H1041.667V160H1204.038V403.5560000000001H1285.224C1330.038 403.5560000000001 1366.4089999999999 439.846 1366.4089999999999 484.741V971.853H1447.5939999999998V484.741H1609.964V1053.038C1609.964 1097.934 1573.675 1134.2240000000002 1528.78 1134.2240000000002zM554.637 1296.675C554.637 1251.78 591.0079999999999 1215.49 635.8219999999999 1215.49H1285.3049999999998C1330.119 1215.49 1366.4899999999998 1251.78 1366.4899999999998 1296.675C1366.4899999999998 1379.241 1341.4039999999998 1455.961 1298.8629999999998 1520.097L1423.888 1645.123L1309.092 1760L1184.067 1634.975C1119.849 1677.435 1043.129 1702.521 960.482 1702.521C877.836 1702.521 801.197 1677.353 736.979 1634.893L611.954 1759.92L497.158 1645.123L622.183 1520.097C579.723 1455.961 554.637 1379.241 554.637 1296.675z" />
    <glyph glyph-name="announcement"
      unicode="&#xEA05;"
      horiz-adv-x="1920" d=" M1648.996 1760H1557.391L682.386 1396.3980000000001C670.145 1391.518 650.4639999999999 1389.038 635.7429999999999 1389.038H271.004C226.842 1389.038 191 1353.1979999999999 191 1309.038V980.155C191 935.915 226.842 900.155 271.004 900.155H414.612L667.665 231.9110000000001C694.706 170.471 775.75 143.4310000000001 837.194 170.471C898.637 197.511 925.678 278.551 898.637 339.991L714.387 777.2739999999999C721.747 811.674 746.309 831.3539999999998 783.111 831.3539999999998V838.7139999999997L1557.391 531.5929999999998H1648.996C1693.1580000000001 531.5929999999998 1729 567.4329999999998 1729 611.5929999999998V1680C1729 1724.16 1693.158 1760 1648.996 1760" />
    <glyph glyph-name="apple"
      unicode="&#xEA06;"
      horiz-adv-x="1920" d=" M1476.17 904.836C1473.807 1127.7 1671.527 1234.622 1680.353 1239.976C1569.239 1391.2649999999999 1396.1840000000002 1412.019 1334.5590000000002 1414.366C1187.2740000000001 1428.226 1047.159 1333.6970000000001 972.4530000000002 1333.6970000000001C897.9030000000002 1333.6970000000001 782.5330000000002 1412.312 660.3870000000002 1410.259C499.8620000000002 1408.059 351.8670000000002 1323.43 269.2020000000002 1189.594C102.3720000000002 920.2360000000002 226.4900000000002 521.2950000000001 389.0630000000002 302.8310000000002C468.4980000000002 195.9090000000001 563.2210000000001 75.787 687.5740000000002 80.114C807.3570000000002 84.587 852.5910000000001 152.202 997.4340000000002 152.202C1142.2760000000003 152.202 1182.9390000000003 80.114 1309.6570000000002 82.3140000000001C1438.5020000000002 84.5140000000001 1520.1440000000002 191.289 1599.027 298.5040000000002C1690.2830000000001 422.5140000000001 1727.7930000000001 542.6360000000002 1730 548.796C1727.163 550.0420000000001 1478.693 638.557 1476.17 904.836zM1238.0240000000001 1558.908C1304.0620000000001 1633.416 1348.586 1736.818 1336.45 1840C1241.333 1836.407 1126.121 1781.039 1057.877 1706.677C996.646 1640.75 943.059 1535.441 957.48 1434.386C1063.6299999999999 1426.686 1171.9859999999999 1484.5459999999998 1238.024 1558.908z" />
    <glyph glyph-name="arrow-down"
      unicode="&#xEA07;"
      horiz-adv-x="1920" d=" M847.496 428.7159999999999C909.646 337.4079999999999 1010.409 337.4029999999998 1072.563 428.7159999999999L1730.0570000000002 1394.672C1792.207 1485.98 1753.05 1560 1642.59 1560H277.468C167.012 1560 127.848 1485.9850000000001 190.002 1394.672L847.4960000000001 428.7159999999999z" />
    <glyph glyph-name="arrow-left"
      unicode="&#xEA08;"
      horiz-adv-x="1920" d=" M428.663 1072.721C337.2200000000001 1010.458 337.005 909.656 428.663 847.2460000000001L1394.4279999999999 189.656C1485.8709999999999 127.393 1560 166.319 1560 276.9389999999999V1643.029C1560 1753.496 1486.086 1792.721 1394.4279999999999 1730.311L428.663 1072.72z" />
    <glyph glyph-name="arrow-open-down"
      unicode="&#xEA09;"
      horiz-adv-x="1920" d=" M958 863.5699999999999L438.043 1383.598C373.599 1448.051 269.9260000000001 1448.048 205.981 1384.0949999999998C141.591 1319.695 142.259 1216.228 206.478 1152L822.991 535.3999999999999C860.0319999999999 498.3539999999998 910.033 482.6019999999999 958 488.0479999999998C1005.967 482.6019999999999 1055.968 498.3539999999998 1093.009 535.3999999999999L1709.522 1152C1773.742 1216.2279999999998 1774.4089999999999 1319.695 1710.019 1384.0949999999998C1646.074 1448.0479999999998 1542.401 1448.051 1477.9569999999999 1383.598L958 863.569z" />
    <glyph glyph-name="arrow-open-left"
      unicode="&#xEA0A;"
      horiz-adv-x="1920" d=" M863.702 960L1383.914 1479.9569999999999C1448.391 1544.401 1448.388 1648.074 1384.412 1712.019C1319.989 1776.409 1216.486 1775.741 1152.2350000000001 1711.522L535.42 1095.009C498.36 1057.968 482.603 1007.967 488.05 960C482.603 912.033 498.36 862.0319999999999 535.42 824.991L1152.2359999999999 208.4780000000001C1216.4869999999999 144.2580000000001 1319.9899999999998 143.5910000000001 1384.4129999999998 207.981C1448.3889999999997 271.926 1448.3919999999998 375.599 1383.9149999999997 440.0430000000001L863.702 960z" />
    <glyph glyph-name="arrow-open-right"
      unicode="&#xEA0B;"
      horiz-adv-x="1920" d=" M1055.631 960L535.42 1479.9569999999999C470.943 1544.401 470.946 1648.074 534.9219999999999 1712.019C599.3449999999999 1776.409 702.848 1775.741 767.0989999999999 1711.522L1383.915 1095.009C1420.975 1057.968 1436.732 1007.967 1431.2849999999999 960C1436.7319999999997 912.033 1420.975 862.0319999999999 1383.915 824.991L767.0989999999999 208.4780000000001C702.848 144.2580000000001 599.3449999999999 143.5910000000001 534.9219999999999 207.981C470.9459999999999 271.926 470.9429999999999 375.599 535.42 440.0430000000001L1055.63 960z" />
    <glyph glyph-name="arrow-open-up"
      unicode="&#xEA0C;"
      horiz-adv-x="1920" d=" M960 1056.298L440.043 536.086C375.599 471.6089999999999 271.9260000000001 471.6120000000001 207.981 535.588C143.591 600.011 144.259 703.5139999999999 208.478 767.7649999999999L824.991 1384.58C862.0319999999999 1421.64 912.033 1437.397 960 1431.95C1007.967 1437.397 1057.968 1421.64 1095.009 1384.58L1711.522 767.7640000000001C1775.742 703.5130000000001 1776.4089999999999 600.0100000000002 1712.019 535.5870000000002C1648.074 471.6110000000003 1544.401 471.6080000000002 1479.9569999999999 536.0850000000003L960 1056.298z" />
    <glyph glyph-name="arrow-right"
      unicode="&#xEA0D;"
      horiz-adv-x="1920" d=" M1491.337 1072.721C1582.78 1010.458 1582.995 909.656 1491.337 847.2460000000001L525.572 189.656C434.129 127.393 360 166.3199999999999 360 276.9400000000001V1643.029C360 1753.496 433.914 1792.721 525.572 1730.311L1491.337 1072.721z" />
    <glyph glyph-name="arrow-up"
      unicode="&#xEA0E;"
      horiz-adv-x="1920" d=" M847.279 1491.337C909.542 1582.78 1010.344 1582.995 1072.754 1491.337L1730.344 525.5720000000001C1792.607 434.1290000000002 1753.681 360 1643.0610000000001 360H276.971C166.504 360 127.279 433.914 189.689 525.5720000000001L847.279 1491.337z" />
    <glyph glyph-name="assignment"
      unicode="&#xEA0F;"
      horiz-adv-x="1920" d=" M1480 400V1120H1800V400C1800 311.6800000000001 1728.32 240 1640 240S1480 311.6800000000001 1480 400zM1640 1520L1800 1280H1480L1640 1520zM1080 1680H280C191.76 1680 120 1608.24 120 1520V400C120 311.76 191.76 240 280 240H1080C1168.24 240 1240 311.76 1240 400V1520C1240 1608.24 1168.24 1680 1080 1680zM1000 1200H360V1360H1000V1200zM1000 880H360V1040H1000V880zM760 560H360V720H760V560z" />
    <glyph glyph-name="audio"
      unicode="&#xEA10;"
      horiz-adv-x="1920" d=" M960 1800C739.04 1800 560 1620.96 560 1400C560 1179.12 739.04 1000 960 1000S1360 1179.12 1360 1400C1360 1620.96 1180.96 1800 960 1800zM749.2 881.44L789.36 279.6800000000001C795.2 191.8399999999999 872 120 960 120C1048 120 1124.8 191.8399999999999 1130.6399999999999 279.6800000000001L1170.8 881.44C1105.6799999999998 854.96 1034.6399999999999 840 960 840C885.36 840 814.3199999999999 854.96 749.2 881.44zM1040 600C1040 555.8399999999999 1004.16 520 960 520S880 555.8399999999999 880 600S915.84 680 960 680S1040 644.1600000000001 1040 600z" />
    <glyph glyph-name="bookmark"
      unicode="&#xEA11;"
      horiz-adv-x="1920" d=" M1520 1200H1200V1440C1200 1528.24 1271.76 1600 1360 1600S1520 1528.24 1520 1440V1200zM1360 1760H560C383.52 1760 240 1616.48 240 1440V240C240 207.6800000000001 259.52 178.48 289.36 166.0799999999999C319.2800000000001 153.76 353.68 160.6399999999999 376.56 183.4399999999998L720 526.8800000000001L1063.44 183.4400000000001A80.027 80.027 0 0 1 1120 160C1130.32 160 1140.72 162 1150.64 166.0799999999999C1180.48 178.48 1200 207.6799999999998 1200 240V1040H1600C1644.16 1040 1680 1075.8400000000001 1680 1120V1440C1680 1616.48 1536.48 1760 1360 1760z" />
    <glyph glyph-name="box"
      unicode="&#xEA12;"
      horiz-adv-x="1920" d=" M398 1920H78C33.84 1920 -2 1884.16 -2 1840V1520C-2 1475.8400000000001 33.84 1440 78 1440H398C442.16 1440 478 1475.8400000000001 478 1520V1840C478 1884.16 442.16 1920 398 1920zM1838 1920H1518C1473.84 1920 1438 1884.16 1438 1840V1520C1438 1475.8400000000001 1473.84 1440 1518 1440H1838C1882.16 1440 1918 1475.8400000000001 1918 1520V1840C1918 1884.16 1882.16 1920 1838 1920zM398 480H78C33.84 480 -2 444.1600000000001 -2 400V80C-2 35.8399999999999 33.84 0 78 0H398C442.16 0 478 35.8399999999999 478 80V400C478 444.1600000000001 442.16 480 398 480zM1838 480H1518C1473.84 480 1438 444.1600000000001 1438 400V80C1438 35.8399999999999 1473.84 0 1518 0H1838C1882.16 0 1918 35.8399999999999 1918 80V400C1918 444.1600000000001 1882.16 480 1838 480zM158 560H318V1360H158V560zM558 1600H1358V1760H558V1600zM1598 560H1758V1360H1598V560zM558 160H1358V320H558V160z" />
    <glyph glyph-name="calendar-add"
      unicode="&#xEA13;"
      horiz-adv-x="1920" d=" M1600 440H1360V200H1200V440H960V600H1200V840H1360V600H1600V440zM1600 1600H1480V1800C1480 1866.32 1426.24 1920 1360 1920C1293.76 1920 1240 1866.32 1240 1800V1600H680V1800C680 1866.32 626.24 1920 560 1920C493.76 1920 440 1866.32 440 1800V1600H320C231.6 1600 160 1528.4 160 1440V160C160 71.5999999999999 231.6 0 320 0H1600C1688.4 0 1760 71.5999999999999 1760 160V1440C1760 1528.4 1688.4 1600 1600 1600z" />
    <glyph glyph-name="calendar-day"
      unicode="&#xEA14;"
      horiz-adv-x="1920" d=" M1181.84 946.4C1181.84 935.76 1180 924.8 1176.24 913.6C1172.48 902.4 1168.08 891.44 1163.04 880.8C1157.92 870.0799999999999 1152.48 860 1146.6399999999999 850.3999999999999C1140.7199999999998 840.8 1135.4399999999998 831.9999999999998 1130.56 823.9999999999998L986.64 568.7999999999997C974.32 547.9999999999998 961.12 533.4399999999998 946.96 525.1999999999998C932.88 516.9599999999998 918.88 512.7999999999997 905.04 512.7999999999997C892.2400000000001 512.7999999999997 880.0000000000001 515.1999999999998 868.1600000000001 519.9999999999998C856.4800000000001 524.7999999999997 846.4800000000001 530.3999999999999 838.1600000000001 536.7999999999997C830.0000000000001 543.1999999999998 823.5200000000001 549.4399999999998 819.0400000000001 555.5999999999997C814.4800000000001 561.6799999999996 813.0400000000001 565.8399999999997 814.5600000000001 567.9999999999998L1010.56 907.9999999999998H825.84C802.88 907.9999999999998 785.44 912.5599999999998 773.44 921.5999999999998C761.36 930.6399999999998 755.44 946.6399999999998 755.44 969.5999999999998V978.3999999999997C755.44 1000.7999999999998 761.36 1016.2399999999998 773.44 1024.7999999999997C785.44 1033.2799999999997 802.8800000000001 1037.5999999999997 825.84 1037.5999999999997H1073.76C1097.76 1037.5999999999997 1116.8799999999999 1035.1999999999998 1130.96 1030.3999999999996C1145.1200000000001 1025.5999999999997 1155.92 1019.4399999999996 1163.44 1011.9999999999995C1170.88 1004.5599999999996 1175.8400000000001 995.8399999999996 1178.16 985.9999999999995C1180.5600000000002 976.1599999999996 1181.8400000000001 965.8399999999996 1181.8400000000001 955.1999999999998V946.3999999999997zM1600 1600H1480V1800C1480 1866.32 1426.24 1920 1360 1920C1293.68 1920 1240 1866.32 1240 1800V1600H680V1800C680 1866.32 626.24 1920 560 1920C493.68 1920 440 1866.32 440 1800V1600H320C231.6 1600 160 1528.4 160 1440V160C160 71.5999999999999 231.6 0 320 0H1600C1688.32 0 1760 71.5999999999999 1760 160V1440C1760 1528.4 1688.32 1600 1600 1600z" />
    <glyph glyph-name="calendar-days"
      unicode="&#xEA15;"
      horiz-adv-x="1920" d=" M1181.84 946.4C1181.84 935.76 1180 924.8 1176.24 913.6C1172.48 902.4 1168.08 891.44 1163.04 880.8C1157.92 870.0799999999999 1152.48 860 1146.6399999999999 850.3999999999999C1140.7199999999998 840.8 1135.4399999999998 831.9999999999998 1130.56 823.9999999999998L986.64 568.7999999999997C974.32 547.9999999999998 961.12 533.4399999999998 946.96 525.1999999999998C932.88 516.9599999999998 918.88 512.7999999999997 905.04 512.7999999999997C892.2400000000001 512.7999999999997 880.0000000000001 515.1999999999998 868.1600000000001 519.9999999999998C856.4800000000001 524.7999999999997 846.4800000000001 530.3999999999999 838.1600000000001 536.7999999999997C830.0000000000001 543.1999999999998 823.5200000000001 549.4399999999998 819.0400000000001 555.5999999999997C814.4800000000001 561.6799999999996 813.0400000000001 565.8399999999997 814.5600000000001 567.9999999999998L1010.56 907.9999999999998H825.84C802.88 907.9999999999998 785.44 912.5599999999998 773.44 921.5999999999998C761.36 930.6399999999998 755.44 946.6399999999998 755.44 969.5999999999998V978.3999999999997C755.44 1000.7999999999998 761.36 1016.2399999999998 773.44 1024.7999999999997C785.44 1033.2799999999997 802.8800000000001 1037.5999999999997 825.84 1037.5999999999997H1073.76C1097.76 1037.5999999999997 1116.8799999999999 1035.1999999999998 1130.96 1030.3999999999996C1145.1200000000001 1025.5999999999997 1155.92 1019.4399999999996 1163.44 1011.9999999999995C1170.88 1004.5599999999996 1175.8400000000001 995.8399999999996 1178.16 985.9999999999995C1180.5600000000002 976.1599999999996 1181.8400000000001 965.8399999999996 1181.8400000000001 955.1999999999998V946.3999999999997zM1600 1600H1480V1800C1480 1866.32 1426.24 1920 1360 1920C1293.68 1920 1240 1866.32 1240 1800V1600H680V1800C680 1866.32 626.24 1920 560 1920C493.68 1920 440 1866.32 440 1800V1600H320C231.6 1600 160 1528.4 160 1440V160C160 71.5999999999999 231.6 0 320 0H1600C1688.32 0 1760 71.5999999999999 1760 160V1440C1760 1528.4 1688.32 1600 1600 1600z" />
    <glyph glyph-name="calendar-month"
      unicode="&#xEA16;"
      horiz-adv-x="1920" d=" M1280 680H1600V1000H1280V680zM1280 200H1600V520H1280V200zM800 680H1120V1000H800V680zM800 200H1120V520H800V200zM320 200H640V520H320V200zM1600 1600H1480V1800C1480 1866.32 1426.24 1920 1360 1920C1293.76 1920 1240 1866.32 1240 1800V1600H680V1800C680 1866.32 626.24 1920 560 1920C493.76 1920 440 1866.32 440 1800V1600H320C231.6 1600 160 1528.4 160 1440V160C160 71.5999999999999 231.6 0 320 0H1600C1688.4 0 1760 71.5999999999999 1760 160V1440C1760 1528.4 1688.4 1600 1600 1600z" />
    <glyph glyph-name="calendar-reserved"
      unicode="&#xEA17;"
      horiz-adv-x="1920" d=" M1594.96 667.1199999999999L1194.96 213.7599999999998C1177.3600000000001 193.8399999999997 1152.56 181.7599999999998 1126.08 180.1599999999999C1124 180.0799999999999 1122 179.9999999999998 1120 179.9999999999998C1095.52 179.9999999999998 1071.92 188.8799999999999 1053.52 205.2799999999998L813.52 418.5599999999997C772.24 455.2799999999997 768.56 518.4799999999998 805.1999999999999 559.7599999999998C841.9999999999999 601.1199999999997 905.3599999999998 604.7199999999998 946.3999999999997 567.9999999999998L1111.36 421.3599999999997L1444.96 799.4399999999996C1481.52 840.9599999999996 1544.56 844.8799999999997 1586.16 808.3199999999997C1627.52 771.7599999999998 1631.52 708.5599999999997 1594.96 667.1199999999997M1599.92 1599.9999999999995H1480V1800C1480 1866.24 1426.24 1920 1359.92 1920C1293.68 1920 1240 1866.24 1240 1800V1600H679.92V1800C679.92 1866.24 626.24 1920 559.92 1920C493.6799999999999 1920 439.92 1866.24 439.92 1800V1600H319.92C231.6 1600 160 1528.32 160 1440V160C160 71.5999999999999 231.6 0 319.92 0H1599.92C1688.3200000000002 0 1760 71.5999999999999 1760 160V1440C1760 1528.32 1688.32 1600 1599.92 1600" />
    <glyph glyph-name="check-dark"
      unicode="&#xEA18;"
      horiz-adv-x="1920" d=" M1209.599 580.48C1168.551 523.1200000000001 1104.379 486.6400000000001 1034.0459999999998 480.8C1027.484 480.24 1020.8429999999998 480 1014.2819999999998 480C950.9099999999999 480 889.6979999999999 505.1199999999999 844.5699999999998 550.3199999999999L467.379 927.44C373.601 1021.1200000000002 373.601 1173.1200000000001 467.379 1266.8000000000002C561.1560000000001 1360.56 713.025 1360.56 806.803 1266.8000000000002L983.636 1090L1447.644 1739.52C1453.004 1747.12 1459.566 1753.28 1465.647 1760H317.03C228.614 1760 157 1688.4 157 1600V320C157 231.6800000000001 228.614 160 317.03 160H1597.272C1685.609 160 1757.302 231.6800000000001 1757.302 320V1347.04L1209.6 580.48zM1014.25 600.008C982.564 600.008 951.998 612.568 929.354 635.1279999999999L552.243 1012.248C505.3530000000001 1059.128 505.3530000000001 1135.0479999999998 552.243 1181.9279999999999C599.1320000000001 1228.808 675.066 1228.808 721.955 1181.9279999999999L998.967 905.0479999999998L1545.31 1669.768C1583.878 1723.608 1658.772 1736.168 1712.702 1697.6879999999999C1766.632 1659.128 1779.195 1584.168 1740.627 1530.248L1111.9479999999999 650.248C1091.3849999999998 621.608 1059.2979999999998 603.288 1024.1719999999998 600.4080000000001C1020.8119999999998 600.1680000000001 1017.5309999999998 600.008 1014.2499999999998 600.008z" />
    <glyph glyph-name="check-mark"
      unicode="&#xEA19;"
      horiz-adv-x="1920" d=" M1209.599 580.48C1168.551 523.1200000000001 1104.379 486.6400000000001 1034.0459999999998 480.8C1027.484 480.24 1020.8429999999998 480 1014.2819999999998 480C950.9099999999999 480 889.6979999999999 505.1199999999999 844.5699999999998 550.3199999999999L467.379 927.44C373.601 1021.1200000000002 373.601 1173.1200000000001 467.379 1266.8000000000002C561.1560000000001 1360.56 713.025 1360.56 806.803 1266.8000000000002L983.636 1090L1447.644 1739.52C1453.004 1747.12 1459.566 1753.28 1465.647 1760H317.03C228.614 1760 157 1688.4 157 1600V320C157 231.6800000000001 228.614 160 317.03 160H1597.272C1685.609 160 1757.302 231.6800000000001 1757.302 320V1347.04L1209.6 580.48zM1014.25 600.008C982.564 600.008 951.998 612.568 929.354 635.1279999999999L552.243 1012.248C505.3530000000001 1059.128 505.3530000000001 1135.0479999999998 552.243 1181.9279999999999C599.1320000000001 1228.808 675.066 1228.808 721.955 1181.9279999999999L998.967 905.0479999999998L1545.31 1669.768C1583.878 1723.608 1658.772 1736.168 1712.702 1697.6879999999999C1766.632 1659.128 1779.195 1584.168 1740.627 1530.248L1111.9479999999999 650.248C1091.3849999999998 621.608 1059.2979999999998 603.288 1024.1719999999998 600.4080000000001C1020.8119999999998 600.1680000000001 1017.5309999999998 600.008 1014.2499999999998 600.008z" />
    <glyph glyph-name="check-plus"
      unicode="&#xEA1A;"
      horiz-adv-x="1920" d=" M1840 519.9960000000001H1599.997V759.9930000000002H1439.9950000000001V519.9960000000001H1199.9930000000002V359.9970000000001H1439.9950000000001V120H1599.997V359.9970000000001H1840V519.9960000000001zM719.987 359.9970000000001C677.747 359.9970000000001 636.947 376.7170000000001 606.866 406.8770000000002L126.861 886.8720000000003C64.38 949.3510000000005 64.38 1050.6300000000003 126.861 1113.1090000000004C189.341 1175.5890000000004 290.622 1175.5890000000004 353.103 1113.1090000000004L699.587 766.7130000000002L1389.755 1732.9430000000002C1441.115 1804.9410000000005 1541.1970000000001 1821.5010000000004 1612.957 1770.2220000000002C1684.958 1718.7820000000002 1701.5980000000002 1618.8630000000003 1650.237 1547.0240000000003L850.23 427.0370000000001C822.87 388.7170000000001 780.069 364.4770000000001 733.188 360.557C728.708 360.157 724.388 359.9970000000001 719.9879999999999 359.9970000000001z" />
    <glyph glyph-name="check"
      unicode="&#xEA1B;"
      horiz-adv-x="1920" d=" M799.967 240C757.727 240 716.928 256.7200000000001 686.8489999999999 286.8800000000001L206.8589999999999 766.873C144.38 829.3530000000001 144.38 930.631 206.8589999999999 993.11C269.3379999999999 1055.5900000000001 370.616 1055.5900000000001 433.094 993.11L779.567 646.7150000000001L1469.713 1612.942C1521.072 1684.942 1621.15 1701.5020000000002 1692.908 1650.2220000000002C1764.907 1598.7820000000002 1781.5459999999998 1498.864 1730.1879999999999 1427.025L930.203 307.039C902.843 268.7190000000001 860.044 244.4790000000001 813.165 240.56C808.685 240.1599999999999 804.365 240 799.9649999999999 240" />
    <glyph glyph-name="clock"
      unicode="&#xEA1C;"
      horiz-adv-x="1920" d=" M960 1760C1401.067 1760 1759.911 1401.067 1759.911 960S1401.067 160 960 160C518.844 160 160 518.933 160 960S518.844 1760 960 1760zM960 1600C607.2429999999999 1600 320 1312.7350000000001 320 960S607.2429999999999 320 960 320C1312.679 320 1599.911 607.2760000000001 1599.911 960S1312.68 1600 960 1600zM1199.067 603.0929999999998L862.222 827.69V1368.89H1057.778V932.31L1307.502 765.7950000000001L1199.067 603.0920000000001z" />
    <glyph glyph-name="cloud-lock"
      unicode="&#xEA1D;"
      horiz-adv-x="1920" d=" M1613.833 1169.847C1614.2630000000001 1177.192 1614.419 1184.38 1614.419 1191.53C1614.419 1449.313 1404.1060000000002 1659 1145.5030000000002 1659C958.0070000000002 1659 790.9060000000002 1546.674 717.0250000000001 1381.058C705.1870000000001 1382.268 693.3880000000001 1382.816 681.5500000000001 1382.816C482.1770000000001 1382.816 318.5130000000001 1227.201 306.3240000000001 1031.306C191.38 953.79 120 823.297 120 683.0360000000001C120 473.076 275.732 292.4160000000002 482.177 262.7629999999999L1284.6309999999999 261.7859999999999C1568.7849999999999 261.7859999999999 1800 492.2189999999998 1800 775.4759999999999C1800 929.4099999999999 1731.433 1072.7569999999998 1613.833 1169.846zM1266 998C1266 1121.536 1165.536 1222 1042 1222S818 1121.536 818 998C787.032 998 762 972.968 762 942V550C762 519.0319999999999 787.032 494 818 494H1266C1296.968 494 1322 519.0319999999999 1322 550V942C1322 972.968 1296.968 998 1266 998zM1042 1110C1103.712 1110 1154 1059.768 1154 998H930C930 1059.768 980.288 1110 1042 1110z" />
    <glyph glyph-name="collapse"
      unicode="&#xEA1E;"
      horiz-adv-x="1920" d=" M583.44 616.56L696.5600000000001 503.4400000000001L880 686.8800000000001V160H1040V686.8800000000001L1223.44 503.4400000000001L1336.56 616.56L960 993.12L583.44 616.56zM480 1120H1440V1280H480V1120zM480 1360H1440V1520H480V1360zM480 1600H1440V1760H480V1600z" />
    <glyph glyph-name="collection-save"
      unicode="&#xEA1F;"
      horiz-adv-x="1920" d=" M1223.445 1256.568L1040 1073.13V1760H879.993V1073.13L696.547 1256.568L583.423 1143.449L959.996 766.815L1336.569 1143.449L1223.445 1256.5680000000002zM1360.06 880V560H560.02V880H160V160H1760V880H1360.06z" />
    <glyph glyph-name="collection"
      unicode="&#xEA20;"
      horiz-adv-x="1920" d=" M800 1000V760H1119.76L1120 1000H800zM1280 760C1280 671.76 1208.24 600 1120 600H800C711.76 600 640 671.76 640 760V920H160V360C160 271.6800000000001 231.68 200 320 200H1600C1688.32 200 1760 271.6800000000001 1760 360V920H1280V760zM1680 1400H1360V1560C1360 1648.1599999999999 1288.24 1720 1200 1720H720C631.76 1720 560 1648.1599999999999 560 1560V1400H240C151.68 1400 80 1328.32 80 1240V1000H640C640 1088.1599999999999 711.76 1160 800 1160H1120C1208.24 1160 1280 1088.1599999999999 1280 1000H1840V1240C1840 1328.32 1768.32 1400 1680 1400zM1200 1400H720V1560H1200V1400z" />
    <glyph glyph-name="commons"
      unicode="&#xEA21;"
      horiz-adv-x="1920" d=" M338.7200000000001 960.354C338.7200000000001 1175.142 516.48 1351.1970000000001 734.72 1351.1970000000001H1055.04V1610H732.96C373.92 1610 80 1319.507 80 960.354C80 601.2040000000002 373.92 310.7069999999999 732.96 310.7069999999999H1053.28V569.51H732.96C514.72 569.51 338.7200000000001 745.565 338.7200000000001 960.354zM1840 960.354L1313.76 1425.138V1115.2820000000002H759.36C673.12 1115.2820000000002 604.48 1046.622 604.48 960.354S673.12 805.4259999999999 759.36 805.4259999999999H1313.76V495.569L1840 960.347V960.354z" />
    <glyph glyph-name="complete"
      unicode="&#xEA22;"
      horiz-adv-x="1920" d=" M900 500L500 800L620 960L860 780L1280 1340L1440 1220L900 500zM960 1760C518.1600000000001 1760 160 1401.76 160 960S518.1600000000001 160 960 160S1760 518.24 1760 960S1401.84 1760 960 1760z" />
    <glyph glyph-name="compose"
      unicode="&#xEA23;"
      horiz-adv-x="1920" d=" M1129.767 717.204L564.163 604.0839999999998L677.283 1169.7679999999998L1107.527 1600.0109999999997H360C271.761 1600.01 200 1528.17 200 1440.01V320C200 231.8399999999999 271.76 159.999 360.001 159.999H1480.01C1568.25 159.999 1640.01 231.839 1640.01 320V1227.528L1129.767 717.204zM824.645 1090.847L1050.886 864.605L768.084 808.0450000000001L824.644 1090.8470000000002zM1673.1709999999998 1486.898C1735.6509999999998 1549.378 1735.6509999999998 1650.659 1673.1709999999998 1713.1399999999999C1610.6909999999998 1775.62 1509.4099999999999 1775.62 1446.9289999999999 1713.1399999999999L937.806 1204.016L1164.047 977.774L1673.171 1486.8980000000001z" />
    <glyph glyph-name="copy-course"
      unicode="&#xEA24;"
      horiz-adv-x="1920" d=" M1560 1680V1920H120V160H360V1680H1560zM863.44 1223.44L966.88 1120H680V1520H520V1040C520 995.84 555.84 960 600 960H966.88L863.44 856.56L976.56 743.44L1273.12 1040L976.56 1336.56L863.44 1223.44zM631.393 1520H520V1431.9189999999999A562.42 562.42 0 0 0 631.393 1520zM1208.607 1520H1800V0H520V648.0810000000001C621.641 544.357 763.305 480 920 480C1229.28 480 1480 730.72 1480 1040C1480 1243.7060000000001 1371.233 1422.008 1208.607 1520z" />
    <glyph glyph-name="copy"
      unicode="&#xEA25;"
      horiz-adv-x="1920" d=" M480 0H1760V1600.013H480V0zM1440 879.991H1200V1119.993H1040V879.991H800V719.99H1040V479.9880000000001H1200V719.99H1440V879.991zM160 1920V319.9870000000001H320V1759.999H1360V1920H160z" />
    <glyph glyph-name="courses"
      unicode="&#xEA26;"
      horiz-adv-x="1920" d=" M480 960H320V1600H480V960zM560 1760H240C195.84 1760 160 1724.16 160 1680V240C160 195.8399999999999 195.84 160 240 160H560C604.16 160 640 195.8399999999999 640 240V1680C640 1724.16 604.16 1760 560 1760zM1120 1440H800C755.84 1440 720 1404.1599999999999 720 1360V240C720 195.8399999999999 755.84 160 800 160H1120C1164.16 160 1200 195.8399999999999 1200 240V1360C1200 1404.1599999999999 1164.16 1440 1120 1440zM1040 640H880V1280H1040V640zM1680 1600H1360C1315.84 1600 1280 1564.1599999999999 1280 1520V240C1280 195.8399999999999 1315.84 160 1360 160H1680C1724.16 160 1760 195.8399999999999 1760 240V1520C1760 1564.1599999999999 1724.16 1600 1680 1600zM1600 800H1440V1440H1600V800z" />
    <glyph glyph-name="discussion-check"
      unicode="&#xEA27;"
      horiz-adv-x="1920" d=" M891.697 344.2840000000001L263.427 975.8L632.4870000000001 1346.7669999999998L873.71 1104.3L1260.035 1531.445H320.601C232.029 1531.444 160 1458.96 160 1370.0140000000001V401.4300000000001C160 312.4020000000001 232.03 240 320.6 240H1444.8049999999998C1533.3759999999997 240 1605.4049999999997 312.4020000000001 1605.4049999999997 401.4300000000001V1133.437L891.6969999999998 344.2840000000001zM886.172 578.1560000000002L490.532 975.76L632.5029999999999 1118.464L879.266 870.4259999999999L1611.444 1680L1760 1544.318L886.172 578.156z" />
    <glyph glyph-name="discussion-new"
      unicode="&#xEA28;"
      horiz-adv-x="1920" d=" M1680 1040H1040V1680H880V1040H240V880H880V240H1040V880H1680z" />
    <glyph glyph-name="discussion-reply-2"
      unicode="&#xEA29;"
      horiz-adv-x="1920" d=" M1480.004 1439.974H960.01V1679.969C960.01 1712.289 940.49 1741.488 910.65 1753.887C880.5699999999999 1766.287 846.331 1759.487 823.452 1736.527L103.46 1016.543C72.18 985.264 72.18 934.705 103.46 903.426L823.452 183.441A80.027 80.027 0 0 1 880.01 160C890.33 160 900.73 162 910.65 166.0799999999999C940.49 178.48 960.009 207.6789999999999 960.009 239.9980000000001V479.9929999999999H1759.997C1804.192 479.9929999999999 1840 515.807 1840 559.9839999999999V1359.983C1840 1404.166 1804.182 1439.973 1759.997 1439.973H1480.0040000000001z" />
    <glyph glyph-name="discussion-reply-dark"
      unicode="&#xEA2A;"
      horiz-adv-x="1920" d=" M238 720C370.548 720 478 827.452 478 960S370.548 1200 238 1200S-2 1092.548 -2 960S105.452 720 238 720zM958 720C1090.548 720 1198 827.452 1198 960S1090.548 1200 958 1200S718 1092.548 718 960S825.452 720 958 720zM1678 720C1810.548 720 1918 827.452 1918 960S1810.548 1200 1678 1200S1438 1092.548 1438 960S1545.452 720 1678 720z" />
    <glyph glyph-name="discussion-reply"
      unicode="&#xEA2B;"
      horiz-adv-x="1920" d=" M238 720C370.548 720 478 827.452 478 960S370.548 1200 238 1200S-2 1092.548 -2 960S105.452 720 238 720zM958 720C1090.548 720 1198 827.452 1198 960S1090.548 1200 958 1200S718 1092.548 718 960S825.452 720 958 720zM1678 720C1810.548 720 1918 827.452 1918 960S1810.548 1200 1678 1200S1438 1092.548 1438 960S1545.452 720 1678 720z" />
    <glyph glyph-name="discussion-search"
      unicode="&#xEA2C;"
      horiz-adv-x="1920" d=" M1793.266 352.993L1476.519 669.74C1555.326 791.3499999999999 1597.969 932.883 1597.969 1081.055C1597.89 1500.451 1258.42 1840 838.945 1840C419.549 1840 80 1500.531 80 1081.0549999999998C80 661.74 419.469 322.1109999999999 838.945 322.1109999999999C987.1970000000002 322.1109999999999 1128.729 364.7539999999999 1250.18 443.4809999999998L1566.847 126.8139999999999C1629.572 63.9289999999999 1730.781 64.0889999999999 1793.186 126.7339999999999C1855.591 189.1389999999999 1855.591 290.6679999999999 1793.2659999999998 352.9939999999999zM240.014 1081.0549999999998C240.014 1412.0439999999999 507.876 1679.906 838.944 1679.906C1169.773 1679.906 1437.876 1412.124 1437.876 1081.056C1437.876 921.122 1375.55 770.7089999999998 1262.341 657.6589999999999C1149.2109999999998 544.4489999999998 998.878 482.204 838.8649999999999 482.204C508.1159999999999 482.124 240.0139999999999 750.067 240.0139999999999 1081.0549999999998z" />
    <glyph glyph-name="discussion-x"
      unicode="&#xEA2D;"
      horiz-adv-x="1920" d=" M1336.56 696.56L1223.44 583.44L960 846.8800000000001L696.56 583.44L583.4399999999999 696.56L846.88 960L583.44 1223.44L696.5600000000001 1336.56L960 1073.12L1223.44 1336.56L1336.56 1223.44L1073.12 960L1336.56 696.56zM960 1760C518.24 1760 160 1401.76 160 960S518.24 160 960 160C1401.84 160 1760 518.24 1760 960S1401.84 1760 960 1760z" />
    <glyph glyph-name="discussion"
      unicode="&#xEA2E;"
      horiz-adv-x="1920" d=" M1000 1680C558.88 1680 200 1356.96 200 960C200 821.2 243.28 688.6399999999999 325.8400000000001 573.1199999999999L120 240H1000C1441.12 240 1800 563.04 1800 960S1441.12 1680 1000 1680" />
    <glyph glyph-name="document"
      unicode="&#xEA2F;"
      horiz-adv-x="1920" d=" M1120 1280V1680L1520 1280H1120zM1360 480H560V640H1360V480zM560 960H1360V800H560V960zM560 1280H880V1120H560V1280zM1233.12 1760H480C391.76 1760 320 1688.16 320 1600V320C320 231.76 391.76 160 480 160H1440C1528.24 160 1600 231.76 1600 320V1393.12L1233.12 1760z" />
    <glyph glyph-name="download"
      unicode="&#xEA30;"
      horiz-adv-x="1920" d=" M1611.833 1169.847C1612.2630000000001 1177.192 1612.419 1184.38 1612.419 1191.53C1612.419 1449.313 1402.1060000000002 1659 1143.5030000000002 1659C956.0070000000002 1659 788.9060000000002 1546.674 715.0250000000001 1381.058C703.1870000000001 1382.268 691.3880000000001 1382.816 679.5500000000001 1382.816C480.1770000000001 1382.816 316.5130000000001 1227.201 304.3240000000001 1031.306C189.38 953.79 118 823.297 118 683.0360000000001C118 473.076 273.732 292.4160000000002 480.177 262.7629999999999L1282.6309999999999 261.7859999999999C1566.7849999999999 261.7859999999999 1798 492.2189999999998 1798 775.4759999999999C1798 929.4099999999999 1729.433 1072.7569999999998 1611.833 1169.846M1374.576 835.547L998.016 458.9870000000001L621.4560000000001 835.547L734.5760000000001 948.667L918.016 765.2270000000001V1212.1870000000001H1078.016V765.2270000000001L1261.4560000000001 948.6670000000001L1374.576 835.547z" />
    <glyph glyph-name="drag-handle"
      unicode="&#xEA31;"
      horiz-adv-x="1920" d=" M640 1440H880V1680H640V1440zM1040 1440H1280V1680H1040V1440zM640 1040H880V1280H640V1040zM1040 1040H1280V1280H1040V1040zM640 640H880V880H640V640zM1040 640H1280V880H1040V640zM640 240H880V480H640V240zM1040 240H1280V480H1040V240z" />
    <glyph glyph-name="drop-down"
      unicode="&#xEA32;"
      horiz-adv-x="1920" d=" M960 446.8800000000001L583.44 823.44L696.5600000000001 936.56L880 753.1199999999999V1440H1040V753.1199999999999L1223.44 936.56L1336.56 823.44L960 446.8800000000001zM960 1760C518.88 1760 160 1401.12 160 960S518.88 160 960 160S1760 518.8800000000001 1760 960S1401.12 1760 960 1760z" />
    <glyph glyph-name="edit"
      unicode="&#xEA33;"
      horiz-adv-x="1920" d=" M1490.22 1285.28L1285.3400000000001 1490.1599999999999L1490.2200000000003 1695.12L1695.1000000000004 1490.1599999999999L1490.2200000000003 1285.28zM235.18 235.1199999999999L363.26 568.0799999999999L568.14 363.1999999999998L235.18 235.1199999999999zM1797.5800000000002 1592.6399999999999L1592.7 1797.52C1536.06 1854.16 1444.38 1854.16 1387.74 1797.52L290.1400000000001 699.9200000000001C270.9400000000001 680.72 257.5000000000001 656.5600000000002 251.4200000000001 630.0800000000002L81.9 168.8019999999999C69.9 116.6419999999998 116.62 69.8419999999999 168.78 81.922L630.06 251.3620000000001C656.54 257.5220000000002 680.78 270.962 699.9799999999999 290.1620000000001L1797.58 1387.762C1854.14 1444.322 1854.14 1536.0819999999999 1797.58 1592.6419999999998z" />
    <glyph glyph-name="educators"
      unicode="&#xEA34;"
      horiz-adv-x="1920" d=" M880.026 1520.002V1440.0030000000002H1040.024V1520.0030000000002C1040.024 1652.32 932.345 1760 800.026 1760H640.028V1600.002H800.0260000000001C844.1060000000001 1600.002 880.0260000000001 1564.0819999999999 880.0260000000001 1520.002zM1440.02 1760S1280.022 1760 1200.022 1680C1120.023 1600.002 1120.023 1440.003 1120.023 1440.003S1280.022 1440.003 1360.021 1520.003C1440.02 1600.001 1440.02 1760 1440.02 1760zM1229.75 1410.627C1137.751 1410.627 1045.592 1375.107 959.993 1307.1889999999999C874.473 1375.108 782.3149999999999 1410.627 690.3149999999999 1410.627C424.9580000000001 1410.627 240 1130.95 240 879.9929999999999C240 516.636 517.437 160 799.994 160C821.034 160 841.434 168.56 856.394 183.2000000000001C879.674 206.0800000000002 928.714 240 959.993 240C991.353 240 1040.3120000000001 206.1600000000001 1063.592 183.28C1078.632 168.3999999999999 1098.872 160 1119.9920000000002 160C1402.6280000000002 160 1679.9860000000003 516.636 1679.9860000000003 879.9929999999999C1679.9860000000003 1130.9499999999998 1495.1070000000004 1410.627 1229.7500000000005 1410.627z" />
    <glyph glyph-name="email"
      unicode="&#xEA35;"
      horiz-adv-x="1920" d=" M959.976 1014.16L1677.176 1459.28C1654.216 1472.08 1628.136 1480 1599.9759999999999 1480H319.9759999999999C291.8159999999999 1480 265.7359999999999 1472.08 242.7759999999999 1459.28L959.9759999999998 1014.16zM1002.16 852.048C989.2 844.048 974.64 840.048 960 840.048C945.36 840.048 930.72 844.048 917.76 852.048L160.24 1322.208C160.24 1321.4080000000001 160 1320.688 160 1320.0480000000002V600.0480000000002C160 511.8080000000002 231.76 440.0480000000003 320 440.0480000000003H1600C1688.24 440.0480000000003 1760 511.8080000000002 1760 600.0480000000002V1320.0480000000002C1760 1320.688 1759.76 1321.4080000000004 1759.76 1322.208L1002.16 852.0480000000002z" />
    <glyph glyph-name="empty"
      unicode="&#xEA36;"
      horiz-adv-x="1920" d=" M958 360.028C626.682 360.028 358.028 628.5699999999999 358.028 959.944C358.028 1291.3180000000002 626.682 1559.9160000000002 958 1559.9160000000002S1557.972 1291.374 1557.972 960C1557.972 628.626 1289.318 360.0839999999999 958 360.0839999999999V360.0279999999998zM958 1760C516.262 1760 158 1401.682 158 960S516.318 160 958 160S1758 518.318 1758 960C1758 1401.738 1399.682 1760 958 1760z" />
    <glyph glyph-name="end"
      unicode="&#xEA37;"
      horiz-adv-x="1920" d=" M1336.56 696.56L1223.44 583.44L960 846.8800000000001L696.56 583.44L583.4399999999999 696.56L846.88 960L583.44 1223.44L696.5600000000001 1336.56L960 1073.12L1223.44 1336.56L1336.56 1223.44L1073.12 960L1336.56 696.56zM960 1760C518.24 1760 160 1401.76 160 960S518.24 160 960 160C1401.84 160 1760 518.24 1760 960S1401.84 1760 960 1760z" />
    <glyph glyph-name="equation"
      unicode="&#xEA38;"
      horiz-adv-x="1920" d=" M718 1440H878V960H718C585.6800000000001 960 478 1067.68 478 1200S585.6800000000001 1440 718 1440M718 800H878V320H1038V1440H1198V320H1358V1440H1598V1600H718C497.44 1600 318 1420.56 318 1200S497.44 800 718 800" />
    <glyph glyph-name="equella"
      unicode="&#xEA39;"
      horiz-adv-x="1920" d=" M892.689 247.8320000000001C893.997 254.875 901.341 260.6100000000002 909.089 260.6100000000002H971.165C978.811 260.6100000000002 983.841 254.8750000000003 982.433 247.8320000000001L970.36 189.076C968.951 182.0340000000001 961.607 176.1980000000001 953.86 176.1980000000001H891.683C884.137 176.1980000000001 879.106 182.0340000000001 880.616 189.076L892.689 247.8320000000001zM293.355 231.5340000000001C294.764 238.576 302.108 244.4120000000001 309.755 244.4120000000001H371.932C379.5780000000001 244.4120000000001 384.6090000000001 238.576 382.999 231.5340000000001L371.127 172.7770000000001C369.617 165.7350000000001 362.273 160 354.627 160H292.55C284.904 160 279.874 165.7349999999999 281.2820000000001 172.7770000000001L293.355 231.5340000000001zM269.511 1266.81C270.9190000000001 1273.853 278.264 1279.688 285.911 1279.688H347.987C355.6330000000001 1279.688 360.663 1273.853 359.0540000000001 1266.81L347.182 1208.054C345.572 1201.011 338.127 1195.2759999999998 330.581 1195.2759999999998H268.505C260.858 1195.2759999999998 255.828 1201.011 257.236 1208.054L269.31 1266.81H269.51zM685.432 1747.223C686.942 1754.2649999999999 694.2860000000001 1760 701.932 1760H764.009C771.756 1760 776.7860000000001 1754.165 775.378 1747.223L763.3040000000001 1688.366C761.8960000000001 1681.3229999999999 754.4510000000001 1675.4879999999998 746.8040000000001 1675.4879999999998H684.6270000000001C676.9810000000001 1675.4879999999998 671.951 1681.524 673.5600000000001 1688.366L685.432 1747.223zM1338.995 1747.223C1340.4029999999998 1754.2649999999999 1347.7479999999998 1760 1355.3939999999998 1760H1417.4699999999998C1425.1169999999997 1760 1430.1469999999997 1754.165 1428.5369999999998 1747.223L1416.6649999999997 1688.366C1415.1559999999997 1681.3229999999999 1407.8119999999997 1675.588 1400.0649999999998 1675.588H1337.9879999999998C1330.3419999999999 1675.588 1325.312 1681.625 1326.7199999999998 1688.466L1338.793 1747.3229999999999L1338.995 1747.223zM935.95 1428.993C937.56 1436.237 945.005 1442.0729999999999 952.55 1442.0729999999999H1014.627C1022.273 1442.0729999999999 1027.304 1436.036 1025.895 1428.993L1013.822 1370.338C1012.414 1363.295 1005.069 1357.56 997.322 1357.56H935.246C927.599 1357.56 922.67 1363.295 924.179 1370.338L936.051 1429.094L935.951 1428.994zM761.5930000000001 1546.003C763.1030000000001 1553.045 770.648 1558.679 777.993 1558.679H888.4630000000001C896.109 1558.679 901.0380000000002 1552.844 899.5290000000001 1545.902L878.603 1441.67C877.0939999999999 1434.627 869.548 1428.993 862.103 1428.993H751.433C743.887 1428.993 738.856 1434.728 740.365 1441.67L761.493 1546.0030000000002H761.594zM478.176 527.0250000000001C479.685 534.068 487.231 539.702 494.576 539.702H604.944C612.6909999999999 539.702 617.621 534.068 616.213 527.126L594.8829999999999 422.7929999999999C593.4749999999999 415.75 586.03 410.116 578.5849999999999 410.116H467.914C460.468 410.116 455.438 415.8509999999999 456.846 422.7929999999999L478.176 527.126V527.0260000000001zM924.582 419.875C926.092 426.9179999999999 933.637 432.653 940.982 432.653H1051.452C1059.098 432.653 1064.028 426.9180000000001 1062.518 419.9760000000001L1041.39 315.6440000000003C1039.881 308.6010000000004 1032.335 303.0670000000003 1024.89 303.0670000000003H914.42C906.875 303.0670000000003 901.844 308.8020000000002 903.353 315.6440000000003L924.482 420.0770000000003L924.582 419.8760000000002zM1215.445 501.3699999999999C1219.772 522.4979999999998 1241.8049999999998 539.6009999999999 1264.543 539.6009999999999H1437.29C1460.129 539.6009999999999 1475.12 522.4979999999998 1470.7939999999999 501.3699999999999L1437.3909999999998 337.9789999999998C1433.0649999999998 316.8509999999999 1410.9309999999998 299.7469999999999 1388.0919999999999 299.7469999999999H1215.647C1192.808 299.7469999999999 1177.817 316.6499999999999 1182.244 337.9789999999998L1215.647 501.3689999999997H1215.445zM411.7729999999999 890.73C416.099 911.858 438.1329999999999 929.163 460.8709999999999 929.163H633.6179999999999C656.4569999999999 929.163 671.448 912.059 667.121 890.931L633.72 727.3399999999999C629.394 706.211 607.26 689.108 584.4200000000001 689.108H411.774C389.036 689.108 373.944 706.211 378.372 727.3399999999999L411.774 890.73zM467.1089999999999 1228.377C471.3339999999999 1249.505 493.2669999999999 1266.609 516.2059999999999 1266.609H688.8529999999998C711.6909999999998 1266.609 726.6829999999999 1249.5049999999999 722.3559999999999 1228.377L688.9539999999998 1064.7849999999999C684.6269999999998 1043.657 662.4939999999998 1026.5529999999999 639.6539999999999 1026.5529999999999H467.11C444.271 1026.5529999999999 429.18 1043.6570000000002 433.6070000000001 1064.7849999999999L467.009 1228.377H467.109zM1406 1559.283C1410.326 1580.411 1432.46 1597.5149999999999 1455.299 1597.5149999999999H1627.945C1650.7839999999999 1597.5149999999999 1665.7749999999999 1580.411 1661.4479999999999 1559.283L1628.146 1395.792C1623.82 1374.664 1601.786 1357.56 1579.049 1357.56H1406.302C1383.463 1357.56 1368.472 1374.6640000000002 1372.798 1395.792L1406.201 1559.283H1406zM871.76 1177.4679999999998C881.822 1226.768 933.334 1266.7089999999998 986.657 1266.7089999999998H1511.439C1564.7620000000002 1266.7089999999998 1599.976 1226.7669999999998 1589.915 1177.368L1488.299 680.858C1478.238 631.558 1426.725 591.5159999999998 1373.402 591.5159999999998H848.622C795.298 591.5159999999998 760.0849999999999 631.4579999999999 770.146 680.858L871.762 1177.268V1177.468z" />
    <glyph glyph-name="expand-items"
      unicode="&#xEA3A;"
      horiz-adv-x="1920" d=" M1138.841 1178.71L1232.7839999999999 1272.623L986.5 1518.83L740.216 1272.623L834.159 1178.71L920.063 1264.587V655.413L834.159 741.29L740.216 647.377L986.5 401.1700000000001L1232.784 647.377L1138.8410000000001 741.29L1052.9370000000001 655.413V1264.587zM455 1757H1518V1624.167H455zM455 295.8330000000001H1518V163H455z" />
    <glyph glyph-name="expand"
      unicode="&#xEA3B;"
      horiz-adv-x="1920" d=" M1039.667 514.8040000000001V960.008H880.333V514.8040000000001L697.6579999999999 697.556L585.0089999999999 584.8600000000001L960 209.712L1334.991 584.8600000000001L1222.342 697.556zM482 1119.4H1438V1278.8H482zM482 1358.5H1438V1517.9H482zM482 1597.6H1438V1757H482z" />
    <glyph glyph-name="export-content"
      unicode="&#xEA3C;"
      horiz-adv-x="1920" d=" M1360 1473.128L1246.88 1360.008L1406.88 1200.008H960C783.52 1200.008 640 1056.488 640 880.008V800.008H800V880.008C800 968.168 871.76 1040.008 960 1040.008H1406.88L1246.88 880.008L1360 766.8879999999999L1713.12 1120.0079999999998L1360 1473.128z M1040 480H320V1440H1200V1600H160V320H1200V720H1040z" />
    <glyph glyph-name="export"
      unicode="&#xEA3D;"
      horiz-adv-x="1920" d=" M1360 1473.128L1246.88 1360.008L1406.88 1200.008H960C783.52 1200.008 640 1056.488 640 880.008V800.008H800V880.008C800 968.168 871.76 1040.008 960 1040.008H1406.88L1246.88 880.008L1360 766.8879999999999L1713.12 1120.0079999999998L1360 1473.128z M1040 480H320V1440H1200V1600H160V320H1200V720H1040z" />
    <glyph glyph-name="eye"
      unicode="&#xEA3E;"
      horiz-adv-x="1920" d=" M960 670.2860000000001C799.948 670.2860000000001 670.182 799.933 670.182 960S799.948 1249.714 960 1249.714S1249.818 1120.067 1249.818 960S1120.052 670.2860000000001 960 670.2860000000001M960 1467C499.769 1467 163 960 163 960S499.769 453 960 453S1757 960 1757 960S1420.231 1467 960 1467" />
    <glyph glyph-name="facebook-boxed"
      unicode="&#xEA3F;"
      horiz-adv-x="1920" d=" M1518.249 960H1258.875V262.625H960V960H816.042V1188.141H960V1336.333C960 1537.676 1046.873 1657.375 1283.5819999999999 1657.375H1556.355V1410.5549999999998H1333.594C1267.344 1410.654 1259.2240000000002 1376.0839999999998 1259.2240000000002 1311.676L1258.8750000000002 1188.141H1557.7500000000002L1518.199 960H1518.249zM1491.349 1757H428.7C282.55 1757 163 1637.45 163 1491.3V428.7000000000001C163 282.4500000000001 282.55 163 428.7 163H1491.3500000000001C1637.45 163 1757 282.4500000000001 1757 428.7000000000001V1491.3C1757 1637.45 1637.45 1757 1491.35 1757z" />
    <glyph glyph-name="facebook"
      unicode="&#xEA40;"
      horiz-adv-x="1920" d=" M1111.242 0H751.192V960H511V1290.8L751.193 1290.96L750.793 1485.84C750.792 1755.76 824.05 1920 1142.306 1920H1407.078V1589.12H1241.585C1117.645 1589.12 1111.721 1542.88 1111.721 1456.48L1111.241 1290.88H1409.08L1373.932 960.08L1111.481 959.9999999999998L1111.321 0H1111.241z" />
    <glyph glyph-name="files-copyright"
      unicode="&#xEA41;"
      horiz-adv-x="1920" d=" M960 1757C1400.143 1757 1757 1400.143 1757 960S1400.143 163 960 163S163 519.857 163 960S519.857 1757 960 1757zM960 1597.6C1312.141 1597.6 1597.6 1312.141 1597.6 960S1312.1409999999998 322.4000000000001 959.9999999999998 322.4000000000001S322.4 607.8589999999999 322.4 960S607.859 1597.6 960 1597.6z M1174.924 1107.923L1066.134 1051.203C1054.444 1075.379 1040.231 1092.382 1023.361 1102.079C1006.359 1111.775 990.684 1116.6239999999998 976.206 1116.6239999999998C903.679 1116.6239999999998 867.349 1068.6709999999998 867.349 972.6989999999998C867.349 929.0629999999998 876.581 894.194 894.912 868.0259999999998C913.242 841.7919999999999 940.341 828.7079999999999 976.206 828.7079999999999C1023.494 828.7079999999999 1056.902 851.9529999999997 1076.229 898.5109999999999L1176.319 847.636C1155.066 807.8530000000001 1125.577 776.5699999999999 1087.8519999999999 753.856C1050.127 731.009 1008.5509999999998 719.6510000000001 963.0549999999998 719.6510000000001C890.5279999999998 719.6510000000001 832.0819999999999 741.9670000000001 787.5819999999999 786.5990000000002C743.1499999999999 831.0990000000002 720.8999999999999 893.1320000000001 720.8999999999999 972.6320000000002C720.8999999999999 1050.2070000000003 743.3489999999998 1111.775 788.3799999999999 1157.2710000000002C833.2769999999999 1202.8990000000003 890.1299999999999 1225.6800000000003 958.7379999999998 1225.6800000000003C1059.359 1225.746 1131.3549999999998 1186.4280000000003 1174.8579999999997 1107.9230000000002H1174.9239999999998z" />
    <glyph glyph-name="files-creative-commons"
      unicode="&#xEA42;"
      horiz-adv-x="1920" d=" M960 1757C1400.183 1757 1757 1400.183 1757 960S1400.183 163 960 163S163 519.817 163 960S519.817 1757 960 1757zM960 1597.6C1312.141 1597.6 1597.6 1312.141 1597.6 960S1312.1409999999998 322.4000000000001 959.9999999999998 322.4000000000001S322.4 607.8589999999999 322.4 960S607.859 1597.6 960 1597.6z M1447.339 1102.743L1334.962 1043.499C1322.848 1068.79 1307.864 1086.537 1290.197 1096.632C1272.397 1106.728 1255.447 1111.8290000000002 1239.322 1111.8290000000002C1163.4209999999998 1111.8290000000002 1125.4309999999998 1061.75 1125.4309999999998 961.541C1125.4309999999998 916.006 1135.0739999999998 879.6090000000002 1154.2819999999997 852.2719999999999C1173.4899999999998 824.9089999999999 1201.8359999999998 811.2529999999999 1239.2949999999996 811.2529999999999C1288.8689999999997 811.2529999999999 1323.7769999999996 835.588 1344.0209999999997 884.153L1450.2879999999998 831.019C1427.0419999999997 789.4949999999999 1395.6399999999999 756.8979999999999 1356.2419999999997 733.094A245.009 245.009 0 0 0 1227.1809999999998 697.415C1150.244 697.415 1088.7689999999998 720.6610000000001 1042.8079999999998 767.2849999999999C996.6619999999998 813.7769999999998 973.6549999999997 878.5999999999999 973.6549999999997 961.5409999999998C973.6549999999997 1042.5159999999998 997.1669999999996 1106.754 1044.2689999999998 1154.3349999999998C1091.3189999999997 1201.8629999999998 1150.7489999999998 1225.667 1222.6389999999997 1225.667C1327.8949999999998 1225.7199999999998 1402.8389999999997 1184.754 1447.3389999999997 1102.743zM956.998 1102.743L843.107 1043.499C830.939 1068.79 816.009 1086.537 798.342 1096.632C780.622 1106.728 764.177 1111.8290000000002 748.981 1111.8290000000002C673.107 1111.8290000000002 635.116 1061.75 635.116 961.541C635.116 916.006 644.76 879.6090000000002 663.968 852.2719999999999C683.202 824.9089999999999 711.5219999999999 811.2529999999999 748.981 811.2529999999999C798.607 811.2529999999999 833.516 835.588 853.7860000000001 884.153L958.5390000000002 831.019C936.276 789.4949999999999 905.405 756.8979999999999 865.9270000000001 733.094C826.5030000000002 709.29 782.9600000000002 697.415 735.3790000000001 697.415C659.4780000000002 697.415 598.2150000000001 720.6610000000001 551.6700000000001 767.2849999999999C505.1260000000001 813.7769999999998 481.8530000000001 878.5999999999999 481.8530000000001 961.5409999999998C481.8530000000001 1042.5159999999998 505.3910000000001 1106.754 552.441 1154.3349999999998C599.464 1201.8899999999999 658.9730000000001 1225.6929999999998 730.836 1225.6929999999998C836.12 1225.7459999999996 911.489 1184.7809999999997 957.051 1102.7689999999998L956.998 1102.743z" />
    <glyph glyph-name="files-fair-use"
      unicode="&#xEA43;"
      horiz-adv-x="1920" d=" M960 1757C1400.183 1757 1757 1400.183 1757 960S1400.183 163 960 163S163 519.817 163 960S519.817 1757 960 1757zM960 1597.6C1312.141 1597.6 1597.6 1312.141 1597.6 960S1312.1409999999998 322.4000000000001 959.9999999999998 322.4000000000001S322.4 607.8589999999999 322.4 960S607.859 1597.6 960 1597.6z M774.033 1225.667V716.4369999999999H886.0120000000001V926.845H1099.2620000000002V1013.85H886.0120000000002V1131.54H1132.0190000000002V1225.666z" />
    <glyph glyph-name="files-obtained-permission"
      unicode="&#xEA44;"
      horiz-adv-x="1920" d=" M960 1757C1400.183 1757 1757 1400.183 1757 960S1400.183 163 960 163S163 519.817 163 960S519.817 1757 960 1757zM960 1597.6C1312.141 1597.6 1597.6 1312.141 1597.6 960S1312.1409999999998 322.4000000000001 959.9999999999998 322.4000000000001S322.4 607.8589999999999 322.4 960S607.859 1597.6 960 1597.6z M848.951 1368.8609999999999C848.951 1442.584 885.9590000000001 1479.511 960 1479.511S1070.996 1442.637 1070.996 1368.8339999999998C1070.996 1295.936 1033.988 1259.4859999999999 960.0000000000002 1259.4859999999999S848.9510000000001 1295.9360000000001 848.9510000000001 1368.808V1368.8609999999999zM1174.924 1167.061V846.135H1083.854V465.0630000000001H836.199V846.1090000000002H745.1289999999999V1167.034C745.1289999999999 1181.0610000000001 750.1229999999999 1192.937 760.0589999999999 1202.74A49.928 49.928 0 0 0 796.3489999999998 1217.458H1123.7039999999997C1136.9869999999996 1217.458 1148.8619999999996 1212.569 1159.3039999999996 1202.74C1169.6639999999995 1192.9099999999999 1174.9239999999995 1181.0349999999999 1174.9239999999995 1167.034V1167.0610000000001z" />
    <glyph glyph-name="files-public-domain"
      unicode="&#xEA45;"
      horiz-adv-x="1920" d=" M960 1757C1400.183 1757 1757 1400.183 1757 960S1400.183 163 960 163S163 519.817 163 960S519.817 1757 960 1757zM960 1597.6C1312.141 1597.6 1597.6 1312.141 1597.6 960S1312.1409999999998 322.4000000000001 959.9999999999998 322.4000000000001S322.4 607.8589999999999 322.4 960S607.859 1597.6 960 1597.6z M1106.648 1102.583V850.306H1170.6209999999999C1209.541 850.306 1237.7549999999999 861.73 1255.3149999999998 884.683C1272.849 907.584 1281.6159999999998 938.136 1281.6159999999998 976.445S1272.8489999999997 1045.3319999999999 1255.3159999999998 1068.259C1237.7809999999997 1091.107 1209.0889999999997 1102.5299999999997 1169.2389999999998 1102.5299999999997L1106.6209999999999 1102.61L1106.648 1102.5829999999999zM996.9279999999998 759.2629999999999V1193.626H1167.8039999999999C1237.9399999999998 1193.626 1292.9869999999999 1175.906 1332.8899999999999 1140.413C1372.687 1104.92 1392.6119999999999 1050.2730000000001 1392.6119999999999 976.497C1392.6119999999999 902.642 1372.687 847.9670000000001 1332.8899999999999 812.527C1292.9869999999999 777.0340000000001 1237.9669999999999 759.287 1167.8039999999999 759.287H996.981L996.928 759.261zM695.2629999999999 1112.413V980.643H789.203C811.971 980.643 829.053 987.018 840.477 999.6109999999998C851.9 1012.2039999999998 857.586 1027.878 857.586 1046.581C857.586 1090.495 833.861 1112.466 786.386 1112.466H695.316L695.263 1112.413zM585.6759999999999 759.2629999999999V1193.626H804.85C912.976 1193.626 967.092 1144.637 967.092 1046.5259999999998C967.092 1029.683 964.489 1013.584 959.282 998.176C954.075 982.766 945.042 967.358 932.237 951.896C919.4320000000002 936.488 900.224 923.868 874.5870000000001 914.066C849.0030000000002 904.316 818.6370000000001 899.3739999999999 783.5430000000001 899.3739999999999H696.7230000000002V759.261H585.676z" />
    <glyph glyph-name="filmstrip"
      unicode="&#xEA46;"
      horiz-adv-x="1920" d=" M815.09 1032.444V597.778L1177.364 815.1110000000001z M1322.273 1322.222L1430.955 1467.112H1612.091V1322.222H1322.273zM1612.163 452.8890000000001H307.9100000000001V1177.333H1612.092L1612.164 452.8890000000001zM307.9100000000001 1467.1100000000001H670.183L561.5 1322.222H307.9100000000001V1467.112zM742.637 1322.221L851.319 1467.1109999999999H1249.819L1141.137 1322.221H742.637zM163 1612V452.8889999999999C163 372.983 227.992 308 307.9100000000001 308H1612.0900000000001C1692.0080000000003 308 1757.0000000000002 372.983 1757.0000000000002 452.8890000000001V1612H163z" />
    <glyph glyph-name="flag"
      unicode="&#xEA47;"
      horiz-adv-x="1920" d=" M402.3330000000001 163H243V1757H402.333zM641.333 1561.249V996.335L1375.382 1278.792L641.3330000000001 1561.249zM561.6669999999999 800.5920000000001C545.8129999999999 800.5920000000001 530.0389999999999 805.374 516.5749999999999 814.6190000000001C494.9059999999999 829.4430000000002 481.9999999999999 853.9910000000002 481.9999999999999 880.2920000000001V1677.2920000000001C481.9999999999999 1703.593 494.9059999999999 1728.141 516.5749999999999 1742.9650000000001C538.2449999999999 1757.8690000000001 565.809 1761.0570000000002 590.2669999999999 1751.7320000000002L1625.9339999999997 1353.2320000000002C1656.6849999999997 1341.3570000000002 1676.9999999999998 1311.7880000000002 1676.9999999999998 1278.7920000000001C1676.9999999999998 1245.7960000000003 1656.6849999999997 1216.228 1625.9339999999997 1204.352L590.2669999999998 805.8520000000001C581.0259999999998 802.4250000000002 571.3069999999998 800.5920000000001 561.6669999999998 800.5920000000001z" />
    <glyph glyph-name="folder-locked"
      unicode="&#xEA48;"
      horiz-adv-x="1920" d=" M1680 1440H1056L1000.24 1579.44C975.92 1640.16 917.12 1680 851.68 1680H320C231.6 1680 160 1608.4 160 1520V320C160 275.8399999999999 195.84 240 240 240H1600C1688.4 240 1760 311.5999999999999 1760 400V1360C1760 1404.1599999999999 1724.16 1440 1680 1440zM733.333 1017.143V925.714H716.808C674.388 925.714 640 891.329 640 848.9090000000001V636.8050000000001C640 594.3870000000002 674.384 560 716.801 560H1123.2C1165.616 560 1200.001 594.385 1200.001 636.8050000000001V848.9090000000001C1200.001 891.3280000000002 1165.6109999999999 925.7140000000002 1123.193 925.7140000000002H1106.668V1017.1430000000003C1106.668 1117.7140000000002 1022.6679999999998 1200 920.0009999999997 1200S733.3339999999998 1117.7140000000002 733.3339999999998 1017.1430000000003zM920 1108.5700000000002C972.267 1108.5700000000002 1013.333 1068.342 1013.333 1017.142V925.713H826.667V1017.142C826.667 1068.342 867.7330000000001 1108.5700000000002 920 1108.5700000000002z" />
    <glyph glyph-name="folder"
      unicode="&#xEA49;"
      horiz-adv-x="1920" d=" M1680 1440H1056L1000.24 1579.44C975.92 1640.16 917.12 1680 851.68 1680H320C231.6 1680 160 1608.4 160 1520V320C160 275.8399999999999 195.84 240 240 240H1600C1688.4 240 1760 311.5999999999999 1760 400V1360C1760 1404.1599999999999 1724.16 1440 1680 1440" />
    <glyph glyph-name="forward"
      unicode="&#xEA4A;"
      horiz-adv-x="1920" d=" M439.993 1439.974H959.982V1679.969C959.982 1712.289 979.502 1741.488 1009.341 1753.887C1039.421 1766.287 1073.66 1759.487 1096.539 1736.527L1816.524 1016.542C1847.804 985.263 1847.804 934.704 1816.524 903.425L1096.54 183.4400000000001A80.026 80.026 0 0 0 1039.981 160C1029.661 160 1019.261 162 1009.342 166.0799999999999C979.502 178.48 959.983 207.6789999999999 959.983 239.9980000000001V479.9929999999999H81.002A0.998 0.998 0 0 0 80 480.998V1438.968A0.999 0.999 0 0 0 81.002 1439.9740000000002H439.992z" />
    <glyph glyph-name="github"
      unicode="&#xEA4B;"
      horiz-adv-x="1920" d=" M1087.2 730.4259999999999C1087.2 779.4259999999999 1098.95 821.4259999999999 1122.4 856.326C1145.8500000000001 891.2260000000001 1174.0500000000002 908.726 1206.9 908.726C1240.3000000000002 908.726 1268.7 891.2260000000001 1292.2 856.326S1327.4 779.326 1327.4 730.326S1315.65 639.326 1292.2 604.4259999999999C1268.75 569.5259999999998 1240.3 552.0259999999998 1206.9 552.0259999999998C1174.0500000000002 552.0259999999998 1145.9 569.5259999999998 1122.4 604.4259999999999S1087.2 681.4259999999999 1087.2 730.4259999999999zM584.0500000000001 730.4259999999999C584.0500000000001 779.4259999999999 595.85 821.4259999999999 619.3000000000001 856.326C642.7500000000001 891.2260000000001 671.2 908.726 704.6 908.726C738.1 908.726 766.35 891.376 789.6 856.7260000000001S824.35 779.8760000000002 824.35 730.326C824.35 680.7760000000001 812.75 638.6759999999999 789.5500000000001 603.9760000000001C766.35 569.2760000000001 738.0500000000001 551.9760000000001 704.5500000000001 551.9760000000001C671.2 551.9760000000001 642.8000000000001 569.4760000000001 619.3000000000001 604.3760000000002S584.1 681.3760000000002 584.1 730.3760000000002L584.0500000000001 730.4260000000002zM356.4000000000001 743.7259999999999C356.4000000000001 698.876 362.0000000000001 659.0759999999998 373.2000000000001 624.4259999999999C384.4000000000001 589.7759999999998 398.7000000000001 560.626 416.2000000000001 537.126S458.0000000000001 493.626 489.0000000000001 477.2760000000001S550.3000000000001 448.1760000000002 579.7500000000001 439.2760000000001C609.2500000000001 430.4760000000001 647.0500000000001 423.5260000000001 693.2500000000001 418.576C739.4500000000002 413.626 780.5500000000001 410.576 816.7500000000001 409.576C853.0500000000001 408.576 899.1000000000001 408.076 954.9 408.076C1010.7 408.076 1056.75 408.576 1093 409.576S1170.5 413.576 1216.6 418.576C1262.6999999999998 423.576 1300.6 430.426 1330.1 439.326C1359.5 448.176 1389.75 460.826 1420.8 477.326C1451.85 493.826 1476.1 513.6759999999999 1493.55 537.126C1511 560.576 1525.3999999999999 589.626 1536.6499999999999 624.376C1547.85 659.0260000000001 1553.4499999999998 698.7760000000001 1553.4499999999998 743.626C1553.4499999999998 819.7760000000001 1519.2999999999997 888.626 1450.9499999999998 950.126C1430.6 968.976 1406.9499999999998 983.126 1379.7499999999998 992.826C1352.5499999999997 1002.526 1321.9999999999998 1007.826 1287.7499999999998 1009.226C1253.6499999999999 1010.526 1220.8999999999999 1010.226 1189.5999999999997 1008.426C1158.2999999999997 1006.626 1119.7499999999998 1004.126 1073.8499999999997 1000.926C1027.9499999999996 997.826 988.3499999999996 996.276 954.9499999999998 996.276C921.5499999999998 996.276 881.9499999999997 997.776 836.0499999999997 1000.926C790.0499999999997 1004.076 751.5499999999997 1006.526 720.1999999999997 1008.426C688.8499999999997 1010.326 656.1999999999997 1010.426 621.9999999999997 1009.176C587.7999999999996 1007.876 557.1499999999996 1002.376 529.9999999999997 992.676C502.8499999999997 982.976 479.1499999999996 968.876 458.7999999999997 950.076C390.4499999999997 887.4760000000001 356.2999999999997 818.576 356.2999999999997 743.576L356.3999999999997 743.7260000000001zM160 940.076C160 1069.426 203.3 1181.326 289.9 1275.726C285.2 1288.226 280.9 1302.476 277 1318.376C273.1 1334.2759999999998 269.5 1356.976 266 1386.376S264 1449.876 270 1488.5259999999998C276 1527.176 287 1566.5259999999998 303.2 1606.7259999999999C306.35 1607.7259999999999 310.7 1608.7259999999999 316.1 1609.4759999999999S334.75 1609.576 355.6 1607.4759999999999S398.9 1600.826 422.9 1593.7759999999998C446.9 1586.7259999999999 479.1 1573.176 519.55 1553.076S602.4 1507.826 646.75 1477.576C722.9 1498.426 827.25 1508.876 959.75 1508.876C1092.75 1508.876 1197.25 1498.376 1273.45 1477.576C1317.8 1507.826 1359.95 1532.9759999999999 1399.8 1553.076C1439.6499999999999 1573.176 1472.3 1586.7259999999999 1497.6 1593.7759999999998C1522.9499999999998 1600.7759999999998 1545.1 1605.5259999999998 1564.1 1607.876C1583.1 1610.226 1596.8999999999999 1610.626 1605.25 1609.076L1617 1606.7259999999999C1633.15 1566.576 1644.25 1527.2259999999999 1650.25 1488.576C1656.25 1449.926 1657.55 1415.926 1654.15 1386.4759999999999C1650.75 1357.0259999999998 1647.15 1334.326 1643.25 1318.4759999999999C1639.35 1302.6259999999997 1635.05 1288.326 1630.35 1275.7759999999998C1716.8 1181.3759999999997 1760 1069.4759999999999 1760 940.1259999999997C1760 867.6259999999997 1753.25 802.0259999999998 1739.7 743.3759999999997C1726.15 684.7259999999997 1707.2 633.7259999999997 1683 590.3759999999997C1658.8 547.0259999999998 1628 509.0759999999998 1590.7 476.1759999999997C1553.4 443.3259999999998 1513 416.4759999999997 1469.45 395.5759999999998C1425.9 374.6759999999997 1376.15 357.7759999999999 1320.3500000000001 344.7259999999999C1264.5500000000002 331.676 1207.7 322.5759999999998 1149.8500000000001 317.3259999999998C1086.1000000000001 311.8759999999998 1022.1000000000003 309.2759999999999 958.1000000000003 309.5259999999999C888.7500000000001 309.5259999999999 825.1000000000001 312.176 767.2000000000002 317.3759999999998C709.3000000000002 322.5759999999998 652.6000000000001 331.7259999999997 597.0500000000002 344.7759999999999C541.5500000000002 357.7759999999999 492.0500000000002 374.7759999999999 448.8000000000002 395.6259999999998S365.3000000000002 443.3259999999998 328.3000000000002 476.2259999999997C291.3000000000002 509.0759999999996 260.8000000000002 547.2259999999997 236.8000000000002 590.4759999999997S194.0000000000002 684.6759999999997 180.4000000000002 743.3259999999996C166.8500000000002 802.0759999999996 160.0000000000002 867.6259999999995 160.0000000000002 940.1259999999996V940.0759999999996z" />
    <glyph glyph-name="gradebook-export"
      unicode="&#xEA4C;"
      horiz-adv-x="1920" d=" M1383.907 1473.128L1270.7959999999998 1360.008L1430.7839999999999 1200.008H983.938C807.472 1200.008 663.963 1056.488 663.963 880.008V800.008H823.95V880.008C823.95 968.168 895.7040000000001 1040.008 983.937 1040.008H1430.783L1270.7949999999998 880.008L1383.906 766.8879999999999L1737 1120.008L1383.907 1473.1280000000002zM1063.932 480H343.988V1440H1223.92V1600H184V320H1223.92V720H1063.932V480z" />
    <glyph glyph-name="gradebook-import"
      unicode="&#xEA4D;"
      horiz-adv-x="1920" d=" M537.093 1473.128L650.204 1360.008L490.216 1200.008H937.0619999999998C1113.5279999999998 1200.008 1257.0369999999998 1056.488 1257.0369999999998 880.008V800.008H1097.05V880.008C1097.05 968.168 1025.296 1040.008 937.063 1040.008H490.216L650.204 880.008L537.093 766.8879999999999L184 1120.008L537.0930000000001 1473.1280000000002zM857.068 480H1577.012V1440H697.08V1600H1737V320H697.08V720H857.068V480z" />
    <glyph glyph-name="gradebook"
      unicode="&#xEA4E;"
      horiz-adv-x="1920" d=" M240 1680V240C240 195.76 275.8400000000001 160 320 160H560V1760H320C275.8400000000001 1760 240 1724.16 240 1680zM1600 1760H640V160H1600C1644.16 160 1680 195.76 1680 240V1680C1680 1724.16 1644.16 1760 1600 1760zM1130 617.52C1130 541.6800000000001 1068.32 480 992.48 480H800V920H992.48C1068.32 920 1130 858.3199999999999 1130 782.48C1130 751.3600000000001 1119.28 723.04 1101.84 700C1119.28 676.96 1130 648.56 1130 617.52zM1520 810H1355.04C1324.72 810 1300 785.28 1300 754.96V644.96C1300 614.6400000000001 1324.64 589.9200000000001 1355.04 589.9200000000001H1520V480H1355.04C1264.08 480 1190.08 554 1190.08 644.96V754.96C1190.08 845.9200000000001 1264.08 919.92 1355.04 919.92H1520V810zM992.48 644.96H910V589.9200000000001H992.48C1007.6 589.9200000000001 1020 602.24 1020 617.44S1007.68 644.96 992.48 644.96zM1060 1190V1080H950V1464.96C950 1495.36 974.64 1520 1005.04 1520H1225.04C1255.36 1520 1280 1495.3600000000001 1280 1464.96V1080H1170V1190H1060zM1060 1410H1170V1300H1060V1410zM992.48 810H910V754.96H992.48C1007.6 754.96 1020 767.28 1020 782.48S1007.68 810 992.48 810z" />
    <glyph glyph-name="group-dark-new"
      unicode="&#xEA4F;"
      horiz-adv-x="1920" d=" M1680 1040H1040V1680H880V1040H240V880H880V240H1040V880H1680z" />
    <glyph glyph-name="group-new"
      unicode="&#xEA50;"
      horiz-adv-x="1920" d=" M1680 1040H1040V1680H880V1040H240V880H880V240H1040V880H1680z" />
    <glyph glyph-name="group"
      unicode="&#xEA51;"
      horiz-adv-x="1920" d=" M1040 960V820H1600V565.2C1692.96 532.0800000000002 1760 444.08 1760 340C1760 207.5999999999999 1652.32 100 1520 100S1280 207.5999999999999 1280 340C1280 444.08 1347.04 532.0799999999999 1440 565.2V660H1040V565.2C1132.96 532.0800000000002 1200 444.08 1200 340C1200 207.5999999999999 1092.32 100 960 100S720 207.5999999999999 720 340C720 444.08 787.04 532.0799999999999 880 565.2V660H480V565.2C572.96 532.0800000000002 640 444.08 640 340C640 207.5999999999999 532.3199999999999 100 400 100S160 207.5999999999999 160 340C160 444.08 227.04 532.0799999999999 320 565.2V820H880V960H555V1061.333C555 1170.773 641.063 1258.933 748.388 1264C803.062 1202.187 877.988 1162.667 960 1162.667C1042.013 1162.667 1116.938 1202.187 1171.612 1264C1279.95 1258.933 1365 1170.7730000000001 1365 1061.333V960H1040zM960.5 1654C849.125 1654 758 1563.28 758 1451.5S849.125 1249 960.5 1249S1163 1339.72 1163 1451.5S1071.875 1654 960.5 1654z" />
    <glyph glyph-name="hamburger"
      unicode="&#xEA52;"
      horiz-adv-x="1920" d=" M1520 440H400V680H1520V440zM1520 840H400V1080H1520V840zM1520 1240H400V1480H1520V1240z" />
    <glyph glyph-name="heart"
      unicode="&#xEA53;"
      horiz-adv-x="1920" d=" M1280 1600C1152.48 1600 1034.32 1533.04 960 1433.6C885.68 1533.04 767.52 1600 640 1600C419.44 1600 240 1420.56 240 1200C240 760.72 889.92 349.4400000000001 917.6 332.1599999999999A80.132 80.132 0 0 1 960 320C974.72 320 989.44 324.08 1002.4 332.1600000000001C1030.08 349.4400000000001 1680 760.72 1680 1200C1680 1420.5600000000002 1500.56 1600 1280 1600" />
    <glyph glyph-name="highlighter"
      unicode="&#xEA54;"
      horiz-adv-x="1920" d=" M80 278H560.009L641.45 359.4480000000001L401.4460000000001 599.4730000000002L80 278zM1266.31 440.865C1121.427 440.865 982.464 383.339 879.983 280.848H1840V440.865H1266.31zM1083.85 1437.9189999999999L406.7979999999999 760.8890000000001L802.8049999999998 364.7690000000003L1479.857 1041.9590000000003L1083.85 1437.9190000000003zM1636.004 1198.095C1698.485 1260.5810000000001 1698.485 1361.871 1636.004 1424.438L1466.241 1594.135C1403.841 1656.622 1302.478 1656.622 1239.997 1594.135L1168.7160000000001 1522.768L1564.7230000000002 1126.808L1636.0040000000001 1198.095z" />
    <glyph glyph-name="home"
      unicode="&#xEA55;"
      horiz-adv-x="1920" d=" M1736.545 976.554L1519.99 1193.1100000000001V1559.983H1279.995V1433.105L1016.559 1696.54C985.279 1727.82 934.72 1727.82 903.441 1696.54L183.455 976.554C160.575 953.674 153.695 919.275 166.095 889.356C178.495 859.4359999999999 207.695 839.9960000000001 240.014 839.9960000000001H400.01V200.009H800.002V600H1119.996V200.0080000000001H1519.988V839.9960000000001H1679.9850000000001C1712.305 839.9960000000001 1741.505 859.4360000000001 1753.9040000000002 889.355C1766.3040000000003 919.275 1759.4240000000002 953.674 1736.5440000000003 976.553" />
    <glyph glyph-name="hour-glass"
      unicode="&#xEA56;"
      horiz-adv-x="1920" d=" M879.84 1082.6399999999999L844.5600000000001 1106.48C841.68 1108.3200000000002 560 1301.6 560 1600H1360C1360 1301.6 1078.32 1108.32 1075.6 1106.56L1040 1082.8V837.2L1075.6 813.44C1078.48 811.52 1360 620.4000000000001 1360 320H560C560 618.24 841.6800000000001 811.5999999999999 844.4 813.44L880 837.2L879.84 1082.64zM400 320H320C275.8400000000001 320 240 284.1600000000001 240 240V160C240 115.76 275.8400000000001 80 320 80H1600C1644.16 80 1680 115.76 1680 160V240C1680 284.1600000000001 1644.16 320 1600 320H1520C1520 635.76 1290.56 848.48 1200 920.24V999.76C1290.56 1071.3600000000001 1520 1284.08 1520 1600H1600C1644.16 1600 1680 1635.76 1680 1680V1760C1680 1804.16 1644.16 1840 1600 1840H320C275.8400000000001 1840 240 1804.16 240 1760V1680C240 1635.76 275.8400000000001 1600 320 1600H400C400 1284.08 629.44 1071.3600000000001 720 999.76V920.24C629.44 848.48 400 635.76 400 320zM960 1199.9679999999998S1092.08 1288.208 1160.24 1439.9679999999998H759.76C827.92 1288.208 960 1199.9679999999998 960 1199.9679999999998" />
    <glyph glyph-name="image"
      unicode="&#xEA57;"
      horiz-adv-x="1920" d=" M480 560L720 880L880 720L1200 1120L1440 560H480zM680 1440C790.3199999999999 1440 880 1350.48 880 1240C880 1129.44 790.3199999999999 1040 680 1040C569.44 1040 480 1129.44 480 1240C480 1350.48 569.44 1440 680 1440zM160 1675.996A4 4 0 0 0 164.006 1680H1755.9940000000001A4.005 4.005 0 0 0 1760.0000000000002 1675.996V244.0040000000002A4 4 0 0 0 1755.9940000000001 240.0000000000003H164.006A4.005 4.005 0 0 0 160 244.0040000000002V1675.996z" />
    <glyph glyph-name="import-content"
      unicode="&#xEA58;"
      horiz-adv-x="1920" d=" M1360 960C1448.24 960 1520 888.1600000000001 1520 800V720H1680V800C1680 976.48 1536.48 1120 1360 1120H913.12L1073.12 1280L960 1393.12L606.88 1040L960 686.8800000000001L1073.12 800L913.1199999999998 960H1360zM1280 1600V1440H400V480H1120V720H1280V320H240V1600H1280z" />
    <glyph glyph-name="import"
      unicode="&#xEA59;"
      horiz-adv-x="1920" d=" M1360 960C1448.24 960 1520 888.1600000000001 1520 800V720H1680V800C1680 976.48 1536.48 1120 1360 1120H913.12L1073.12 1280L960 1393.12L606.88 1040L960 686.8800000000001L1073.12 800L913.1199999999998 960H1360zM1280 1600V1440H400V480H1120V720H1280V320H240V1600H1280z" />
    <glyph glyph-name="indent-2"
      unicode="&#xEA5A;"
      horiz-adv-x="1920" d=" M320 1520H1760V1680H320V1520zM800 1200H1760V1360H800V1200zM800 880H1760V1040H800V880zM800 560H1760V720H800V560zM320 240H1760V400H320V240zM160 1440L640 960L160 480V1440z" />
    <glyph glyph-name="indent"
      unicode="&#xEA5B;"
      horiz-adv-x="1920" d=" M320 1520H1760V1680H320V1520zM800 1200H1760V1360H800V1200zM800 880H1760V1040H800V880zM800 560H1760V720H800V560zM320 240H1760V400H320V240zM160 1440L640 960L160 480V1440z" />
    <glyph glyph-name="info"
      unicode="&#xEA5C;"
      horiz-adv-x="1920" d=" M960 160C1401.828 160 1760 518.172 1760 960S1401.828 1760 960 1760S160 1401.828 160 960S518.172 160 960 160zM809 986C809 1016.928 834.07 1042 864.994 1042H1056.006C1086.931 1042 1112 1016.93 1112 986V465C1112 434.0719999999999 1086.93 409 1056.006 409H864.994C834.0690000000001 409 809 434.07 809 465V986zM960.5 1192C1048.59 1192 1120 1263.4099999999999 1120 1351.5S1048.59 1511 960.5 1511S801 1439.59 801 1351.5S872.41 1192 960.5 1192z" />
    <glyph glyph-name="instructure"
      unicode="&#xEA5D;"
      horiz-adv-x="1920" d=" M391.447 960C391.447 844.277 300.881 743.6479999999999 190.189 733.585C170.063 809.057 160 884.528 160 960C160 1035.472 170.063 1115.975 190.189 1186.415C305.912 1176.3519999999999 391.447 1075.723 391.447 960zM527.296 1030.44C566.1890000000001 1030.44 597.7360000000001 998.893 597.7360000000001 960S566.1890000000001 889.56 527.296 889.56S456.8560000000001 921.107 456.8560000000001 960S488.4030000000001 1030.44 527.296 1030.44zM602.767 708.4280000000001C572.5790000000001 678.239 572.5790000000001 632.9560000000001 602.767 607.7980000000002C632.956 582.6420000000003 678.239 577.6100000000001 703.397 607.7980000000002C733.585 637.9880000000003 733.585 683.2700000000002 703.397 708.4280000000003C678.239 733.5850000000003 627.9250000000001 733.5850000000003 602.767 708.4280000000003zM557.484 562.5160000000001C476.9810000000001 643.019 346.1640000000001 653.0820000000001 250.5660000000001 582.642C331.069 446.7920000000002 441.761 336.1010000000001 572.579 260.6290000000002C648.05 346.1640000000002 637.987 476.9810000000002 557.4839999999999 562.5160000000001zM602.767 1322.2640000000001C572.5790000000001 1292.0750000000003 572.5790000000001 1246.7920000000001 602.767 1221.6350000000002C632.956 1196.478 678.239 1191.4470000000001 703.397 1221.6350000000002C733.585 1251.824 728.553 1297.107 703.397 1322.265C673.207 1347.421 627.9250000000001 1347.421 602.767 1322.265zM1206.5410000000002 703.3960000000002C1176.352 678.2390000000003 1176.352 632.9560000000001 1201.5090000000002 602.7670000000003C1226.6670000000001 572.5790000000002 1271.9490000000003 572.5790000000002 1302.1390000000001 597.7360000000003C1302.1390000000001 597.7360000000003 1307.169 597.7360000000003 1307.169 602.7670000000003C1332.327 632.9560000000004 1332.327 678.2390000000003 1302.1390000000001 703.3970000000004C1276.9810000000002 728.5530000000003 1236.729 728.5530000000003 1206.5410000000002 703.3970000000004zM1317.2330000000002 1216.6040000000003C1342.39 1246.7920000000001 1342.39 1292.0750000000003 1312.2010000000002 1317.2330000000002C1287.0440000000003 1342.3900000000003 1241.7610000000002 1342.3900000000003 1216.6040000000003 1317.2330000000002C1191.4470000000003 1287.0440000000003 1191.4470000000003 1241.7610000000002 1221.6350000000002 1216.603C1246.7920000000001 1191.4470000000001 1287.0440000000003 1191.4470000000001 1317.2330000000002 1216.603zM1357.4840000000002 1362.516C1437.987 1282.0130000000001 1568.805 1271.9500000000003 1664.4030000000002 1342.3900000000003C1583.8990000000003 1478.2390000000003 1473.2080000000003 1588.9300000000003 1342.3900000000003 1664.4030000000002C1266.9180000000003 1573.8360000000002 1276.9810000000002 1443.0190000000002 1357.4840000000004 1362.516zM557.4840000000002 1362.516C643.0190000000001 1443.0190000000002 648.0500000000002 1573.8360000000002 577.6100000000001 1664.4030000000002C441.761 1588.93 331.07 1478.239 255.597 1342.3899999999999C346.164 1271.95 476.981 1282.013 557.484 1362.516zM1357.4840000000002 562.5160000000001C1276.9810000000002 482.0130000000001 1266.9180000000001 351.1950000000002 1337.3580000000002 255.5970000000002C1473.208 336.1010000000001 1583.8990000000001 446.7920000000002 1659.371 577.6100000000001C1573.836 653.0820000000001 1443.019 643.0190000000002 1357.4840000000002 562.5160000000001zM960 1463.145C919.748 1463.145 889.56 1432.956 889.56 1392.705C889.56 1352.453 919.748 1322.2649999999999 960 1322.2649999999999C1000.252 1322.2649999999999 1030.44 1357.485 1030.44 1397.735C1030.44 1432.956 995.22 1463.145 960 1463.145zM960 1528.5529999999999C1075.723 1528.5529999999999 1176.352 1619.1190000000001 1191.4470000000001 1729.811C1115.975 1749.937 1040.503 1760 960 1760C879.497 1760 804.025 1749.937 728.553 1729.811C743.648 1614.088 844.277 1528.5529999999999 960 1528.5529999999999zM960 597.7359999999999C919.748 597.7359999999999 884.528 567.5469999999998 884.528 527.2959999999998C884.528 487.0439999999999 914.717 451.8239999999998 954.968 451.8239999999998H960C1000.252 451.8239999999998 1030.44 487.0439999999999 1030.44 527.2959999999998C1025.409 567.5469999999998 995.22 597.7359999999999 960 597.7359999999999zM960 391.4459999999999C844.277 391.4459999999999 743.648 305.9119999999998 733.585 190.1889999999999C809.057 170.0630000000001 884.528 160 960 160C1035.472 160 1115.975 170.0630000000001 1186.415 190.1890000000001C1171.321 305.9120000000001 1075.723 391.4470000000001 960 391.4470000000001zM1392.704 1035.4719999999998C1352.453 1035.4719999999998 1322.264 1005.283 1322.264 965.032C1322.264 924.78 1352.453 894.5919999999999 1392.704 894.5919999999999C1432.956 894.5919999999999 1463.144 924.7799999999997 1463.144 965.032C1463.144 1000.252 1432.956 1035.472 1392.704 1035.472zM1528.554 960C1528.554 844.277 1619.1190000000001 743.6479999999999 1729.8110000000001 733.585C1749.937 809.057 1760 884.528 1760 960C1760 1035.472 1749.937 1115.975 1729.811 1186.415C1614.088 1176.3519999999999 1528.5529999999999 1075.723 1528.5529999999999 960z" />
    <glyph glyph-name="integrations"
      unicode="&#xEA5E;"
      horiz-adv-x="1920" d=" M1792 1408H1536V1792C1536 1862.4 1478.4 1920 1408 1920H1280C1209.6 1920 1152 1862.4 1152 1792V1408H768V1792C768 1862.4 710.4 1920 640 1920H512C441.6 1920 384 1862.4 384 1792V1408H128C57.6 1408 0 1350.4 0 1280V1024C0 953.6 57.6 896 128 896H192V454.4000000000001C192 377.6000000000002 275.2 320 384 320H704V192C704 83.2000000000001 787.2 0 896 0H1024C1132.8 0 1216 83.2000000000001 1216 192V320H1536C1644.8 320 1728 377.5999999999999 1728 454.4000000000001V896H1792C1862.4 896 1920 953.6 1920 1024V1280C1920 1350.4 1862.4 1408 1792 1408zM1280 1408V1792H1408V1408H1280zM512 1408V1792H640V1408H512zM1024 128H896C857.6 128 832 153.5999999999999 832 192V320H1088V192C1088 153.5999999999999 1062.4 128 1024 128zM1600 492.8C1600 467.2 1574.4 448 1536 448H384C352 448 320 467.2 320 492.8V896H1600V492.8zM1664 1024H128V1280H1792V1024H1664z" />
    <glyph glyph-name="invitation"
      unicode="&#xEA5F;"
      horiz-adv-x="1920" d=" M1221.28 720H698.72L160 1027.8400000000001V320C160 231.6800000000001 231.76 160 320 160H1600C1688.32 160 1760 231.6800000000001 1760 320V1027.8400000000001L1221.28 720zM480 1600H1440V1029.28L1600 1120.72V1760H320V1120.72L480 1029.28V1600zM640 1040H1120V1200H640V1040zM640 1280H1280V1440H640V1280z" />
    <glyph glyph-name="keyboard-shortcuts"
      unicode="&#xEA60;"
      horiz-adv-x="1920" d=" M1693.417 1320.2H1033.792V1393.5C1033.792 1433.99 1066.598 1466.8 1107.0829999999999 1466.8H1180.3749999999998C1301.4809999999998 1466.8 1400.2499999999998 1565.58 1400.2499999999998 1686.7V1760H1253.6669999999997V1686.7C1253.6669999999997 1646.21 1220.8599999999997 1613.4 1180.3749999999998 1613.4H1107.0829999999999C985.9779999999998 1613.4 887.2079999999999 1514.62 887.2079999999999 1393.5V1320.2H227.583C146.613 1320.2 81 1254.579 81 1173.6V440.5999999999999C81 359.6209999999999 146.613 294 227.583 294H1693.4170000000001C1774.3870000000002 294 1840.0000000000005 359.6199999999999 1840.0000000000005 440.5999999999999V1173.6C1840.0000000000005 1254.579 1774.3870000000002 1320.1999999999998 1693.4170000000001 1320.1999999999998zM1400 1100H1547V953H1400V1100zM1180 1100H1327V953H1180V1100zM1401 880V733H1254V880H1401zM961 1100H1108V953H961V1100zM1181 880V733H1034V880H1181zM961 880V733H814V880H961zM741 1100H888V953H741V1100zM521 1100H668V953H521V1100zM741 880V733H594V880H741zM301 1100H448V953H301V1100zM521 880V733H374V880H521zM448 513H301V660H448V513zM1327 513H521V660H1327V513zM1547 513H1400V660H1547V513zM1621 733H1474V880H1621V733z" />
    <glyph glyph-name="like"
      unicode="&#xEA61;"
      horiz-adv-x="1920" d=" M538.07 1026.466C538.07 1206.3029999999999 872.3670000000001 1275.982 940.219 1328.141C1008.15 1380.38 1185.701 1479.018 1201.384 1687.894C1217.066 1896.771 1530.4 1925.81 1540.882 1548.617C1540.882 1316.5410000000002 1493.834 1264.382 1493.834 1264.382C1660.9830000000002 1264.382 1777.564 1165.743 1782.7640000000001 1067.105C1787.9640000000002 968.467 1707.951 295.4380000000001 1467.75 254.799C1227.468 214.1589999999999 553.752 248.9590000000001 538.07 463.675V1026.465zM218.0140000000001 240.0160000000001H378.04C422.2080000000001 240.0160000000001 458.054 275.855 458.054 320.0140000000001V1120C458.054 1164.1599999999999 422.2080000000001 1199.999 378.04 1199.999H218.014C173.846 1199.999 138 1164.159 138 1120V320.0140000000001C138 275.8540000000001 173.846 240.0150000000001 218.014 240.0150000000001z" />
    <glyph glyph-name="link"
      unicode="&#xEA62;"
      horiz-adv-x="1920" d=" M762.573 932.534L196.986 366.7339999999999L366.638 197.0169999999998L932.225 762.8179999999998L762.5729999999999 932.5339999999998zM1158.347 989.106L1724.094 1554.826L1554.442 1724.623L988.695 1158.823L1158.347 989.1060000000002zM1724.174 1271.966L1695.778 1300.2930000000001L1526.126 1130.576L1554.442 1102.25C1569.959 1086.7269999999999 1569.959 1061.362 1554.442 1045.758L875.754 366.8140000000001C865.596 356.5710000000002 853.678 355.0510000000002 847.439 355.0510000000002C841.199 355.0510000000002 829.362 356.5710000000002 819.1229999999999 366.7340000000002L790.8079999999999 395.0600000000002L621.156 225.2640000000001L649.472 197.0170000000001C702.342 144.127 772.652 115 847.439 115S992.535 144.126 1045.406 197.0170000000001L1724.174 875.962C1833.275 985.265 1833.275 1162.8229999999999 1724.174 1271.967zM225.302 621.269L196.986 649.5150000000001C144.116 702.4849999999999 115 772.8199999999999 115 847.636C115 922.452 144.115 992.867 196.986 1045.6779999999999L875.674 1724.703C981.417 1830.406 1165.866 1830.486 1271.608 1724.623L1300.004 1696.377L1130.272 1526.581L1102.037 1554.827C1091.878 1565.069 1079.96 1566.589 1073.721 1566.589C1067.562 1566.589 1055.644 1565.069 1045.486 1554.907L366.7180000000001 875.8820000000001C356.4800000000001 865.72 354.9600000000001 853.797 354.9600000000001 847.636C354.9600000000001 841.395 356.4800000000001 829.472 366.7180000000001 819.23L394.9540000000001 791.0640000000001L225.3020000000001 621.268z" />
    <glyph glyph-name="linkedin"
      unicode="&#xEA63;"
      horiz-adv-x="1920" d=" M1560 373.04H1302.6399999999999V787.0799999999999C1302.6399999999999 891.0799999999999 1265.4399999999998 962.04 1172.4399999999998 962.04C1101.36 962.04 1058.9999999999998 914.2 1040.4799999999998 867.96C1033.6799999999998 851.48 1031.9599999999998 828.3600000000001 1031.9599999999998 805.24V373.1600000000001H774.72S778.1600000000001 1074.3600000000001 774.72 1147H1031.96V1037.2800000000002C1066.2 1090 1127.28 1165.1200000000001 1263.8400000000001 1165.1200000000001C1433.0800000000002 1165.1200000000001 1560.0000000000002 1054.48 1560.0000000000002 816.8400000000001V373.0400000000002zM503.84 1252.56H502.1199999999999C415.8 1252.56 360 1312.08 360 1386.3200000000002C360 1462.24 417.52 1520 505.52 1520S647.64 1462.24 649.36 1386.32C649.36 1312.04 593.52 1252.56 503.84 1252.56zM632.4399999999999 373.04H375.2V1146.88H632.44V373.04zM1600 1760H320C231.64 1760 160 1688.3600000000001 160 1600V320C160 231.6400000000001 231.64 160 320 160H1600C1688.36 160 1760 231.6400000000001 1760 320V1600C1760 1688.3600000000001 1688.36 1760 1600 1760z" />
    <glyph glyph-name="lock"
      unicode="&#xEA64;"
      horiz-adv-x="1920" d=" M503.5 1302.857V1074.286H338.992C303.6500000000001 1074.286 275 1045.636 275 1010.29V223.9949999999999C275 188.6519999999998 303.655 160 339.002 160H1581.998C1617.345 160 1646 188.6500000000001 1646 223.9949999999999V1010.29C1646 1045.634 1617.35 1074.286 1582.008 1074.286H1417.5V1302.857C1417.5 1554.286 1211.85 1760 960.5 1760S503.5 1554.286 503.5 1302.857zM960.936 401C1074.1190000000001 401 1165.872 492.7819999999999 1165.872 606S1074.1190000000001 811 960.936 811S756 719.2180000000001 756 606S847.753 401 960.936 401zM960.5 1531.429C1088.46 1531.429 1189 1430.857 1189 1302.857V1074.286H732V1302.857C732 1430.857 832.54 1531.429 960.5 1531.429z" />
    <glyph glyph-name="lti"
      unicode="&#xEA65;"
      horiz-adv-x="1920" d=" M1320 1600H680C613.76 1600 560 1546.24 560 1480C560 1413.76 613.76 1360 680 1360H880V440C880 373.76 933.76 320 1000 320C1066.24 320 1120 373.76 1120 440V1360H1320C1386.24 1360 1440 1413.76 1440 1480C1440 1546.24 1386.24 1600 1320 1600M600 560H320V1480C320 1546.24 266.24 1600 200 1600C133.76 1600 80 1546.24 80 1480V440C80 373.76 133.76 320 200 320H600C666.24 320 720 373.76 720 440C720 506.24 666.24 560 600 560M1840 1480V440C1840 373.76 1786.24 320 1720 320C1653.76 320 1600 373.76 1600 440V1480C1600 1546.24 1653.76 1600 1720 1600C1786.24 1600 1840 1546.24 1840 1480" />
    <glyph glyph-name="mark-as-read"
      unicode="&#xEA66;"
      horiz-adv-x="1920" d=" M960 160C1401.828 160 1760 518.172 1760 960S1401.828 1760 960 1760S160 1401.828 160 960S518.172 160 960 160zM960 400C1269.28 400 1520 650.72 1520 960S1269.28 1520 960 1520S400 1269.28 400 960S650.72 400 960 400z" />
    <glyph glyph-name="marker"
      unicode="&#xEA67;"
      horiz-adv-x="1920" d=" M1016.56 103.46L1496.56 583.4540000000002C1512.1599999999999 599.0540000000001 1520 619.5340000000001 1520 640.0140000000001V1760C1520 1804.16 1484.16 1839.999 1440 1839.999H480C435.8400000000001 1839.999 400 1804.159 400 1759.999V640.0129999999999C400 619.5329999999999 407.84 599.0529999999999 423.44 583.453L903.44 103.4589999999998C934.72 72.1789999999999 985.28 72.1789999999999 1016.56 103.4589999999998z" />
    <glyph glyph-name="masquerade"
      unicode="&#xEA68;"
      horiz-adv-x="1920" d=" M1080.904 986.565C1060.209 988.339 1053.183 997.139 1052.904 1018.843C1051.444 1134.3220000000001 1141.634 1242.7730000000001 1256.557 1256.7910000000002C1340.5910000000001 1267.087 1425.217 1272.652 1514.33 1280.757C1510.47 1263.8870000000002 1508.6599999999999 1241.5910000000001 1500.383 1222.009C1420.035 1031.887 1264.904 970.843 1080.904 986.565M807.2 986.565C623.2 970.843 468.0700000000001 1031.8870000000002 387.7220000000001 1222.009C379.4430000000001 1241.591 377.6350000000001 1263.8870000000002 373.7740000000001 1280.757C462.8870000000001 1272.652 547.4780000000001 1267.087 631.548 1256.7910000000002C746.47 1242.774 836.66 1134.321 835.2 1018.843C834.922 997.139 827.8960000000001 988.339 807.2 986.565M1454.365 1794.983C1442.678 1776.0259999999998 1432.695 1755.991 1419.339 1738.287C1383.548 1690.947 1348.626 1643.261 1309.4959999999999 1598.739C1298.504 1586.2169999999999 1276.139 1576.722 1259.617 1578.4959999999999C1185.739 1586.426 1128.904 1558.3909999999998 1095.443 1490.53C1027.687 1519.887 971.583 1497.1039999999998 936.8 1436.165C902.017 1497.105 853.183 1519.887 785.391 1490.53C751.9649999999999 1558.3909999999998 702.3309999999999 1586.426 628.487 1578.4959999999999C611.9649999999999 1576.722 589.5999999999999 1586.2169999999999 578.6089999999999 1598.739C539.4789999999999 1643.261 504.5569999999999 1690.9479999999999 468.7649999999999 1738.2869999999998C455.3739999999999 1755.991 445.426 1776.027 433.7389999999999 1794.983C-86.748 1241.348 294.9569999999999 951.8169999999998 294.9569999999999 951.8169999999998C307.2349999999999 945.209 323.0269999999999 935.5389999999998 326.6429999999999 923.9569999999998C338.6779999999999 885.4169999999999 365.7039999999999 872.7909999999999 401.9479999999999 867.3299999999999C417.0429999999999 865.0699999999999 434.8869999999999 858.1479999999999 444.5569999999999 847.2259999999999C472.4519999999998 815.713 505.2519999999998 808.5829999999999 542.6089999999998 821.4869999999999C565.6689999999998 829.4519999999998 583.8259999999998 827.6429999999998 603.6869999999998 812.896C636.6609999999998 788.4780000000001 671.1649999999997 793.0349999999999 705.7739999999998 812.2349999999999C738.5039999999998 830.4259999999999 771.4439999999997 848.6869999999999 805.7039999999997 863.6429999999998C831.8609999999998 875.0169999999998 849.3909999999997 868.0259999999998 867.4089999999998 842.8089999999997C889.1129999999997 812.3739999999998 902.0169999999998 783.9909999999998 936.7999999999998 748.9299999999998C971.5829999999999 783.9909999999998 991.7569999999998 812.3739999999998 1013.4599999999996 842.8089999999997C1031.4429999999998 868.0259999999998 1052.6259999999997 875.0169999999998 1078.7829999999997 863.6429999999998C1113.0429999999997 848.6869999999999 1147.7569999999996 830.4259999999997 1180.5219999999997 812.2349999999999C1215.1299999999997 793.0349999999999 1250.5389999999998 788.4779999999998 1283.4779999999996 812.895C1303.3739999999996 827.643 1323.4429999999995 829.452 1346.4699999999996 821.4870000000001C1374.2599999999995 811.8870000000002 1388.9739999999995 813.4170000000001 1423.7569999999996 827.7830000000001V200.826C1423.7569999999996 162.566 1455.0609999999997 131.261 1493.3219999999997 131.261C1531.5819999999997 131.261 1562.8869999999997 162.5650000000001 1562.8869999999997 200.826V920.304C1562.8869999999997 921.591 1562.4699999999998 922.634 1562.8519999999996 923.957C1566.4699999999996 935.539 1581.5649999999996 945.209 1593.8429999999996 951.817C1593.8429999999996 951.817 1974.8169999999996 1241.347 1454.3649999999996 1794.9830000000002" />
    <glyph glyph-name="mastery-path"
      unicode="&#xEA69;"
      horiz-adv-x="1920" d=" M1600.459 1062.931L1897 1359.466L1600.459 1656L1487.346 1542.8899999999999L1590.78 1439.459H1383.913C1071.533 1439.459 988.498 1320.3490000000002 915.303 1215.238C849.627 1120.926 792.831 1039.493 503.969 1039.493H24V879.5070000000001H503.97C792.83 879.5070000000001 849.627 798.0740000000001 915.3030000000002 703.7620000000002C988.498 598.6520000000003 1071.5330000000001 479.5420000000001 1383.913 479.5420000000001H1590.78L1487.346 376.1100000000002L1600.46 263L1897 559.5340000000001L1600.459 856.0690000000002L1487.346 742.9590000000003L1590.78 639.5280000000002H1383.913C1155.048 639.5280000000002 1109.53 704.8020000000001 1046.574 795.1940000000002C1008.3370000000002 850.1490000000001 965.3 911.8240000000002 884.2640000000001 959.5000000000002C965.3000000000002 1007.1760000000002 1008.3370000000002 1068.8500000000004 1046.574 1123.8060000000003C1109.53 1214.1980000000003 1155.048 1279.4720000000002 1383.913 1279.4720000000002H1590.78L1487.346 1176.0420000000001L1600.459 1062.9320000000002z" />
    </font>
</defs>
</svg>
