<svg viewBox="0 0 2080 2080" version="1.1" xmlns="http://www.w3.org/2000/svg" height="26pt" width="26pt">
    <path d="M1520 320h240v400h-240V320zm0 480h240v400h-240V800zm-240-640H320c-88.32 0-160 71.6-160 160v1280c0 88.32 71.68 160 160 160h960c88.32 0 160-71.68 160-160V320c0-88.4-71.68-160-160-160zM800 560c88.32 0 160 71.68 160 160s-71.68 160-160 160-160-71.68-160-160 71.6-160 160-160zm-240 640c0-147.28 92.72-240 240-240s240 92.72 240 240H560z" stroke="none" stroke-width="1" fill-rule="evenodd"/>
</svg>
