<svg viewBox="0 0 2160 2160" version="1.1" xmlns="http://www.w3.org/2000/svg" height="18pt" width="18pt">
    <path d="M1528.78 785.776H392.185c-44.814 0-81.185 36.371-81.185 81.186v568.297h162.37V948.147h81.186v487.112c0 44.895 36.37 81.185 81.185 81.185h81.186V1760h162.37v-243.556h162.37V1760h162.371v-243.556h81.186c44.814 0 81.185-36.29 81.185-81.185V948.147h81.185v487.112h162.37V866.962c0-44.896-36.289-81.186-81.184-81.186zM554.637 623.325c0 44.895 36.371 81.185 81.185 81.185h649.483c44.814 0 81.185-36.29 81.185-81.185 0-82.566-25.086-159.286-67.627-223.422l125.025-125.026L1309.092 160l-125.025 125.025c-64.218-42.46-140.938-67.546-223.585-67.546-82.646 0-159.285 25.168-223.503 67.628L611.954 160.08 497.158 274.877l125.025 125.026c-42.46 64.136-67.546 140.856-67.546 223.422z" stroke="none" stroke-width="1" fill-rule="evenodd"/>
</svg>
