<svg viewBox="0 0 2000 2000" version="1.1" xmlns="http://www.w3.org/2000/svg" height="50pt" width="50pt">
    <path d="M1476.17 1015.164c-2.363-222.864 195.357-329.786 204.183-335.14-111.114-151.289-284.169-172.043-345.794-174.39-147.285-13.86-287.4 80.669-362.106 80.669-74.55 0-189.92-78.615-312.066-76.562-160.525 2.2-308.52 86.829-391.185 220.665-166.83 269.358-42.712 668.299 119.861 886.763 79.435 106.922 174.158 227.044 298.511 222.717 119.783-4.473 165.017-72.088 309.86-72.088 144.842 0 185.505 72.088 312.223 69.888 128.845-2.2 210.487-108.975 289.37-216.19 91.256-124.01 128.766-244.132 130.973-250.292-2.837-1.246-251.307-89.761-253.83-356.04zm-238.146-654.072c66.038-74.508 110.562-177.91 98.426-281.092-95.117 3.593-210.329 58.961-278.573 133.323-61.231 65.927-114.818 171.236-100.397 272.291 106.15 7.7 214.506-50.16 280.544-124.522z" stroke="none" stroke-width="1" fill-rule="evenodd"/>
</svg>
