<svg viewBox="0 0 2160 2160" version="1.1" xmlns="http://www.w3.org/2000/svg" height="18pt" width="18pt">
    <path d="M960 120c-220.96 0-400 179.04-400 400 0 220.88 179.04 400 400 400s400-179.12 400-400c0-220.96-179.04-400-400-400zm-210.8 918.56l40.16 601.76C795.2 1728.16 872 1800 960 1800c88 0 164.8-71.84 170.64-159.68l40.16-601.76c-65.12 26.48-136.16 41.44-210.8 41.44-74.64 0-145.68-14.96-210.8-41.44zM1040 1320c0 44.16-35.84 80-80 80s-80-35.84-80-80 35.84-80 80-80 80 35.84 80 80z" stroke="none" stroke-width="1" fill-rule="evenodd"/>
</svg>
