<svg viewBox="0 0 2080 2080" version="1.1" xmlns="http://www.w3.org/2000/svg" height="26pt" width="26pt">
    <path d="M398 0H78C33.84 0-2 35.84-2 80v320c0 44.16 35.84 80 80 80h320c44.16 0 80-35.84 80-80V80c0-44.16-35.84-80-80-80zm1440 0h-320c-44.16 0-80 35.84-80 80v320c0 44.16 35.84 80 80 80h320c44.16 0 80-35.84 80-80V80c0-44.16-35.84-80-80-80zM398 1440H78c-44.16 0-80 35.84-80 80v320c0 44.16 35.84 80 80 80h320c44.16 0 80-35.84 80-80v-320c0-44.16-35.84-80-80-80zm1440 0h-320c-44.16 0-80 35.84-80 80v320c0 44.16 35.84 80 80 80h320c44.16 0 80-35.84 80-80v-320c0-44.16-35.84-80-80-80zm-1680-80h160V560H158v800zM558 320h800V160H558v160zm1040 1040h160V560h-160v800zM558 1760h800v-160H558v160z" stroke="none" stroke-width="1" fill-rule="evenodd"/>
</svg>
