<svg viewBox="0 0 2160 2160" version="1.1" xmlns="http://www.w3.org/2000/svg" height="18pt" width="18pt">
    <path d="M1594.96 1252.88l-400 453.36c-17.6 19.92-42.4 32-68.88 33.6-2.08.08-4.08.16-6.08.16-24.48 0-48.08-8.88-66.48-25.28l-240-213.28c-41.28-36.72-44.96-99.92-8.32-141.2 36.8-41.36 100.16-44.96 141.2-8.24l164.96 146.64 333.6-378.08c36.56-41.52 99.6-45.44 141.2-8.88 41.36 36.56 45.36 99.76 8.8 141.2m4.96-932.88H1480V120c0-66.24-53.76-120-120.08-120C1293.68 0 1240 53.76 1240 120v200H679.92V120c0-66.24-53.68-120-120-120-66.24 0-120 53.76-120 120v200h-120C231.6 320 160 391.68 160 480v1280c0 88.4 71.6 160 159.92 160h1280c88.4 0 160.08-71.6 160.08-160V480c0-88.32-71.68-160-160.08-160" stroke="none" stroke-width="1" fill-rule="evenodd"/>
</svg>
