<svg viewBox="0 0 2000 2000" version="1.1" xmlns="http://www.w3.org/2000/svg" height="50pt" width="50pt">
    <path d="M1600 400h-80V160h-160v400h-80V400H720V160H560v400h-80V400H320c-88.24 0-160 71.84-160 160v1040c0 88.24 71.76 160 160 160h1280c88.24 0 160-71.76 160-160V560c0-88.16-71.76-160-160-160zm-469.6 457.2v52c0 14.667-1.6 26.533-4.8 35.6-3.2 9.067-6.267 16.8-9.2 23.2l-203.6 431.2c-5.333 11.467-13.2 21.133-23.6 29-10.4 7.867-24.133 11.8-41.2 11.8h-90.4l208-417.2c5.6-11.467 11.667-21.733 18.2-30.8a263.685 263.685 0 0 1 21.4-26H748.8c-3.733 0-7.267-.733-10.6-2.2a28.638 28.638 0 0 1-8.8-6c-2.533-2.533-4.6-5.467-6.2-8.8-1.6-3.333-2.4-6.733-2.4-10.2v-81.6h409.6z" stroke="none" stroke-width="1" fill-rule="evenodd"/>
</svg>
