<svg viewBox="0 0 2080 2080" version="1.1" xmlns="http://www.w3.org/2000/svg" height="26pt" width="26pt">
    <path d="M1280 1240h320V920h-320v320zm0 480h320v-320h-320v320zm-480-480h320V920H800v320zm0 480h320v-320H800v320zm-480 0h320v-320H320v320zM1600 320h-120V120c0-66.32-53.76-120-120-120-66.24 0-120 53.68-120 120v200H680V120C680 53.68 626.24 0 560 0c-66.24 0-120 53.68-120 120v200H320c-88.4 0-160 71.6-160 160v1280c0 88.4 71.6 160 160 160h1280c88.4 0 160-71.6 160-160V480c0-88.4-71.6-160-160-160z" stroke="none" stroke-width="1" fill-rule="evenodd"/>
</svg>
