<svg viewBox="0 0 2000 2000" version="1.1" xmlns="http://www.w3.org/2000/svg" height="50pt" width="50pt">
    <path d="M1560 240V0H120v1760h240V240h1200zM863.44 696.56L966.88 800H680V400H520v480c0 44.16 35.84 80 80 80h366.88l-103.44 103.44 113.12 113.12L1273.12 880 976.56 583.44 863.44 696.56zM631.393 400H520v88.081A562.42 562.42 0 0 1 631.393 400zm577.214 0H1800v1520H520v-648.081C621.641 1375.643 763.305 1440 920 1440c309.28 0 560-250.72 560-560 0-203.706-108.767-382.008-271.393-480z" stroke="none" stroke-width="1" fill-rule="evenodd"/>
</svg>
