<svg viewBox="0 0 2080 2080" version="1.1" xmlns="http://www.w3.org/2000/svg" height="26pt" width="26pt">
    <path d="M1480.004 480.026H960.01V240.031c0-32.32-19.52-61.519-49.36-73.918-30.08-12.4-64.319-5.6-87.198 17.36L103.46 903.457c-31.28 31.279-31.28 81.838 0 113.117l719.992 719.985A80.027 80.027 0 0 0 880.01 1760c10.32 0 20.72-2 30.64-6.08 29.84-12.4 49.359-41.599 49.359-73.918v-239.995H1759.997c44.195 0 80.003-35.814 80.003-79.991V560.017c0-44.183-35.818-79.99-80.003-79.99h-279.993z" stroke="none" stroke-width="1" fill-rule="evenodd"/>
</svg>
