<svg viewBox="0 0 2080 2080" version="1.1" xmlns="http://www.w3.org/2000/svg" height="26pt" width="26pt">
    <path d="M1800 1169.23c0 259.97-211.47 470.77-472.71 470.77H435c-177.765-25.526-315-181.822-315-366.154 0-147.298 87.78-273.464 213.675-331.526-1.47-11.926-3.675-23.643-3.675-35.988 0-173.243 140.91-313.846 314.895-313.846 40.215 0 78.225 8.16 113.61 21.865C797.565 423.637 966.72 280 1169.895 280 1402.155 280 1590 467.366 1590 698.462c0 25.84-3.045 50.843-7.56 75.427 130.62 83.797 217.56 229.108 217.56 395.342zm-423.44-65.79L1000 1480l-376.56-376.56 113.12-113.12L920 1173.76V726.8h160v446.96l183.44-183.44 113.12 113.12z" stroke="none" stroke-width="1" fill-rule="evenodd"/>
</svg>
