<svg viewBox="0 0 2160 2160" version="1.1" xmlns="http://www.w3.org/2000/svg" height="18pt" width="18pt">
    <path d="M1490.22 634.72l-204.88-204.88 204.88-204.96 204.88 204.96-204.88 204.88zM235.18 1684.88l128.08-332.96 204.88 204.88-332.96 128.08zm1562.4-1357.52L1592.7 122.48c-56.64-56.64-148.32-56.64-204.96 0l-1097.6 1097.6c-19.2 19.2-32.64 43.36-38.72 69.84L81.9 1751.198c-12 52.16 34.72 98.96 86.88 86.88l461.28-169.44c26.48-6.16 50.72-19.6 69.92-38.8l1097.6-1097.6c56.56-56.56 56.56-148.32 0-204.88z" stroke="none" stroke-width="1" fill-rule="evenodd"/>
</svg>
