<svg viewBox="0 0 2160 2160" version="1.1" xmlns="http://www.w3.org/2000/svg" height="18pt" width="18pt">
    <g stroke="none" stroke-width="1" fill-rule="evenodd" transform="translate(120 120)">
        <path d="M960 1249.714c-160.052 0-289.818-129.647-289.818-289.714S799.948 670.286 960 670.286 1249.818 799.933 1249.818 960 1120.052 1249.714 960 1249.714M960 453c-460.231 0-797 507-797 507s336.769 507 797 507 797-507 797-507-336.769-507-797-507"/>
        <path d="M960 815.143c-79.99 0-144.91 64.823-144.91 144.857s64.92 144.857 144.91 144.857 144.91-64.823 144.91-144.857S1039.99 815.143 960 815.143"/>
    </g>
</svg>
