<svg viewBox="0 0 2160 2160" version="1.1" xmlns="http://www.w3.org/2000/svg" height="18pt" width="18pt">
    <g stroke="none" stroke-width="1" fill-rule="evenodd" transform="translate(120 120)">
        <path d="M960 163c440.183 0 797 356.817 797 797s-356.817 797-797 797-797-356.817-797-797 356.817-797 797-797zm0 159.4c352.141 0 637.6 285.459 637.6 637.6s-285.459 637.6-637.6 637.6S322.4 1312.141 322.4 960 607.859 322.4 960 322.4z"/>
        <path d="M1106.648 817.417v252.277h63.973c38.92 0 67.134-11.424 84.694-34.377 17.534-22.901 26.301-53.453 26.301-91.762s-8.767-68.887-26.3-91.814c-17.535-22.848-46.227-34.271-86.077-34.271l-62.618-.08.027.027zm-109.72 343.32V726.374h170.876c70.136 0 125.183 17.72 165.086 53.213 39.797 35.493 59.722 90.14 59.722 163.916 0 73.855-19.925 128.53-59.722 163.97-39.903 35.493-94.923 53.24-165.086 53.24H996.981l-.053.026zm-301.665-353.15v131.77h93.94c22.768 0 39.85-6.375 51.274-18.968 11.423-12.593 17.109-28.267 17.109-46.97 0-43.914-23.725-65.885-71.2-65.885h-91.07l-.053.053zm-109.587 353.15V726.374H804.85c108.126 0 162.242 48.989 162.242 147.1 0 16.843-2.603 32.942-7.81 48.35-5.207 15.41-14.24 30.818-27.045 46.28-12.805 15.408-32.013 28.028-57.65 37.83-25.584 9.75-55.95 14.692-91.044 14.692h-86.82v140.113H585.676z"/>
    </g>
</svg>
