<svg viewBox="0 0 2000 2000" version="1.1" xmlns="http://www.w3.org/2000/svg" height="50pt" width="50pt">
    <g stroke="none" stroke-width="1" fill-rule="evenodd" transform="translate(40 40)">
        <path d="M402.333 1757H243V163h159.333zM641.333 358.751v564.914l734.049-282.457-734.049-282.457zm-79.666 760.657c-15.854 0-31.628-4.782-45.092-14.027-21.669-14.824-34.575-39.372-34.575-65.673v-797c0-26.301 12.906-50.849 34.575-65.673 21.67-14.904 49.234-18.092 73.692-8.767l1035.667 398.5c30.751 11.875 51.066 41.444 51.066 74.44 0 32.996-20.315 62.564-51.066 74.44l-1035.667 398.5c-9.241 3.427-18.96 5.26-28.6 5.26z"/>
    </g>
</svg>
