<svg viewBox="0 0 2000 2000" version="1.1" xmlns="http://www.w3.org/2000/svg" height="50pt" width="50pt">
    <path d="M439.993 480.026h519.989V240.031c0-32.32 19.52-61.519 49.359-73.918 30.08-12.4 64.319-5.6 87.198 17.36l719.985 719.985c31.28 31.279 31.28 81.838 0 113.117L1096.54 1736.56a80.026 80.026 0 0 1-56.559 23.44c-10.32 0-20.72-2-30.639-6.08-29.84-12.4-49.359-41.599-49.359-73.918v-239.995H81.002a.998.998 0 0 1-1.002-1.005v-957.97a.999.999 0 0 1 1.002-1.006h358.99z" stroke="none" stroke-width="1" fill-rule="evenodd"/>
</svg>
