<svg viewBox="0 0 2000 2000" version="1.1" xmlns="http://www.w3.org/2000/svg" height="50pt" width="50pt">
    <path d="M391.447 960c0 115.723-90.566 216.352-201.258 226.415C170.063 1110.943 160 1035.472 160 960c0-75.472 10.063-155.975 30.189-226.415C305.912 743.648 391.447 844.277 391.447 960zm135.849-70.44c38.893 0 70.44 31.547 70.44 70.44s-31.547 70.44-70.44 70.44-70.44-31.547-70.44-70.44 31.547-70.44 70.44-70.44zm75.471 322.012c-30.188 30.189-30.188 75.472 0 100.63 30.189 25.156 75.472 30.188 100.63 0 30.188-30.19 30.188-75.472 0-100.63-25.158-25.157-75.472-25.157-100.63 0zm-45.283 145.912c-80.503-80.503-211.32-90.566-306.918-20.126 80.503 135.85 191.195 246.541 322.013 322.013 75.471-85.535 65.408-216.352-15.095-301.887zm45.283-759.748c-30.188 30.189-30.188 75.472 0 100.629 30.189 25.157 75.472 30.188 100.63 0 30.188-30.189 25.156-75.472 0-100.63-30.19-25.156-75.472-25.156-100.63 0zm603.774 618.868c-30.189 25.157-30.189 70.44-5.032 100.629 25.158 30.188 70.44 30.188 100.63 5.031 0 0 5.03 0 5.03-5.031 25.158-30.189 25.158-75.472-5.03-100.63-25.158-25.156-65.41-25.156-95.598 0zm110.692-513.208c25.157-30.188 25.157-75.471-5.032-100.629-25.157-25.157-70.44-25.157-95.597 0-25.157 30.189-25.157 75.472 5.031 100.63 25.157 25.156 65.409 25.156 95.598 0zm40.251-145.912c80.503 80.503 211.321 90.566 306.919 20.126-80.504-135.849-191.195-246.54-322.013-322.013-75.472 90.567-65.409 221.384 15.094 301.887zm-800 0c85.535-80.503 90.566-211.32 20.126-301.887C441.761 331.07 331.07 441.761 255.597 577.61c90.567 70.44 221.384 60.377 301.887-20.126zm800 800c-80.503 80.503-90.566 211.321-20.126 306.919 135.85-80.504 246.541-191.195 322.013-322.013-85.535-75.472-216.352-65.409-301.887 15.094zM960 456.855c-40.252 0-70.44 30.189-70.44 70.44 0 40.252 30.188 70.44 70.44 70.44 40.252 0 70.44-35.22 70.44-75.47 0-35.221-35.22-65.41-70.44-65.41zm0-65.408c115.723 0 216.352-90.566 231.447-201.258C1115.975 170.063 1040.503 160 960 160c-80.503 0-155.975 10.063-231.447 30.189C743.648 305.912 844.277 391.447 960 391.447zm0 930.817c-40.252 0-75.472 30.189-75.472 70.44 0 40.252 30.189 75.472 70.44 75.472H960c40.252 0 70.44-35.22 70.44-75.472-5.031-40.251-35.22-70.44-70.44-70.44zm0 206.29c-115.723 0-216.352 85.534-226.415 201.257C809.057 1749.937 884.528 1760 960 1760c75.472 0 155.975-10.063 226.415-30.189-15.094-115.723-110.692-201.258-226.415-201.258zm432.704-644.026c-40.251 0-70.44 30.189-70.44 70.44 0 40.252 30.189 70.44 70.44 70.44 40.252 0 70.44-30.188 70.44-70.44 0-35.22-30.188-70.44-70.44-70.44zM1528.554 960c0 115.723 90.565 216.352 201.257 226.415C1749.937 1110.943 1760 1035.472 1760 960c0-75.472-10.063-155.975-30.189-226.415-115.723 10.063-201.258 110.692-201.258 226.415z" stroke="none" stroke-width="1" fill-rule="evenodd"/>
</svg>
