<svg viewBox="0 0 2160 2160" version="1.1" xmlns="http://www.w3.org/2000/svg" height="18pt" width="18pt">
    <path d="M1861.437 668.72c-15.2-18.16-37.68-28.72-61.44-28.72h-479.999V320c0-44.16-35.76-80-80-80h-240c-32 0-60.96 19.04-73.52 48.4L680 800v758.24l290.32 116.08c9.36 3.76 19.52 5.68 29.68 5.68h639.999c38.64 0 71.76-27.68 78.72-65.68l160-880c4.24-23.36-2.16-47.36-17.28-65.6M519.998 800v800c0 44.16-35.76 80-80 80H120C75.76 1680 40 1644.16 40 1600V800c0-44.16 35.76-80 80-80h320c44.24 0 80 35.84 80 80" stroke="none" stroke-width="1" fill-rule="evenodd"/>
</svg>
