<svg viewBox="0 0 2160 2160" version="1.1" xmlns="http://www.w3.org/2000/svg" height="18pt" width="18pt">
    <path d="M1560 1546.96h-257.36v-414.04c0-104-37.2-174.96-130.2-174.96-71.08 0-113.44 47.84-131.96 94.08-6.8 16.48-8.52 39.6-8.52 62.72v432.08H774.72s3.44-701.2 0-773.84h257.24v109.72c34.24-52.72 95.32-127.84 231.88-127.84 169.24 0 296.16 110.64 296.16 348.28v443.8zM503.84 667.44h-1.72C415.8 667.44 360 607.92 360 533.68 360 457.76 417.52 400 505.52 400s142.12 57.76 143.84 133.68c0 74.28-55.84 133.76-145.52 133.76zm128.6 879.52H375.2V773.12h257.24v773.84zM1600 160H320c-88.36 0-160 71.64-160 160v1280c0 88.36 71.64 160 160 160h1280c88.36 0 160-71.64 160-160V320c0-88.36-71.64-160-160-160z" stroke="none" stroke-width="1" fill-rule="evenodd"/>
</svg>
