<svg viewBox="0 0 2160 2160" version="1.1" xmlns="http://www.w3.org/2000/svg" height="18pt" width="18pt">
    <path d="M1200 880H720V560c0-132.32 107.68-240 240-240s240 107.68 240 240v320zm-240 560c-66.24 0-120-53.76-120-120 0-66.24 53.76-120 120-120 66.24 0 120 53.76 120 120 0 66.24-53.76 120-120 120zm400-560V560c0-220.56-179.44-400-400-400S560 339.44 560 560v320c-88.24 0-160 71.68-160 160v560c0 88.24 71.76 160 160 160h800c88.24 0 160-71.76 160-160v-560c0-88.32-71.76-160-160-160z" stroke="none" stroke-width="1" fill-rule="evenodd"/>
</svg>
