<svg viewBox="0 0 2160 2160" version="1.1" xmlns="http://www.w3.org/2000/svg" height="18pt" width="18pt">
    <path d="M1600.459 857.069L1897 560.534 1600.459 264l-113.113 113.11 103.434 103.431h-206.867c-312.38 0-395.415 119.11-468.61 224.221-65.676 94.312-122.472 175.745-411.334 175.745H24v159.986h479.97c288.86 0 345.657 81.433 411.333 175.745 73.195 105.11 156.23 224.22 468.61 224.22h206.867l-103.434 103.432L1600.46 1657 1897 1360.466l-296.541-296.535-113.113 113.11 103.434 103.431h-206.867c-228.865 0-274.383-65.274-337.339-155.666-38.237-54.955-81.274-116.63-162.31-164.306 81.036-47.676 124.073-109.35 162.31-164.306 62.956-90.392 108.474-155.666 337.339-155.666h206.867l-103.434 103.43 113.113 113.11z" stroke="none" stroke-width="1" fill-rule="evenodd"/>
</svg>
