<svg viewBox="0 0 2080 2080" version="1.1" xmlns="http://www.w3.org/2000/svg" height="26pt" width="26pt">
    <g stroke="none" stroke-width="1" fill-rule="evenodd" transform="translate(80 80)">
        <path d="M1709.682 571.07l-717.3-318.738a79.798 79.798 0 0 0-64.796 0L210.366 571.07c-28.772 12.75-47.342 41.277-47.342 72.752 0 31.555 18.57 60.082 47.342 72.831l717.22 318.737c10.361 4.542 21.44 6.853 32.438 6.853 10.999 0 22.077-2.31 32.358-6.853l717.3-318.737c28.772-12.75 47.342-41.276 47.342-72.831 0-31.475-18.57-60.002-47.342-72.752"/>
        <path d="M1757 831.756L958.565 1194.48 163 863.072v172.516l766.316 319.375c9.803 4.223 20.243 6.056 30.684 6.056 11.238 0 22.475-2.311 32.916-6.933L1757 1006.822V831.756z"/>
        <path d="M1757 1150.493l-798.435 362.723L163 1181.809v172.516L929.316 1673.7c9.803 4.223 20.243 6.056 30.684 6.056 11.238 0 22.475-2.311 32.916-6.933L1757 1325.56v-175.066z"/>
    </g>
</svg>
