<svg viewBox="0 0 2160 2160" version="1.1" xmlns="http://www.w3.org/2000/svg" height="18pt" width="18pt">
    <g stroke="none" stroke-width="1" fill-rule="evenodd" transform="translate(120 120)">
        <path d="M982.111 517.222c-97.82 0-176.889-79.346-176.889-177.11 0-97.855 79.07-177.112 176.89-177.112 97.73 0 176.888 79.257 176.888 177.111 0 97.765-79.158 177.111-176.889 177.111M982.111 1137.111c-97.82 0-176.889-79.346-176.889-177.111 0-97.854 79.07-177.111 176.89-177.111 97.73 0 176.888 79.257 176.888 177.111 0 97.765-79.158 177.111-176.889 177.111M982.111 1757c-97.82 0-176.889-79.346-176.889-177.111 0-97.854 79.07-177.111 176.89-177.111 97.73 0 176.888 79.257 176.888 177.11 0 97.766-79.158 177.112-176.889 177.112"/>
    </g>
</svg>
