<svg viewBox="0 0 2080 2080" version="1.1" xmlns="http://www.w3.org/2000/svg" height="26pt" width="26pt">
    <path d="M320 1120h80c44.08 0 80-35.84 80-80s-35.92-80-80-80h-80v160zm0 320H160V800h240c132.32 0 240 107.68 240 240s-107.68 240-240 240h-80v160zm1440-480V800h-320c-88.24 0-160 71.84-160 160v480h160v-240h240v-160h-240v-80h320zm-880 0v320c88.24 0 160-71.76 160-160 0-88.16-71.76-160-160-160zm0-160c176.48 0 320 143.52 320 320s-143.52 320-320 320H720V800h160zm640 880H400v-80H240v80c0 88.24 71.76 160 160 160h1120c88.24 0 160-71.76 160-160v-80h-160v80zM400 640H240V240c0-88.16 71.76-160 160-160h913.12L1680 446.88V640h-160v-80h-320V240H400v400z" stroke="none" stroke-width="1" fill-rule="evenodd"/>
</svg>
