<svg viewBox="0 0 2000 2000" version="1.1" xmlns="http://www.w3.org/2000/svg" height="50pt" width="50pt">
    <path d="M960 1760c441.828 0 800-358.172 800-800s-358.172-800-800-800-800 358.172-800 800 358.172 800 800 800zm0-145.455c361.495 0 654.545-293.05 654.545-654.545 0-361.495-293.05-654.545-654.545-654.545-361.495 0-654.545 293.05-654.545 654.545 0 361.495 293.05 654.545 654.545 654.545zm319.2-834.523h-145.432v235.84L692.225 574.319 589.373 677.17l441.543 441.543H795.077v145.432h484.124V780.022z" stroke="none" stroke-width="1" fill-rule="evenodd"/>
</svg>
