<svg viewBox="0 0 2000 2000" version="1.1" xmlns="http://www.w3.org/2000/svg" height="50pt" width="50pt">
    <path d="M508.03 508.094C625.875 389.769 786.2 320.006 959.968 320.006c352.974 0 640.026 287.132 640.026 640.026H1760C1760 518.894 1401.186 160 959.968 160c-217.209 0-417.617 87.123-564.983 235.05L239.94 240.002v480.02h480.02l-211.93-211.93zm903.94 903.94c-117.845 118.325-278.171 188.088-451.938 188.088-352.974 0-640.026-287.132-640.026-640.026H160c0 441.138 358.814 800.032 800.032 800.032 217.209 0 417.617-87.123 564.983-235.13l155.046 155.127v-480.02h-480.02l211.93 211.93z" stroke="none" stroke-width="1" fill-rule="evenodd"/>
</svg>
