<svg viewBox="0 0 2000 2000" version="1.1" xmlns="http://www.w3.org/2000/svg" height="50pt" width="50pt">
    <path d="M1479.991 480.026H960.002V240.031c0-32.32-19.52-61.519-49.359-73.918-30.08-12.4-64.319-5.6-87.198 17.36L103.46 903.457c-31.28 31.279-31.28 81.838 0 113.117l719.985 719.985a80.026 80.026 0 0 0 56.559 23.44c10.32 0 20.72-2 30.639-6.08 29.84-12.4 49.359-41.599 49.359-73.918v-239.995h878.98a.998.998 0 0 0 1.002-1.005v-957.97a.999.999 0 0 0-1.002-1.006h-358.99z" stroke="none" stroke-width="1" fill-rule="evenodd"/>
</svg>
