<svg viewBox="0 0 2160 2160" version="1.1" xmlns="http://www.w3.org/2000/svg" height="18pt" width="18pt">
    <path d="M1760.133 828.605c0-1.101-.9-1.994-1.993-1.994h-144.928c-17.332-85.06-51.329-163.853-97.725-233.847l103.107-103.107c.783-.783.79-2.045.009-2.826l-185.7-185.568a1.995 1.995 0 0 0-2.829.01L1326.836 404.38c-69.86-46.263-148.654-80.26-233.447-97.459V161.993a1.99 1.99 0 0 0-1.993-1.993H828.737c-1.1 0-1.993.9-1.993 1.993v144.928c-84.926 17.199-163.853 51.196-233.713 97.459L490.056 301.405a1.994 1.994 0 0 0-2.826-.007L301.53 487.23c-.777.779-.769 2.05.008 2.827L404.513 593.03c-46.396 69.727-80.26 148.654-97.592 233.58H161.993a1.99 1.99 0 0 0-1.993 1.993v262.659c0 1.1.9 1.993 1.993 1.993h144.928c17.332 85.06 51.196 163.853 97.592 233.847l-103.107 103.106a1.996 1.996 0 0 0-.008 2.827l185.831 185.7a1.99 1.99 0 0 0 2.827-.01l102.975-103.239c69.994 46.396 148.787 80.393 233.713 97.592v144.928c0 1.1.888 1.993 1.993 1.993h262.659c1.1 0 1.993-.9 1.993-1.993v-144.928c84.926-17.332 163.853-51.196 233.714-97.725l103.106 103.106c.783.783 2.045.79 2.826.01l185.569-185.7a2.002 2.002 0 0 0-.01-2.826l-103.107-102.975c46.263-69.86 80.26-148.654 97.459-233.58h145.19a1.992 1.992 0 0 0 1.997-1.994v-262.79zM959.978 1293.34c-184.182 0-333.361-149.346-333.361-333.361 0-184.016 149.179-333.361 333.36-333.361 184.016 0 333.362 149.345 333.362 333.36 0 184.016-149.346 333.362-333.361 333.362z" stroke="none" stroke-width="1" fill-rule="evenodd"/>
</svg>
