<svg viewBox="0 0 2080 2080" version="1.1" xmlns="http://www.w3.org/2000/svg" height="26pt" width="26pt">
    <path d="M960 160c-441.8 0-800 358.2-800 800s358.2 800 800 800c441.85 0 800-358.2 800-800s-358.15-800-800-800zm0 1400c-314.5 0-572-242.1-597.5-550H560V910H362.5A596.35 596.35 0 0 1 489 589l152.8 152.85 70.7-70.7-155-155.1A596.5 596.5 0 0 1 910 362.5V560h100V362.5a597 597 0 0 1 358.25 158.7l-515.2 336.5-114.6 328.9 319.2-124.4 342-509.5A596.7 596.7 0 0 1 1557.5 910H1360v100h197.5c-25.5 307.9-283 550-597.5 550z" stroke="none" stroke-width="1" fill-rule="evenodd"/>
</svg>
