<svg viewBox="0 0 2080 2080" version="1.1" xmlns="http://www.w3.org/2000/svg" height="26pt" width="26pt">
    <path d="M1678 880H238v160h720c132.32 0 240 107.68 240 240s-107.68 240-240 240H718v-80H558v160c0 44.16 35.84 80 80 80h320c220.56 0 400-179.44 400-400 0-90.4-31.28-172.96-82-240h402V880zM732.768 720c-8.96-25.12-14.8-51.76-14.8-80 0-132.32 107.68-240 240-240h160v80h160V320c0-44.16-35.76-80-80-80h-240c-220.48 0-400 179.44-400 400 0 27.36 2.88 54.16 8.16 80h166.64z" stroke="none" stroke-width="1" fill-rule="evenodd"/>
</svg>
