<svg viewBox="0 0 2160 2160" version="1.1" xmlns="http://www.w3.org/2000/svg" height="18pt" width="18pt">
    <path d="M559.995 719.993c-88.479 0-159.998-71.76-159.998-159.998 0-88.399 71.52-159.998 159.998-159.998 88.319 0 159.998 71.6 159.998 159.998 0 88.239-71.68 159.998-159.998 159.998m1176.545 343.436l-879.989-879.99A79.926 79.926 0 0 0 799.992 160H239.999C195.839 160 160 195.84 160 239.999v559.993c0 21.2 8.48 41.6 23.44 56.56l879.989 879.988c15.6 15.6 36.08 23.44 56.559 23.44 20.48 0 40.96-7.84 56.56-23.44l559.992-559.993c31.28-31.28 31.28-81.839 0-113.118" stroke="none" stroke-width="1" fill-rule="evenodd"/>
</svg>
