<svg viewBox="0 0 2000 2000" version="1.1" xmlns="http://www.w3.org/2000/svg" height="50pt" width="50pt">
    <path d="M960 0c-82.96 0-163.12 11.68-240 31.6v165.28C795.84 173.04 876.4 160 960 160c441.2 0 800 358.88 800 800s-358.8 800-800 800c-441.12 0-800-358.88-800-800 0-223.04 92.16-424.48 240-569.52V640h160V160H80v160h166.32C93.6 490 0 714 0 960c0 529.36 430.72 960 960 960 529.36 0 960-430.64 960-960S1489.36 0 960 0zm-80 400v560c0 21.2 8.4 41.6 23.44 56.64l320 320 113.12-113.2L1040 926.88V400H880z" stroke="none" stroke-width="1" fill-rule="evenodd"/>
</svg>
