<svg viewBox="0 0 2000 2000" version="1.1" xmlns="http://www.w3.org/2000/svg" height="50pt" width="50pt">
    <path d="M320 320h400V160H320c-88.24 0-160 71.76-160 160v1280c0 88.24 71.76 160 160 160h400v-160H320V320zm1040-160h-160v160h160V160zm-160 1600h160v-160h-160v160zm400-1600h-80v160h80v80h160v-80c0-88.24-71.76-160-160-160zm0 1440h-80v160h80c88.24 0 160-71.76 160-160v-80h-160v80zm0-880h160V560h-160v160zm0 640h160v-160h-160v160zm0-320h160V880h-160v160zm-536.56-343.44L1166.88 800H880c-176.48 0-320 143.52-320 320h160c0-88.24 71.76-160 160-160h286.88l-103.44 103.44 113.12 113.12L1473.12 880l-296.56-296.56-113.12 113.12zM1040 160H880v400h160V160zM880 1760h160v-560H880v560z" stroke="none" stroke-width="1" fill-rule="evenodd"/>
</svg>
