<svg viewBox="0 0 2080 2080" version="1.1" xmlns="http://www.w3.org/2000/svg" height="26pt" width="26pt">
    <path d="M1600 160h-400v160h400v1280h-400v160h400c88.24 0 160-71.76 160-160V320c0-88.24-71.76-160-160-160zm-880 0H560v160h160V160zM560 1760h160v-160H560v160zM160 320v80h160v-80h80V160h-80c-88.24 0-160 71.76-160 160zm160 1200H160v80c0 88.24 71.76 160 160 160h80v-160h-80v-80zm0-960H160v160h160V560zm0 640H160v160h160v-160zm0-320H160v160h160V880zm1040 240c0-176.48-143.52-320-320-320H753.12l103.44-103.44-113.12-113.12L446.88 880l296.56 296.56 113.12-113.12L753.12 960H1040c88.24 0 160 71.76 160 160h160zm-320-960H880v400h160V160zM880 1760h160v-560H880v560z" stroke="none" stroke-width="1" fill-rule="evenodd"/>
</svg>
