<svg viewBox="0 0 2000 2000" version="1.1" xmlns="http://www.w3.org/2000/svg" height="50pt" width="50pt">
    <path d="M80 182.995C80 127.77 124.774 83 180.007 83h1559.986C1795.225 83 1840 127.771 1840 182.995v1483.488c0 55.226-44.774 99.995-100.007 99.995H180.007c-55.232 0-100.007-44.771-100.007-99.995V182.995zm1490.75 363.656a502.195 502.195 0 0 1-143.607 39.22c52.197-31.14 91.262-80.096 109.933-137.764a502.208 502.208 0 0 1-158.844 60.424c-47.276-50.186-113.32-78.625-182.423-78.554-66.33-.01-129.947 26.22-176.854 72.92-46.906 46.7-73.258 110.044-73.258 176.093 0 19.535 2.209 38.538 6.475 56.745-201.12-10.033-388.501-104.63-515.5-260.242a247.108 247.108 0 0 0-33.902 125.17c-.058 83.288 41.715 161.086 111.305 207.291a249.933 249.933 0 0 1-113.286-31.103v3.11c.008 118.532 83.885 220.644 200.555 244.16a251.605 251.605 0 0 1-112.905 4.248c32.723 101.463 126.617 170.978 233.619 172.963-88.6 69.237-198.015 106.78-310.641 106.584a507.848 507.848 0 0 1-59.652-3.527c114.333 73.174 247.408 112.02 383.32 111.895 460 0 711.56-379.457 711.56-708.542 0-10.81-.266-21.545-.761-32.241a507.23 507.23 0 0 0 124.866-128.812v-.038z" stroke="none" stroke-width="1" fill-rule="evenodd"/>
</svg>
