<svg viewBox="0 0 2080 2080" version="1.1" xmlns="http://www.w3.org/2000/svg" height="26pt" width="26pt">
    <path d="M576.077 1382.4c-3.38-25.19-5.683-50.688-5.683-76.8 0-339.302 294.681-614.4 658.252-614.4 159.053 0 304.896 52.685 418.714 140.314 2.458-20.89 3.686-42.087 3.686-63.514 0-338.765-310.118-614.4-691.2-614.4-381.081 0-691.2 275.635-691.2 614.4 0 116.352 35.943 227.251 104.448 324.48L83.251 1382.4h492.826zm1110.374 106.675c27.187-57.677 41.319-120.269 41.319-183.475 0-254.131-223.95-460.8-499.2-460.8-275.252 0-499.2 206.669-499.2 460.8s223.948 460.8 499.2 460.8h642.662l-184.78-277.325z" stroke="none" stroke-width="1" fill-rule="evenodd"/>
</svg>
