<svg viewBox="0 0 2000 2000" version="1.1" xmlns="http://www.w3.org/2000/svg" height="50pt" width="50pt">
    <path d="M1520 845.714h62.008c35.341 0 63.992 28.652 63.992 63.996v786.295c0 35.345-28.655 63.995-64.002 63.995H339.002c-35.347 0-64.002-28.652-64.002-63.995V909.71c0-35.345 28.65-63.996 63.992-63.996H503.5V617.143C503.5 365.714 709.15 160 960.5 160c205.47 0 380.4 137.467 437.416 325h-249.92c-40.997-58.679-109.1-96.429-187.496-96.429-127.96 0-228.5 100.572-228.5 228.572v228.571h308V846h480v-.286zM960.936 1519c113.183 0 204.936-91.782 204.936-205s-91.753-205-204.936-205S756 1200.782 756 1314s91.753 205 204.936 205z" stroke="none" stroke-width="1" fill-rule="evenodd"/>
</svg>
