<svg viewBox="0 0 2160 2160" version="1.1" xmlns="http://www.w3.org/2000/svg" height="18pt" width="18pt">
    <path d="M1840 1129.23c0 259.97-211.47 470.77-472.71 470.77H475c-177.765-25.526-315-181.822-315-366.154 0-147.298 87.78-273.464 213.675-331.526-1.47-11.926-3.675-23.643-3.675-35.988 0-173.243 140.91-313.846 314.895-313.846 40.215 0 78.225 8.16 113.61 21.865C837.565 383.637 1006.72 240 1209.895 240 1442.155 240 1630 427.366 1630 658.462c0 25.84-3.045 50.843-7.56 75.427C1753.06 817.686 1840 962.997 1840 1129.231z" stroke="none" stroke-width="1" fill-rule="evenodd"/>
</svg>
