<svg viewBox="0 0 2080 2080" version="1.1" xmlns="http://www.w3.org/2000/svg" height="26pt" width="26pt">
    <path d="M1055.661 1113.374l196.706-196.706-84.48-84.066-196.292 196.292-196.291-196.292-84.48 84.066 196.291 196.706-196.291 196.292 84.48 84.066 196.291-196.292 196.292 196.292 84.48-84.066-196.706-196.292zm538.353-341.233c135.417 86.965 225.28 237.29 225.28 409.148 0 269.177-218.654 487.417-489.073 487.417H406.325C222.042 1642.616 80 1480.696 80 1289.788c0-152.395 91.106-283.256 221.139-343.303-1.243-12.424-3.727-24.433-3.727-37.27 0-179.314 146.183-324.67 326.324-324.67 41.412 0 80.753 8.283 117.61 22.363 40.17-197.12 215.341-346.202 425.713-346.202 240.602 0 434.823 194.221 434.823 433.581 0 26.504-2.898 52.593-7.868 77.854z" stroke="none" stroke-width="1" fill-rule="evenodd"/>
</svg>
