<svg viewBox="0 0 2080 2080" version="1.1" xmlns="http://www.w3.org/2000/svg" height="26pt" width="26pt">
    <path d="M1613.833 729.153c.43-7.345.586-14.533.586-21.683 0-257.783-210.313-467.47-468.916-467.47-187.496 0-354.597 112.326-428.478 277.942-11.838-1.21-23.637-1.758-35.475-1.758-199.373 0-363.037 155.615-375.226 351.51C191.38 945.21 120 1075.703 120 1215.964c0 209.96 155.732 390.62 362.177 420.273l802.454.977c284.154 0 515.369-230.433 515.369-513.69 0-153.934-68.567-297.281-186.167-394.37" stroke="none" stroke-width="1" fill-rule="evenodd"/>
</svg>
