<svg viewBox="0 0 2000 2000" version="1.1" xmlns="http://www.w3.org/2000/svg" height="50pt" width="50pt">
    <path d="M1198.857 1176.743l93.029-93.448L981.79 773.62l-309.676 309.676 93.029 93.448L916 1025.467V1459.6h132v-434.133l150.857 151.276zm413.181-405.22c137.029 88 227.962 240.115 227.962 414.02 0 272.38-221.257 493.219-494.895 493.219H410.21C223.733 1652.362 80 1488.514 80 1295.333c0-154.21 92.19-286.628 223.771-347.39-1.257-12.572-3.771-24.724-3.771-37.714 0-181.448 147.924-328.534 330.21-328.534 41.904 0 81.714 8.381 119.009 22.629C789.867 404.857 967.124 254 1180 254c243.467 0 440 196.533 440 438.743 0 26.819-2.933 53.219-7.962 78.78z" stroke="none" stroke-width="1" fill-rule="evenodd"/>
</svg>
