<svg viewBox="0 0 2080 2080" version="1.1" xmlns="http://www.w3.org/2000/svg" height="26pt" width="26pt">
    <path d="M1302.606 1677.762l-847.063-.754C250.587 1647.548 96 1468.07 96 1259.552c0-144.068 75.806-277.702 196.952-353.508 4.778-199.425 168.96-360.172 370.02-360.172a354.31 354.31 0 0 1 55.565 4.4C787.638 374.147 960.327 253 1155.101 253c258.469 0 468.747 209.566 468.747 467.196 0 11.692-.545 23.634-1.635 35.913 125.128 97.638 198.461 245.897 198.461 405.386 0 284.66-232.404 516.267-518.068 516.267zm4.456-527.225l136.97-137.587L987.465 557l-455.95 455.95 136.97 137.587L890.6 927.807V1567h194.35V927.806l222.113 222.731z" stroke="none" stroke-width="1" fill-rule="evenodd"/>
</svg>
