<svg viewBox="0 0 2000 2000" version="1.1" xmlns="http://www.w3.org/2000/svg" height="50pt" width="50pt">
    <path d="M1302.606 1677.762l-847.063-.754C250.587 1647.548 96 1468.07 96 1259.552c0-144.068 75.806-277.702 196.952-353.508 4.778-199.425 168.96-360.172 370.02-360.172a354.31 354.31 0 0 1 55.565 4.4C787.638 374.147 960.327 253 1155.101 253c258.469 0 468.747 209.566 468.747 467.196 0 11.692-.545 23.634-1.635 35.913 125.128 97.638 198.461 245.897 198.461 405.386 0 284.66-232.404 516.267-518.068 516.267zm-103.749-501.02l93.029-93.447L981.79 773.62l-309.676 309.676 93.029 93.448L916 1025.467V1459.6h132v-434.133l150.857 151.276z" stroke="none" stroke-width="1" fill-rule="evenodd"/>
</svg>
