<svg viewBox="0 0 2000 2000" version="1.1" xmlns="http://www.w3.org/2000/svg" height="50pt" width="50pt">
    <path d="M869.109 284.508c277.972-45.277 561.615-84.892 839.583-124.507V895.728c-277.968 0-561.611 5.658-839.583 5.658V284.508zM160 380.718c209.897-33.956 419.794-62.255 635.362-84.891v605.558c-215.568 0-425.465 5.661-635.362 5.661V380.72zm0 588.581c209.897 0 419.794 5.659 635.362 0v611.22c-215.568-28.299-425.465-56.597-635.362-84.892V969.299zm709.109 5.66h839.583v735.727c-277.968-45.277-561.611-79.234-839.583-118.85V974.96z" stroke="none" stroke-width="1" fill-rule="evenodd"/>
</svg>
