<svg xmlns="http://www.w3.org/2000/svg"><symbol id="add" viewBox="0 0 1920 1920">
    <path d="M1440 1056h-384v384H864v-384H480V864h384V480h192v384h384v192zM960 0C430.656 0 0 430.656 0 960s430.656 960 960 960 960-430.656 960-960S1489.344 0 960 0z" fill-rule="evenodd"/>
</symbol><symbol id="arrow-left" viewBox="0 0 1920 1920">
    <path d="M845.042 960l624.255-623.948c77.372-77.333 77.369-201.74.597-278.474-77.307-77.27-201.51-76.467-278.612.596L451.102 797.99c-44.47 44.449-63.38 104.449-56.843 162.01-6.537 57.561 12.372 117.561 56.843 162.01l740.18 739.816c77.102 77.063 201.305 77.865 278.612.596 76.772-76.734 76.775-201.14-.597-278.474L845.042 960z" fill-rule="evenodd"/>
</symbol></svg>